<svg width="25" height="25" viewBox="0 0 25 25" fill="none" xmlns="http://www.w3.org/2000/svg">
<path fill-rule="evenodd" clip-rule="evenodd" d="M7.87891 8.77684C7.87891 6.84773 8.53765 5.48694 9.44857 4.60726C10.3716 3.71592 11.6156 3.2583 12.8789 3.2583C14.1422 3.2583 15.3863 3.71594 16.3092 4.60728C17.2202 5.48697 17.8789 6.84775 17.8789 8.77684C17.8789 11.7194 15.9129 14.2526 14.2208 15.8669C13.4508 16.6015 12.3073 16.6015 11.5373 15.867C9.8451 14.2527 7.87891 11.7194 7.87891 8.77684ZM19.8789 8.77684C19.8789 6.36025 19.0376 4.46177 17.6986 3.16861C16.3716 1.8871 14.6156 1.25831 12.8789 1.2583C11.1422 1.2583 9.38625 1.88709 8.05924 3.16859C6.72016 4.46175 5.87891 6.36023 5.87891 8.77684C5.87891 12.5741 8.36778 15.6075 10.1568 17.3141C11.6995 18.7858 14.0586 18.7858 15.6013 17.314C17.3902 15.6074 19.8789 12.5741 19.8789 8.77684ZM12.8789 7.2583C12.3266 7.2583 11.8789 7.70602 11.8789 8.2583C11.8789 8.81059 12.3266 9.2583 12.8789 9.2583C13.4312 9.2583 13.8789 8.81059 13.8789 8.2583C13.8789 7.70602 13.4312 7.2583 12.8789 7.2583ZM9.87891 8.2583C9.87891 6.60145 11.2221 5.2583 12.8789 5.2583C14.5358 5.2583 15.8789 6.60145 15.8789 8.2583C15.8789 9.91516 14.5358 11.2583 12.8789 11.2583C11.2221 11.2583 9.87891 9.91516 9.87891 8.2583ZM6.79607 15.7062C7.01616 16.2127 6.78396 16.8017 6.27742 17.0218C5.71568 17.2659 5.33415 17.5159 5.10806 17.7364C4.88471 17.9542 4.87891 18.0735 4.87891 18.0938C4.87891 18.1157 4.88909 18.277 5.22543 18.5566C5.55581 18.8312 6.09384 19.1234 6.84665 19.3881C8.34314 19.9142 10.4758 20.2583 12.8789 20.2583C15.282 20.2583 17.4147 19.9142 18.9112 19.3881C19.664 19.1234 20.202 18.8312 20.5324 18.5566C20.8687 18.277 20.8789 18.1157 20.8789 18.0938C20.8789 18.0735 20.8731 17.9542 20.6498 17.7364C20.4237 17.5159 20.0421 17.2659 19.4804 17.0218C18.9739 16.8017 18.7417 16.2127 18.9617 15.7062C19.1818 15.1996 19.7709 14.9674 20.2774 15.1875C20.9665 15.4869 21.5849 15.8547 22.0462 16.3046C22.5101 16.757 22.8789 17.3605 22.8789 18.0938C22.8789 18.9458 22.3854 19.617 21.8109 20.0946C21.2304 20.5771 20.4504 20.9669 19.5746 21.2748C17.8137 21.894 15.4464 22.2583 12.8789 22.2583C10.3114 22.2583 7.94411 21.894 6.18324 21.2748C5.30737 20.9669 4.52738 20.5771 3.94691 20.0946C3.3724 19.617 2.87891 18.9458 2.87891 18.0938C2.87891 17.3605 3.2477 16.757 3.71165 16.3046C4.17287 15.8547 4.79134 15.4869 5.48039 15.1875C5.98692 14.9674 6.57597 15.1996 6.79607 15.7062Z" fill="#636F7E"/>
</svg>
