<svg width="25" height="25" viewBox="0 0 25 25" fill="none" xmlns="http://www.w3.org/2000/svg">
<path fill-rule="evenodd" clip-rule="evenodd" d="M12.7307 5.05951C12.9358 4.99123 13.1575 4.99123 13.3626 5.05951C13.4156 5.07716 13.5157 5.12381 13.7279 5.31029C13.9487 5.50426 14.2169 5.78119 14.6302 6.20982L17.8708 9.57007V14.7201C17.8708 15.5767 17.87 16.159 17.8332 16.6091C17.7974 17.0475 17.7325 17.2717 17.6528 17.4281C17.461 17.8044 17.1551 18.1104 16.7788 18.3021C16.6224 18.3818 16.3982 18.4467 15.9597 18.4825C15.5097 18.5193 14.9274 18.5201 14.0708 18.5201H12.0227C11.1661 18.5201 10.5838 18.5193 10.1337 18.4825C9.69528 18.4467 9.47108 18.3818 9.31468 18.3021C8.93835 18.1104 8.63239 17.8044 8.44064 17.4281C8.36095 17.2717 8.29603 17.0475 8.26021 16.6091C8.22343 16.159 8.22266 15.5767 8.22266 14.7201V9.56993L11.4631 6.20982C11.8764 5.78119 12.1446 5.50426 12.3654 5.31029C12.5777 5.12381 12.6777 5.07716 12.7307 5.05951ZM6.22266 11.6438L5.44638 12.4488C5.063 12.8463 4.42994 12.8578 4.0324 12.4744C3.63485 12.091 3.62337 11.458 4.00675 11.0604L10.0234 4.82148L10.0508 4.79315C10.4291 4.40079 10.7548 4.06304 11.0454 3.80777C11.3514 3.53889 11.6854 3.29961 12.0989 3.16193C12.7141 2.95709 13.3792 2.95709 13.9944 3.16193C14.4079 3.29961 14.7419 3.53889 15.0479 3.80777C15.3385 4.06304 15.6642 4.40078 16.0425 4.79313L16.0425 4.79314L16.0699 4.82148L22.0866 11.0604C22.4699 11.458 22.4585 12.091 22.0609 12.4744C21.6634 12.8578 21.0303 12.8463 20.6469 12.4488L19.8708 11.644V14.7201V14.7614C19.8708 15.5664 19.8708 16.2307 19.8266 16.7719C19.7807 17.334 19.6821 17.8507 19.4348 18.3361C19.0513 19.0887 18.4394 19.7006 17.6867 20.0841C17.2014 20.3314 16.6847 20.43 16.1226 20.4759C15.5814 20.5201 14.9171 20.5201 14.1121 20.5201H14.1121H14.0708H12.0227H11.9814H11.9814C11.1764 20.5201 10.512 20.5201 9.97083 20.4759C9.40873 20.43 8.89203 20.3314 8.40669 20.0841C7.65405 19.7006 7.04212 19.0887 6.65863 18.3361C6.41134 17.8507 6.31278 17.334 6.26685 16.7719C6.22263 16.2307 6.22264 15.5664 6.22266 14.7614L6.22266 14.7201V11.6438Z" fill="#636F7E"/>
</svg>
