<svg width="24" height="24" viewBox="0 0 24 24" fill="none" xmlns="http://www.w3.org/2000/svg">
<g clip-path="url(#clip0)">
<path d="M14.1492 5.01374C14.9909 5.20496 15.7644 5.68429 16.3708 6.39039C16.9772 7.09648 17.3888 7.99722 17.5531 8.97731L14.1492 5.01374ZM14.1492 1C15.8979 1.22621 17.5286 2.13807 18.7735 3.58586C20.0184 5.03365 20.8035 6.93131 21 8.96727L14.1492 1ZM20.1383 16.9747V19.985C20.1392 20.2644 20.0901 20.5411 19.9939 20.7971C19.8978 21.0532 19.7568 21.283 19.5799 21.4719C19.4031 21.6609 19.1943 21.8047 18.967 21.8942C18.7396 21.9838 18.4987 22.017 18.2597 21.9919C15.608 21.6563 13.0608 20.6012 10.8229 18.9113C8.74082 17.3707 6.97557 15.3152 5.65252 12.8907C4.19617 10.2729 3.28985 7.29253 3.00699 4.19092C2.98546 3.91344 3.01378 3.63378 3.09015 3.36974C3.16652 3.1057 3.28927 2.86307 3.45059 2.65729C3.6119 2.45152 3.80824 2.28712 4.02711 2.17454C4.24598 2.06197 4.48258 2.0037 4.72185 2.00343H7.30705C7.72525 1.99864 8.13069 2.17109 8.44778 2.48863C8.76487 2.80617 8.97198 3.24714 9.03051 3.72934C9.13963 4.69271 9.34199 5.63861 9.63373 6.54899C9.74967 6.90815 9.77476 7.29847 9.70603 7.67372C9.63731 8.04897 9.47764 8.39342 9.24595 8.66624L8.15155 9.9406C9.37827 12.4527 11.1646 14.5328 13.3219 15.9612L14.4164 14.6869C14.6506 14.4171 14.9465 14.2311 15.2687 14.1511C15.591 14.0711 15.9262 14.1003 16.2346 14.2353C17.0164 14.575 17.8288 14.8107 18.6561 14.9377C19.0747 15.0065 19.457 15.252 19.7303 15.6276C20.0035 16.0031 20.1488 16.4826 20.1383 16.9747Z" stroke="#636F7E" stroke-width="2" stroke-linecap="round" stroke-linejoin="round"/>
</g>
<defs>
<clipPath id="clip0">
<rect width="23" height="23" fill="white" transform="translate(0.886719 0.439697)"/>
</clipPath>
</defs>
</svg>
