<svg width="25" height="25" viewBox="0 0 25 25" fill="none" xmlns="http://www.w3.org/2000/svg">
<path fill-rule="evenodd" clip-rule="evenodd" d="M12.0042 5.44769C12.2092 5.37941 12.4309 5.37941 12.636 5.44769C12.689 5.46535 12.7891 5.51199 13.0013 5.69847C13.2221 5.89244 13.4903 6.16937 13.9036 6.598L17.1442 9.95825V15.1083C17.1442 15.9649 17.1434 16.5472 17.1066 16.9972C17.0708 17.4357 17.0059 17.6599 16.9262 17.8163C16.7345 18.1926 16.4285 18.4985 16.0522 18.6903C15.8958 18.77 15.6716 18.8349 15.2332 18.8707C14.7831 18.9075 14.2008 18.9083 13.3442 18.9083H11.2961C10.4395 18.9083 9.85719 18.9075 9.4071 18.8707C8.96869 18.8349 8.74448 18.77 8.58808 18.6903C8.21176 18.4985 7.9058 18.1926 7.71405 17.8163C7.63436 17.6599 7.56943 17.4357 7.53361 16.9972C7.49684 16.5472 7.49606 15.9649 7.49606 15.1083V9.95812L10.7365 6.598C11.1498 6.16937 11.418 5.89244 11.6388 5.69847C11.8511 5.51199 11.9511 5.46535 12.0042 5.44769ZM5.49606 12.032L4.71978 12.837C4.3364 13.2345 3.70334 13.246 3.3058 12.8626C2.90826 12.4792 2.89678 11.8462 3.28016 11.4486L9.29685 5.20966L9.32417 5.18133C9.70253 4.78897 10.0282 4.45123 10.3188 4.19596C10.6248 3.92708 10.9588 3.68779 11.3723 3.55011C11.9875 3.34527 12.6526 3.34527 13.2678 3.55011C13.6813 3.68779 14.0153 3.92708 14.3213 4.19596C14.6119 4.45122 14.9376 4.78896 15.3159 5.18131L15.3159 5.18132L15.3433 5.20966L21.36 11.4486C21.7433 11.8462 21.7319 12.4792 21.3343 12.8626C20.9368 13.246 20.3037 13.2345 19.9203 12.837L19.1442 12.0321V15.1083V15.1496C19.1442 15.9545 19.1442 16.6189 19.1 17.1601C19.0541 17.7222 18.9555 18.2389 18.7082 18.7242C18.3247 19.4769 17.7128 20.0888 16.9602 20.4723C16.4748 20.7196 15.9581 20.8182 15.396 20.8641C14.8548 20.9083 14.1905 20.9083 13.3855 20.9083H13.3855H13.3442H11.2961H11.2548H11.2548C10.4498 20.9083 9.78543 20.9083 9.24424 20.8641C8.68214 20.8182 8.16544 20.7196 7.6801 20.4723C6.92745 20.0888 6.31553 19.4769 5.93204 18.7242C5.68475 18.2389 5.58618 17.7222 5.54026 17.1601C5.49604 16.6189 5.49605 15.9545 5.49606 15.1496L5.49606 15.1083V12.032Z" fill="#636F7E"/>
</svg>
