<svg width="136" height="100" viewBox="0 0 136 100" fill="none" xmlns="http://www.w3.org/2000/svg">
<path d="M63.9676 9.3117C47.3926 11.04 32.9142 22.9684 28.0126 38.9201C26.5959 43.5951 26.1992 46.3151 26.1992 51.5001C26.1992 56.7984 26.5959 59.4617 28.1259 64.3917C32.1492 77.3117 42.8876 87.9934 55.9209 91.9884C60.5959 93.4051 63.3159 93.8018 68.5009 93.8018C78.4742 93.8018 86.8892 90.9118 94.7092 84.7918C113.098 70.3417 116.271 43.7651 101.821 25.3484C94.6809 16.225 84.1409 10.4734 72.4959 9.28337C69.1809 8.9717 67.4242 8.9717 63.9676 9.3117ZM74.3092 10.1617C90.1476 12.1734 104.088 24.215 108.621 39.8834C110.746 47.1651 110.746 55.8351 108.621 63.1734C106.326 71.0217 101.141 78.8417 94.7659 83.9418C70.7676 103.237 35.0676 91.0251 27.8426 61.0767C23.3092 42.2917 32.7442 22.4584 50.2259 13.9584C57.7342 10.3034 65.5826 9.0567 74.3092 10.1617Z" fill="#002F56"/>
<path d="M64.3652 10.9833C55.0435 11.9466 46.3735 16.1683 39.5735 22.9966C33.8502 28.7483 29.9402 36.2 28.4102 44.4166C27.7018 48.1 27.7018 54.9 28.4102 58.5833C29.1468 62.465 30.5918 66.7433 32.3485 70.115C38.2702 81.42 48.8102 89.2116 61.4185 91.5916C65.0452 92.3 71.9302 92.3 75.4435 91.62C88.1652 89.2116 98.7902 81.42 104.599 70.2283C106.412 66.715 107.602 63.315 108.48 59.15C108.962 56.77 109.104 55.2116 109.104 51.5C109.104 46.315 108.565 43.0566 107.007 38.325C103.834 28.8333 96.3252 20.135 87.2018 15.4033C80.2602 11.8333 71.8735 10.19 64.3652 10.9833ZM57.7068 14.4966C58.8118 15.6583 58.6702 16.2816 57.4518 15.6583C54.7318 14.2416 52.7202 16.3666 53.9952 19.285C54.6185 20.73 55.2702 21.1833 56.6302 21.1833C57.3385 21.1833 57.7918 20.9 58.6418 20.0216C59.7468 18.86 60.4552 18.775 60.1152 19.8516C59.4068 22.2316 55.3835 23.6766 53.1452 22.3733C51.4735 21.41 50.6802 18.4916 51.6435 16.65C52.2102 15.545 53.3435 14.695 54.8168 14.355C55.4968 14.185 56.0352 13.93 56.0352 13.7883C56.0352 13.25 56.8285 13.59 57.7068 14.4966ZM83.6318 14.95L84.3685 15.2333V19.115C84.3685 21.2683 84.4818 23.2233 84.6235 23.45C85.1052 24.1866 84.6235 24.3 83.1785 23.7333C81.3085 23.025 80.9968 22.7133 81.6485 22.2316C82.4702 21.6083 82.1018 20.815 80.7418 20.3333C79.3252 19.8516 78.5035 20.1633 78.6452 21.155C78.7585 21.8633 78.3052 21.92 76.8885 21.325C75.7835 20.8433 75.6418 20.2483 76.6052 20.1066C76.9168 20.05 78.3902 18.8316 79.8352 17.3583C81.3085 15.885 82.6118 14.6666 82.7252 14.6666C82.8385 14.6666 83.2352 14.78 83.6318 14.95ZM76.2935 22.4016C83.3768 24.385 89.5535 28.8333 93.4918 34.7833C95.4752 37.7866 96.6652 40.365 97.6285 43.85C98.3085 46.2866 98.3935 47.0233 98.3935 51.5C98.3935 55.8066 98.3085 56.77 97.7418 58.8666C94.7952 69.6616 86.6068 77.8783 75.9252 80.74C72.6102 81.6183 66.1218 81.76 62.5235 81.0233C51.2468 78.7 42.3785 70.2566 39.2618 58.8666C38.6952 56.77 38.6102 55.8066 38.6102 51.5C38.6102 47.1933 38.6952 46.23 39.2618 44.1333C42.4352 32.545 51.4452 24.13 63.2602 21.7783C64.0535 21.6083 66.7168 21.5516 69.2102 21.6083C72.9785 21.6933 74.1685 21.8066 76.2935 22.4016ZM103.38 32.885L103.975 34.1033L102.984 36.5683C102.417 37.9283 102.049 39.0333 102.105 39.0333C102.615 39.0333 104.485 37.815 104.485 37.475C104.485 36.6816 105.052 36.7666 105.619 37.6733C106.469 39.0616 106.384 39.685 105.392 39.4583C104.797 39.345 103.862 39.6566 101.652 40.705C98.9885 41.9516 98.6485 42.065 98.3085 41.64C98.0252 41.2716 98.0818 41.1016 98.6485 40.5916C99.2435 40.11 101.85 34.5 101.482 34.5C101.397 34.5 100.377 34.925 99.2152 35.4633C97.9685 36.0583 97.1185 36.625 97.1185 36.88C97.1185 37.7016 96.5518 37.6166 95.9852 36.71C95.1918 35.4066 95.2202 34.67 96.0702 34.8966C96.9202 35.1233 101.85 32.9133 102.02 32.205C102.247 31.3266 102.757 31.5816 103.38 32.885ZM35.4652 33.2816C35.5502 33.395 35.0685 33.99 34.3602 34.6416C33.1418 35.775 32.6318 37.05 33.4252 37.05C33.5952 37.05 34.5302 36.285 35.5218 35.35C37.0802 33.8483 37.4202 33.65 38.4402 33.65C41.1318 33.65 41.7835 36.455 39.7718 39.4016C39.3752 39.9966 39.1485 40.6483 39.2335 40.96C39.3468 41.4416 39.1768 41.555 37.9018 41.725C35.9468 42.0083 35.6068 41.5833 36.9952 40.6483C38.4402 39.685 39.3752 38.1833 39.2618 36.9933C39.1202 35.4916 38.3835 35.6616 36.2585 37.73C34.1902 39.7416 33.2268 40.0533 32.1785 39.1183C31.5268 38.5233 31.4985 36.5683 32.1218 35.6616C32.3768 35.2933 32.6035 34.7266 32.6318 34.415C32.6602 33.9616 32.9718 33.7066 33.7935 33.48C35.2102 33.055 35.2102 33.055 35.4652 33.2816ZM34.4735 50.2533C34.8135 50.6783 35.0685 51.245 35.0685 51.5283C35.0685 53.0583 32.4335 53.8233 31.5552 52.5766C30.1102 50.5366 32.9435 48.2983 34.4735 50.2533ZM105.25 50.14C106.015 50.8483 106.072 51.67 105.449 52.5766C104.57 53.8233 101.935 53.0583 101.935 51.5283C101.935 51.245 102.19 50.6783 102.53 50.2533C103.239 49.3466 104.344 49.29 105.25 50.14ZM89.8935 75.8383C89.7802 76.235 90.2618 76.83 92.0468 78.3883C93.3218 79.4933 94.6252 80.4 94.9085 80.4C95.7868 80.4 95.4752 81.165 94.2285 82.0716C93.0102 82.9783 92.5852 82.9783 92.5852 82.1C92.5852 81.6466 90.3468 79.4083 90.1202 79.635C90.0635 79.6916 90.2335 80.74 90.4885 81.93C90.7435 83.1483 90.8285 84.2533 90.6868 84.3666C90.5735 84.5083 89.5252 84.055 88.3918 83.3466C87.2585 82.6666 86.2952 82.1 86.2102 82.1C86.1535 82.1 86.4368 82.865 86.8335 83.8C87.2585 84.735 87.7402 85.5 87.9668 85.5C88.5902 85.5 88.3918 86.265 87.5985 86.8883C86.6352 87.6533 85.9552 87.6816 86.1535 86.9166C86.3802 86.0666 84.2552 80.8816 83.5468 80.5416C82.7535 80.1733 82.7818 80.0316 83.9152 79.1816C85.1902 78.19 85.5585 78.1616 85.7568 78.9266C85.8702 79.3516 86.5218 79.9466 87.5135 80.5416L89.0718 81.4483L88.6468 79.5216C88.3635 78.105 88.1085 77.5383 87.7118 77.3966C86.9468 77.17 87.0885 76.83 88.2502 76.0083C89.5252 75.1583 90.1485 75.0733 89.8935 75.8383ZM49.3202 76.5466C49.8302 76.745 50.5385 77.255 50.9068 77.68C51.3035 78.0766 51.8418 78.4166 52.1535 78.4166C52.6352 78.4166 52.6635 78.5583 52.4935 79.465C52.0968 81.7033 51.4168 82.0433 51.1335 80.23C50.9068 78.8133 49.9435 77.85 48.7818 77.85C46.8835 77.85 44.9852 80.7966 45.8352 82.355C46.2885 83.2333 47.7902 84.0833 48.8952 84.0833C49.9718 84.0833 50.0852 84.5366 49.1218 84.9616C47.6485 85.6416 44.6735 84.225 43.7102 82.4116C41.8968 78.8983 45.6368 74.96 49.3202 76.5466ZM69.5502 83.4033C70.9952 84.1116 71.9018 85.6133 71.9018 87.3416C71.9018 90.0333 70.4285 91.45 67.6802 91.45C64.3935 91.4216 62.6368 89.8633 62.8918 87.1433C63.2318 83.8566 66.5468 81.9866 69.5502 83.4033Z" fill="#002F56"/>
<path d="M81.0815 17.8119C80.2882 18.6619 80.2882 18.6902 80.7982 19.0869C81.8465 19.8519 82.3565 19.3419 82.3849 17.5569C82.3849 16.7069 82.0732 16.7636 81.0815 17.8119Z" fill="#002F56"/>
<path d="M63.4842 22.7418C44.2742 26.2268 33.7058 47.1934 42.4325 64.5334C48.1842 75.9801 60.9058 82.4401 73.3442 80.2585C92.9225 76.8301 103.491 55.5518 94.3109 37.9851C88.4742 26.8218 75.7242 20.5034 63.4842 22.7418ZM67.5075 24.3568C67.2808 25.0368 66.3458 27.9551 65.3825 30.8734C64.4192 33.8201 63.5975 36.2001 63.5125 36.2001C63.3425 36.2001 52.3492 28.2384 52.3492 28.1251C52.3492 28.0684 53.0858 27.5868 53.9925 27.0201C57.3925 24.9518 62.9742 23.2234 66.4308 23.1951L67.9042 23.1668L67.5075 24.3568ZM75.7242 23.9884C78.0475 24.5834 84.4509 27.6151 84.4509 28.1251C84.4792 28.4084 73.9392 36.2001 73.5425 36.2001C73.4292 36.2001 72.6358 33.9901 71.7575 31.2984C70.8792 28.6351 69.9158 25.6601 69.6325 24.7534L69.0658 23.0818L71.2758 23.2518C72.4658 23.3651 74.4775 23.6768 75.7242 23.9884ZM70.8225 30.8168C71.9842 34.3301 72.9758 37.2484 73.0608 37.3334C73.1458 37.4184 75.7242 35.6334 78.8125 33.3951C81.9008 31.1851 84.4509 29.4001 84.5075 29.4568C84.5642 29.5134 83.6858 32.5168 82.5242 36.1434C81.3625 39.7701 80.3992 42.8018 80.3992 42.8584C80.3992 42.9434 83.6008 43.0001 87.5109 43.0001C91.3925 43.0001 94.5375 43.1134 94.4525 43.2268C94.3675 43.3684 91.8175 45.2951 88.7575 47.5051C85.6975 49.7434 83.2325 51.5851 83.2892 51.6418C83.3458 51.6701 85.8675 53.5118 88.8992 55.7218C91.9309 57.9601 94.4809 59.8868 94.5092 60.0284C94.5659 60.1701 91.7042 60.2834 87.4825 60.2834C81.8725 60.2834 80.3708 60.3684 80.4842 60.6234C81.0508 62.2101 84.6775 73.6851 84.5925 73.7418C84.5359 73.7984 81.9858 71.9851 78.8975 69.7468C75.8092 67.5084 73.1742 65.7234 73.0608 65.7801C72.9475 65.8651 71.8992 68.8684 70.7375 72.4384C69.5758 76.0368 68.5842 78.9835 68.4992 78.9835C68.4142 78.9835 67.3942 75.9801 66.2325 72.3251C65.0708 68.6701 64.0225 65.6668 63.9092 65.6668C63.7958 65.6668 61.1892 67.4801 58.1292 69.6618C55.0975 71.8718 52.5475 73.6001 52.4908 73.5434C52.4058 73.4868 53.3125 70.5118 54.4742 66.9134C55.6358 63.3434 56.5992 60.3401 56.5992 60.1984C56.5992 60.0851 53.3975 60.0001 49.4875 60.0001C45.6058 60.0001 42.4608 59.8868 42.5458 59.7734C42.6308 59.6318 45.1242 57.7618 48.0992 55.6084C51.0458 53.4834 53.5392 51.6418 53.5958 51.5284C53.6808 51.4151 51.1875 49.4884 48.0992 47.2501C44.9825 44.9834 42.4325 43.0851 42.4325 43.0001C42.4325 42.9151 45.6058 42.8868 49.5158 42.9434C53.3975 43.0001 56.5992 42.9434 56.5992 42.8301C56.5992 42.7451 55.6358 39.6568 54.4458 36.0018C53.2842 32.3468 52.3492 29.3151 52.4058 29.2584C52.4625 29.2301 55.0125 31.0434 58.0725 33.2818C61.1608 35.5201 63.7675 37.3051 63.9092 37.2484C64.0225 37.1634 65.0708 34.1601 66.2325 30.5901C67.3942 26.9918 68.4425 24.1584 68.5275 24.2434C68.6408 24.3568 69.6608 27.3034 70.8225 30.8168ZM53.4258 35.1801C54.5592 38.6651 55.4658 41.6684 55.4658 41.8384C55.4658 42.0651 53.3125 42.1501 48.5242 42.1501C44.6992 42.1501 41.5825 42.0651 41.5825 41.9801C41.5825 41.4984 43.7358 37.3051 44.8692 35.5768C46.0592 33.7918 50.7058 28.8334 51.1875 28.8334C51.3008 28.8334 52.2925 31.6951 53.4258 35.1801ZM88.5592 31.4401C91.5059 34.3584 94.2825 38.6651 95.2459 41.8101L95.4725 42.4618L88.5592 42.2634C84.7909 42.1501 81.6458 42.0368 81.5892 42.0084C81.5325 41.9518 82.4108 38.9768 83.5442 35.4068C85.2725 29.9101 85.6692 28.9184 86.0375 29.1168C86.2925 29.2301 87.4259 30.2784 88.5592 31.4401ZM47.1358 47.4201C50.0825 49.5451 52.5192 51.3301 52.5758 51.3584C52.7175 51.4718 41.6108 59.4334 41.3275 59.4334C40.6758 59.4334 39.7692 52.8601 40.0242 49.8001C40.2792 46.6551 41.0442 43.2268 41.4408 43.3968C41.6108 43.4534 44.1892 45.2668 47.1358 47.4201ZM96.2659 45.0401C96.8892 47.9868 97.1159 51.4434 96.8325 54.1351C96.5209 56.9401 95.9542 59.5751 95.6425 59.5751C95.3592 59.5751 84.6492 51.7268 84.6492 51.5284C84.6775 51.3018 95.4442 43.5668 95.7275 43.5668C95.8409 43.5668 96.0959 44.2468 96.2659 45.0401ZM51.2158 60.8501H55.6642L53.5392 67.4801C51.6408 73.3734 51.3292 74.1101 50.9042 73.8834C49.8842 73.3168 46.2008 69.3501 44.8975 67.4234C43.5375 65.4118 41.5825 61.5018 41.5825 60.8218C41.5825 60.5668 42.2342 60.5384 44.1892 60.6801C45.6058 60.7651 48.7792 60.8501 51.2158 60.8501ZM94.8209 62.3234C93.6592 65.3834 91.6475 68.2734 88.6442 71.3334L85.7259 74.3084L83.6292 67.9334C82.4958 64.4201 81.5325 61.3884 81.5325 61.1901C81.5325 60.9351 83.1192 60.8501 88.4742 60.8501H95.4159L94.8209 62.3234ZM65.8358 73.3451L67.8758 79.6918L66.9692 79.7768C65.7792 79.9185 62.2658 79.3235 59.9992 78.6435C58.0442 78.0201 54.0492 76.1501 52.9442 75.3284L52.2925 74.8184L57.7608 70.8234C60.7925 68.6418 63.3708 66.8568 63.5125 66.9134C63.6825 66.9418 64.7025 69.8318 65.8358 73.3451ZM79.1525 70.8234C85.4992 75.4701 85.3292 74.8468 80.8242 77.0285C77.5658 78.5868 74.3925 79.4935 71.2758 79.7485L69.0658 79.9185L70.0575 76.9718C70.6242 75.3568 71.5875 72.4101 72.2108 70.3984C72.8342 68.4151 73.4008 66.8001 73.4858 66.8001C73.5425 66.8001 76.0925 68.6134 79.1525 70.8234Z" fill="#002F56"/>
<path d="M65.5819 35.095L62.8053 43.5667L53.6819 43.6234L44.5586 43.7084L51.8686 49.035C55.8636 51.9817 59.1503 54.5317 59.1503 54.7017C59.1503 54.9 57.9319 58.725 56.4586 63.2584C54.9853 67.7634 53.8236 71.5034 53.9086 71.56C53.9653 71.6167 57.2803 69.2934 61.2469 66.4034L68.5003 61.1617L75.8953 66.545C81.2219 70.4267 83.2336 71.73 83.0636 71.2767C82.9786 70.9084 81.7319 67.0834 80.3719 62.7484C78.9836 58.4134 77.8503 54.7584 77.8503 54.645C77.8503 54.5034 81.0802 52.0667 85.0469 49.205L92.2436 43.9917L83.3186 43.8217C78.4169 43.7084 74.3086 43.51 74.1669 43.3967C74.0536 43.255 72.7786 39.515 71.3336 35.0667C69.8886 30.6184 68.6419 26.9067 68.5569 26.8217C68.4436 26.7084 67.1119 30.4484 65.5819 35.095Z" fill="#002F56"/>
<path d="M53.8242 31.4115C53.9092 31.6382 54.7592 34.2448 55.7225 37.2482L57.4508 42.6598L59.6608 42.7732C60.8508 42.8298 61.9558 42.7732 62.0975 42.6598C62.4942 42.3482 63.6842 38.3532 63.4575 38.1548C63.3442 38.0698 61.7858 36.9082 60.0008 35.6332C58.2158 34.3298 56.0625 32.7715 55.2125 32.1482C54.3625 31.5248 53.7392 31.1848 53.8242 31.4115Z" fill="#002F56"/>
<path d="M78.5597 34.5283C76.2363 36.2567 74.083 37.815 73.828 38.0133C73.3747 38.325 73.3747 38.495 73.9697 40.3367C74.3097 41.4133 74.7063 42.4617 74.8197 42.6317C74.9613 42.8867 75.8113 43 77.2847 43H79.523L80.713 39.2317C82.9797 32.12 83.178 31.3833 83.008 31.4117C82.8947 31.4117 80.9113 32.8283 78.5597 34.5283Z" fill="#002F56"/>
<path d="M51.5003 54.1066C50.0269 55.1832 47.8453 56.7699 46.6836 57.6199L44.5586 59.1499L50.7636 59.0932L56.9686 59.0082L57.4503 57.5916C58.4419 54.6449 58.4703 54.8149 56.6286 53.5116C55.7219 52.8882 54.7869 52.2932 54.5886 52.2366C54.3619 52.1516 52.9736 53.0016 51.5003 54.1066Z" fill="#002F56"/>
<path d="M80.9664 53.2286C80.1164 53.8519 79.2381 54.4753 79.0114 54.5886C78.6998 54.7869 78.7564 55.2403 79.4081 57.1386L80.1731 59.4336H86.2364C89.5798 59.4336 92.2998 59.3769 92.2998 59.3203C92.2998 59.2069 83.5164 52.7186 82.8081 52.2936C82.6381 52.1803 81.8164 52.6336 80.9664 53.2286Z" fill="#002F56"/>
<path d="M66.8282 63.3719C66.0066 63.9953 65.1849 64.6186 65.0149 64.7886C64.7882 65.0153 65.2132 66.6869 66.5449 70.7669C67.5366 73.8836 68.4149 76.4336 68.4999 76.4336C68.6416 76.4336 72.1832 65.4403 72.1832 65.0436C72.1832 64.8453 68.6982 62.2669 68.4716 62.2669C68.4149 62.2669 67.6782 62.7769 66.8282 63.3719Z" fill="#002F56"/>
<path d="M66.4306 84.5932C65.184 85.9532 65.014 88.5599 66.0906 89.6366C67.5923 91.1382 69.4623 89.8066 69.434 87.2566C69.4056 85.3299 68.7256 84.0832 67.6773 84.0832C67.2523 84.0832 66.6856 84.3099 66.4306 84.5932Z" fill="#002F56"/>
</svg>
