<svg width="235" height="80" viewBox="0 0 235 80" fill="none" xmlns="http://www.w3.org/2000/svg">
<path d="M120.688 48.6859V46.6666L119.158 43.8335H120.174L120.752 45.0787C120.917 45.4367 121.043 45.712 121.174 46.0394H121.19C121.309 45.7335 121.447 45.4275 121.609 45.0757L122.193 43.8335H123.194L121.581 46.6421V48.6859H120.688Z" fill="#545554"/>
<path d="M137.919 46.2138C137.919 47.7864 136.913 48.6859 135.548 48.6859C134.184 48.6859 133.26 47.6732 133.26 46.2964C133.26 44.8523 134.22 43.8335 135.622 43.8335C137.023 43.8335 137.919 44.8707 137.919 46.2138ZM134.217 46.278C134.217 47.2387 134.728 48.0006 135.594 48.0006C136.46 48.0006 136.965 47.2265 136.965 46.2444C136.965 45.3571 136.5 44.5219 135.594 44.5219C134.689 44.5219 134.217 45.3143 134.217 46.278V46.278Z" fill="#545554"/>
<path d="M149.828 43.8335V46.6177C149.828 47.5355 150.214 47.9853 150.804 47.9853C151.395 47.9853 151.811 47.5539 151.811 46.6177V43.8335H152.683V46.5595C152.683 48.0311 151.927 48.7012 150.774 48.7012C149.672 48.7012 148.953 48.0893 148.953 46.5809V43.8488L149.828 43.8335Z" fill="#545554"/>
<path d="M163.502 43.9377C163.943 43.8655 164.39 43.8307 164.836 43.8337C165.528 43.8337 165.999 43.9499 166.32 44.2222C166.457 44.3423 166.566 44.4914 166.638 44.6586C166.71 44.8259 166.743 45.0071 166.736 45.189C166.735 45.4559 166.65 45.7156 166.493 45.9313C166.336 46.1471 166.115 46.308 165.861 46.3914V46.4128C166.21 46.5444 166.412 46.8748 166.531 47.3307C166.628 47.7867 166.756 48.2354 166.914 48.6738H165.996C165.853 48.3062 165.745 47.9262 165.672 47.5387C165.534 46.9268 165.308 46.7066 164.806 46.6943H164.365V48.6738H163.49L163.502 43.9377ZM164.377 46.0794H164.898C165.494 46.0794 165.861 45.7734 165.861 45.2839C165.861 44.7944 165.491 44.5159 164.922 44.5129C164.739 44.5066 164.557 44.522 164.377 44.5588V46.0794Z" fill="#545554"/>
<path d="M150.016 39.2687L149.603 40.6424H148.686L150.243 35.79H151.372L152.944 40.6424H151.996L151.558 39.2687H150.016ZM151.415 38.5987L151.032 37.4055C150.94 37.0995 150.858 36.7752 150.784 36.4876C150.714 36.7721 150.641 37.0995 150.555 37.4055L150.179 38.6017L151.415 38.5987Z" fill="#545554"/>
<path d="M163.17 35.8911C163.63 35.8223 164.094 35.7885 164.559 35.7901C165.452 35.7901 166.061 35.9767 166.502 36.3408C166.753 36.5556 166.951 36.8256 167.081 37.1298C167.21 37.4339 167.268 37.7639 167.248 38.0939C167.267 38.445 167.21 38.796 167.083 39.1236C166.955 39.4511 166.759 39.7478 166.508 39.9939C166.028 40.4222 165.284 40.6425 164.348 40.6425C163.954 40.6459 163.561 40.6245 163.17 40.5782V35.8911ZM164.039 39.9296C164.2 39.9499 164.363 39.9581 164.525 39.9541C165.657 39.9541 166.33 39.3422 166.33 38.1184C166.33 37.0659 165.718 36.4601 164.632 36.4601C164.433 36.4569 164.234 36.4743 164.039 36.5121V39.9296Z" fill="#545554"/>
<path d="M119.496 35.79H120.515V39.5379H122.834V40.6424H119.496V35.79Z" fill="#545554"/>
<path d="M136.919 38.4763H134.974V39.899H137.149V40.6302H134.031V35.79H137.036V36.5182H134.974V37.7665H136.919V38.4763Z" fill="#545554"/>
<path d="M119.496 51.8801H120.515V55.628H122.834V56.7294H119.496V51.8801Z" fill="#545554"/>
<path d="M136.027 51.877V56.7293H135.158V51.877H136.027Z" fill="#545554"/>
<path d="M134.521 51.877H136.663V52.7459H134.521V51.877Z" fill="#545554"/>
<path d="M134.521 55.8604H136.663V56.7292H134.521V55.8604Z" fill="#545554"/>
<path d="M149.416 51.877H152.222V52.6082H150.303V53.9452H152.087V54.6703H150.303V56.7293H149.416V51.877Z" fill="#545554"/>
<path d="M166.539 54.5785H164.594V56.0012H166.769V56.7293H163.654V51.877H166.662V52.6082H164.6V53.8534H166.546L166.539 54.5785Z" fill="#545554"/>
<path d="M98.3136 12.2043L94.1864 20.1774L91.445 25.4704L88.7037 20.1774L84.5765 12.2043H81.1406V28.897H83.8391H84.6376V20.1774H85.274L89.7898 28.897H91.445H93.1002L97.6161 20.1774H98.2524V28.897H99.051H101.749V12.2043H98.3136Z" fill="#52B953"/>
<path d="M76.6626 21.3218C76.2189 20.5822 75.5911 19.9702 74.8404 19.5455C74.0897 19.1208 73.2418 18.898 72.3793 18.8987H64.55C64.0842 18.8987 63.6376 18.7137 63.3082 18.3843C62.9789 18.055 62.7939 17.6083 62.7939 17.1425C62.7939 16.6768 62.9789 16.2301 63.3082 15.9008C63.6376 15.5714 64.0842 15.3864 64.55 15.3864H76.6626V12.1433H64.55C63.2241 12.1433 61.9526 12.67 61.015 13.6076C60.0775 14.5451 59.5508 15.8167 59.5508 17.1425C59.5508 18.4684 60.0775 19.74 61.015 20.6775C61.9526 21.6151 63.2241 22.1418 64.55 22.1418H72.3854C72.8512 22.1418 73.2978 22.3268 73.6272 22.6561C73.9565 22.9855 74.1416 23.4322 74.1416 23.8979C74.1416 24.3637 73.9565 24.8104 73.6272 25.1397C73.2978 25.4691 72.8512 25.6541 72.3854 25.6541H60.2698V28.8972H72.3854C73.7094 28.8939 74.9782 28.3659 75.9136 27.4288C76.8489 26.4917 77.3746 25.222 77.3755 23.8979C77.3785 22.9901 77.1319 22.0989 76.6626 21.3218V21.3218Z" fill="#52B953"/>
<path d="M153.774 28.8972L146.278 22.1418H148.469C149.125 22.1418 149.775 22.0125 150.382 21.7612C150.988 21.51 151.54 21.1418 152.004 20.6775C152.468 20.2133 152.836 19.6622 153.087 19.0557C153.339 18.4491 153.468 17.7991 153.468 17.1425C153.468 16.486 153.339 15.836 153.087 15.2294C152.836 14.6229 152.468 14.0718 152.004 13.6076C151.54 13.1433 150.988 12.7751 150.382 12.5239C149.775 12.2726 149.125 12.1433 148.469 12.1433H135.604V15.3864H148.469C148.934 15.3864 149.381 15.5714 149.711 15.9008C150.04 16.2301 150.225 16.6768 150.225 17.1425C150.225 17.6083 150.04 18.055 149.711 18.3843C149.381 18.7137 148.934 18.8987 148.469 18.8987H135.604V22.1418H141.355L148.851 28.8972H153.774Z" fill="#52B953"/>
<path d="M174.616 12.1433H157.379V15.3864H164.376V28.8972H167.619V15.3864H174.616V12.1433Z" fill="#52B953"/>
<path d="M108.68 35.634H59.5508V56.4876H108.68V35.634Z" fill="#0E564D"/>
<path d="M102.463 48.5452C102.462 48.8541 102.339 49.1502 102.12 49.3686C101.902 49.587 101.606 49.7101 101.297 49.7109H96.5946C96.2857 49.7101 95.9897 49.587 95.7712 49.3686C95.5528 49.1502 95.4297 48.8541 95.4289 48.5452V40.2356H92.5469V48.5452C92.5469 49.6188 92.9733 50.6483 93.7324 51.4074C94.4915 52.1665 95.5211 52.593 96.5946 52.593H101.288C102.361 52.593 103.391 52.1665 104.15 51.4074C104.909 50.6483 105.336 49.6188 105.336 48.5452V40.2356H102.463V48.5452Z" fill="white"/>
<path d="M86.9568 40.2356H78.5156V42.9524H86.9568C87.2176 42.9596 87.4648 43.07 87.6444 43.2593C87.8239 43.4485 87.921 43.7013 87.9144 43.9621V48.8573C87.9202 49.1176 87.8227 49.3695 87.6433 49.5581C87.4638 49.7467 87.217 49.8567 86.9568 49.8639H78.5156V52.5807H86.9568C88.9118 52.5807 90.4936 50.9133 90.4936 48.8573V43.9621C90.4936 41.903 88.9118 40.2356 86.9568 40.2356Z" fill="white"/>
<path d="M76.6023 40.2356H64.4102V42.9524H76.6023V40.2356Z" fill="white"/>
<path d="M76.6023 45.0542H64.4102V47.771H76.6023V45.0542Z" fill="white"/>
<path d="M76.6023 49.876H64.4102V52.5928H76.6023V49.876Z" fill="white"/>
<path d="M117.434 19.2014C117.434 19.2014 118.569 21.4563 118.315 26.1404H124.74L132.202 5.07568L109.531 12.3053V26.1373H116.311C117.151 23.9251 117.533 21.5655 117.434 19.2014V19.2014Z" fill="#52B953"/>
<path d="M137.445 0L106.287 9.93728V29.3804H114.75C115.372 28.3518 115.895 27.2658 116.31 26.1374H109.53V12.3053L132.201 5.07572L124.727 26.1374H118.302C118.239 27.2243 118.116 28.3069 117.935 29.3804H127.006L137.445 0Z" fill="#0E564D"/>
<path d="M117.433 19.2014C117.788 20.8316 117.807 22.5171 117.488 24.1548C116.907 27.494 115.256 30.554 112.786 32.8744C112.184 33.4499 111.535 33.9739 110.846 34.4408C110.152 34.888 109.428 35.2877 108.68 35.6371C109.233 35.0252 109.848 34.4959 110.39 33.8993C110.931 33.3027 111.491 32.7428 111.963 32.1064C112.201 31.8005 112.467 31.4945 112.7 31.1886L113.37 30.2218C113.609 29.9158 113.792 29.564 114 29.2366C114.211 28.9084 114.403 28.5682 114.575 28.2178C115.333 26.8442 115.948 25.3966 116.411 23.8978C116.887 22.3647 117.228 20.7934 117.433 19.2014V19.2014Z" fill="#0E564D"/>
<path d="M6.32153 70.1057L6.40719 71.8955H6.19303C6.17068 71.6601 6.11077 71.4297 6.01558 71.2133C5.91218 71.0094 5.75024 70.8411 5.55053 70.7298C5.31119 70.6281 5.05127 70.5841 4.79178 70.6014H3.72095V76.4144C3.6853 76.7158 3.73847 77.021 3.87392 77.2925C3.95979 77.3775 4.06306 77.4428 4.17662 77.484C4.29019 77.5252 4.41134 77.5413 4.53172 77.5311H4.79178V77.7392H1.55788V77.5311H1.83017C1.96098 77.5424 2.09251 77.5203 2.2124 77.4668C2.33229 77.4132 2.43659 77.3301 2.5155 77.2252C2.62585 76.97 2.67206 76.6916 2.65012 76.4144V70.6014H1.73227C1.47595 70.5892 1.21923 70.6149 0.970451 70.6778C0.764449 70.7602 0.589119 70.9045 0.468692 71.0909C0.316993 71.3384 0.231641 71.6207 0.220871 71.9108H0.00976562L0.098491 70.121L6.32153 70.1057Z" fill="#0E564D"/>
<path d="M11.0351 69.931C11.5196 69.9284 11.9993 70.0275 12.4431 70.222C12.8868 70.4165 13.2848 70.702 13.6112 71.06C13.9716 71.4333 14.2536 71.8749 14.4406 72.3588C14.6277 72.8427 14.716 73.3592 14.7004 73.8778C14.7176 74.4077 14.6297 74.9358 14.4417 75.4315C14.2537 75.9272 13.9694 76.3808 13.6051 76.766C13.2644 77.1266 12.8541 77.4145 12.3991 77.6121C11.944 77.8098 11.4536 77.9132 10.9575 77.916C10.4614 77.9189 9.96986 77.8211 9.51257 77.6287C9.05527 77.4363 8.64171 77.1533 8.29687 76.7966C7.93579 76.4077 7.65527 75.9512 7.47148 75.4534C7.28769 74.9556 7.20428 74.4264 7.22604 73.8962C7.20522 73.3427 7.30374 72.7912 7.5149 72.2791C7.72606 71.767 8.04492 71.3064 8.44984 70.9285C9.14824 70.2711 10.0762 69.9131 11.0351 69.931V69.931ZM10.928 70.3441C10.6139 70.3333 10.3017 70.3963 10.0163 70.5281C9.73102 70.6599 9.48056 70.8567 9.28509 71.1028C8.77109 71.7331 8.51409 72.6561 8.51409 73.8717C8.51409 75.12 8.78027 76.0796 9.31262 76.7507C9.50348 76.997 9.74987 77.1946 10.0317 77.3276C10.3135 77.4605 10.6227 77.5249 10.9342 77.5156C11.275 77.522 11.6127 77.4498 11.921 77.3043C12.2293 77.1589 12.4999 76.9443 12.7117 76.6773C13.1809 76.1163 13.4144 75.2342 13.4124 74.0308C13.4124 72.7234 13.1554 71.7494 12.6414 71.109C12.4355 70.8564 12.1732 70.6556 11.8757 70.5227C11.5781 70.3899 11.2535 70.3287 10.928 70.3441V70.3441ZM10.5517 68.5237H11.4879L12.4394 69.3406H12.2834L10.9862 68.9061L9.73789 69.3406H9.58492L10.5517 68.5237ZM11.7388 67.9821C11.6705 68.0408 11.59 68.0836 11.5032 68.1076C11.391 68.1347 11.2863 68.187 11.1973 68.2606C11.1789 68.2606 11.1544 68.3187 11.13 68.4074H10.9556C10.9715 68.3341 11.0022 68.2648 11.0459 68.2037C11.0896 68.1427 11.1452 68.0912 11.2095 68.0525C11.3258 67.9668 11.3808 67.8934 11.3778 67.8383C11.3778 67.6731 11.2524 67.5905 11.0015 67.5905C10.8087 67.5905 10.7139 67.6211 10.7139 67.6854C10.7224 67.7193 10.7405 67.7501 10.7659 67.7741C10.7943 67.7974 10.8138 67.8298 10.821 67.8659C10.821 67.9454 10.7567 67.9852 10.6282 67.9852C10.463 67.9852 10.3804 67.921 10.3804 67.7925C10.3804 67.5752 10.6129 67.4651 11.078 67.4651C11.543 67.4651 11.8122 67.5844 11.8122 67.82C11.812 67.8506 11.8053 67.8809 11.7926 67.9088C11.78 67.9367 11.7617 67.9617 11.7388 67.9821V67.9821Z" fill="#0E564D"/>
<path d="M25.2249 69.9312L25.3993 72.5287H25.2249C25.071 71.8804 24.723 71.2945 24.2275 70.849C23.7834 70.5055 23.2346 70.3251 22.6733 70.3381C22.1625 70.3236 21.6604 70.4725 21.24 70.763C20.8197 71.0536 20.5029 71.4706 20.3358 71.9535C20.082 72.6233 19.9625 73.3364 19.984 74.0523C19.9694 74.6673 20.0819 75.2787 20.3144 75.8482C20.5141 76.3364 20.8633 76.7487 21.3118 77.0262C21.7731 77.3034 22.3035 77.4445 22.8416 77.4331C23.2971 77.4457 23.7482 77.3403 24.151 77.1271C24.6519 76.7981 25.0782 76.3676 25.4024 75.8635L25.5768 75.9737C25.265 76.5777 24.8036 77.0917 24.2367 77.4667C23.6876 77.7927 23.0577 77.957 22.4193 77.9409C21.8511 77.9679 21.285 77.8534 20.7719 77.6078C20.2588 77.3621 19.8146 76.9931 19.4792 76.5336C18.9567 75.8191 18.6836 74.9526 18.702 74.0676C18.6948 73.335 18.8715 72.6123 19.216 71.9657C19.5375 71.3485 20.0263 70.8342 20.6265 70.4819C21.2208 70.1328 21.8984 69.951 22.5876 69.9556C23.1568 69.9597 23.7168 70.0992 24.2214 70.3625C24.3238 70.4264 24.4384 70.4681 24.5579 70.4849C24.6068 70.486 24.6553 70.477 24.7006 70.4586C24.7458 70.4402 24.7868 70.4127 24.8211 70.3778C24.9283 70.2587 25.0012 70.1128 25.0322 69.9556L25.2249 69.9312Z" fill="#0E564D"/>
<path d="M28.4711 73.6608H32.0201V71.4763C32.0353 71.2171 32.0105 70.9571 31.9467 70.7053C31.8988 70.5997 31.8155 70.5142 31.7111 70.4636C31.5559 70.3734 31.3796 70.3259 31.2002 70.326H30.9279V70.1179H34.1924V70.326H33.9201C33.7415 70.3268 33.5659 70.372 33.4091 70.4575C33.352 70.484 33.3009 70.5218 33.2588 70.5686C33.2167 70.6154 33.1846 70.6702 33.1644 70.7298C33.1088 70.9745 33.0872 71.2257 33.1001 71.4763V76.4021C33.085 76.6594 33.1098 76.9174 33.1735 77.167C33.2198 77.2717 33.3009 77.3571 33.403 77.4087C33.5605 77.4987 33.7387 77.5461 33.9201 77.5464H34.1924V77.7544H30.9248V77.5464H31.1971C31.3243 77.5577 31.4524 77.5383 31.5706 77.4899C31.6888 77.4414 31.7936 77.3653 31.8763 77.268C32.0013 76.9976 32.0499 76.6982 32.017 76.4021V74.0769H28.4711V76.4021C28.456 76.6594 28.4808 76.9174 28.5445 77.167C28.5923 77.2727 28.6757 77.3582 28.7801 77.4087C28.9364 77.4989 29.1136 77.5464 29.2941 77.5464H29.5694V77.7544H26.2988V77.5464H26.5681C26.6962 77.5582 26.8254 77.5391 26.9446 77.4906C27.0639 77.4422 27.1698 77.3658 27.2534 77.268C27.3753 76.9967 27.4228 76.6979 27.3911 76.4021V71.4763C27.4063 71.2171 27.3815 70.9571 27.3176 70.7053C27.2691 70.6012 27.1873 70.5161 27.0851 70.4636C26.9276 70.3737 26.7494 70.3263 26.5681 70.326H26.2988V70.1179H29.5725V70.326H29.2971C29.1176 70.3268 28.941 70.372 28.7831 70.4575C28.67 70.5131 28.5832 70.6109 28.5414 70.7298C28.4828 70.9741 28.4601 71.2256 28.4741 71.4763L28.4711 73.6608Z" fill="#0E564D"/>
<path d="M42.4709 70.3136C42.332 70.3101 42.1947 70.3433 42.0727 70.4099C41.9508 70.4766 41.8486 70.5742 41.7764 70.693C41.6751 70.9505 41.6353 71.2281 41.6602 71.5037V74.5999C41.6849 75.203 41.6084 75.8059 41.4338 76.3836C41.2556 76.8286 40.9433 77.2071 40.5404 77.4667C39.9926 77.7968 39.3587 77.9556 38.72 77.9226C37.2331 77.9226 36.2948 77.3892 35.9052 76.3224C35.7532 75.7075 35.6924 75.0735 35.7247 74.4408V71.4578C35.7552 71.139 35.6868 70.8186 35.5289 70.54C35.4484 70.4575 35.3499 70.3947 35.2411 70.3565C35.1323 70.3183 35.0162 70.3057 34.9017 70.3197H34.6172V70.1116H37.9153V70.3197H37.6094C37.4799 70.3088 37.3499 70.3312 37.2315 70.3848C37.1132 70.4383 37.0105 70.5212 36.9332 70.6256C36.8144 70.8903 36.766 71.1812 36.7925 71.4701V74.7988C36.7925 75.6952 36.921 76.3286 37.1719 76.711C37.4992 77.2036 38.0316 77.4483 38.7751 77.4483C39.2411 77.4562 39.7014 77.3445 40.1121 77.124C40.4718 76.9492 40.7588 76.6536 40.9228 76.2888C41.0984 75.7303 41.172 75.1447 41.1401 74.5602V71.4578C41.1759 71.1502 41.1217 70.8388 40.984 70.5614C40.8992 70.4753 40.7968 70.4086 40.6838 70.3659C40.5708 70.3231 40.4498 70.3053 40.3293 70.3136H40.0417V70.1055H42.6331C42.7795 70.1028 42.9235 70.0683 43.0553 70.0046C43.1685 69.9526 43.2022 69.8914 43.1624 69.8179C43.0451 69.7473 42.9414 69.6561 42.8564 69.5487C42.8184 69.473 42.8 69.3889 42.803 69.3042C42.806 69.2196 42.8302 69.137 42.8735 69.0642C42.9168 68.9913 42.9777 68.9305 43.0506 68.8874C43.1236 68.8443 43.2062 68.8203 43.2909 68.8175C43.3958 68.8155 43.4991 68.8431 43.5889 68.8972C43.6788 68.9514 43.7515 69.0298 43.7988 69.1234C43.8535 69.2238 43.882 69.3364 43.8814 69.4508C43.88 69.5401 43.8656 69.6288 43.8385 69.7139C43.8007 69.8245 43.7384 69.9251 43.6563 70.0083C43.5742 70.0914 43.4744 70.155 43.3643 70.1943C43.1306 70.2812 42.8824 70.3228 42.6331 70.3166L42.4709 70.3136ZM39.9744 67.6243L38.3131 69.5671H38.1234L38.7139 67.6243H39.9744Z" fill="#0E564D"/>
<path d="M50.5715 69.9312L50.7458 72.5287H50.5715C50.4175 71.8804 50.0696 71.2945 49.5741 70.849C49.1299 70.5055 48.5812 70.3251 48.0198 70.3381C47.509 70.3236 47.007 70.4725 46.5866 70.763C46.1662 71.0536 45.8495 71.4706 45.6824 71.9535C45.4286 72.6233 45.309 73.3364 45.3305 74.0523C45.3159 74.6673 45.4284 75.2787 45.661 75.8482C45.8636 76.3323 46.2137 76.7402 46.6614 77.0139C47.1227 77.2912 47.6531 77.4323 48.1912 77.4208C48.6477 77.4334 49.0998 77.328 49.5037 77.1149C50.0026 76.7845 50.4277 76.3542 50.752 75.8513L50.9264 75.9614C50.6146 76.5655 50.1532 77.0795 49.5863 77.4545C49.0372 77.7804 48.4073 77.9448 47.7689 77.9287C47.2007 77.9556 46.6346 77.8411 46.1215 77.5955C45.6084 77.3499 45.1642 76.9808 44.8288 76.5213C44.3063 75.8068 44.0332 74.9403 44.0517 74.0554C44.0444 73.3228 44.2212 72.6001 44.5656 71.9535C44.8871 71.3362 45.3759 70.822 45.9761 70.4696C46.5704 70.1206 47.248 69.9387 47.9372 69.9434C48.5064 69.9474 49.0664 70.0869 49.571 70.3503C49.6734 70.4142 49.788 70.4559 49.9075 70.4727C49.9568 70.4734 50.0057 70.4644 50.0514 70.446C50.0971 70.4276 50.1387 70.4003 50.1737 70.3656C50.2786 70.2453 50.3503 70.0998 50.3818 69.9434L50.5715 69.9312Z" fill="#0E564D"/>
<path d="M61.533 69.9312L61.7318 72.342H61.533C61.3876 71.8344 61.1233 71.3687 60.762 70.9836C60.5286 70.7633 60.2536 70.5916 59.9531 70.4787C59.6527 70.3657 59.3327 70.3138 59.0119 70.3258C58.5734 70.3055 58.1372 70.4015 57.7476 70.604C57.3581 70.8066 57.029 71.1085 56.7938 71.4793C56.3566 72.1733 56.1351 72.9815 56.1574 73.8014C56.1486 74.4885 56.2928 75.1688 56.5796 75.7932C56.8089 76.3325 57.1934 76.7915 57.6841 77.1118C58.1039 77.3827 58.5919 77.5291 59.0915 77.534C59.3663 77.5343 59.6399 77.4983 59.9053 77.427C60.1706 77.3559 60.4264 77.2532 60.6671 77.121V74.912C60.6851 74.6588 60.655 74.4045 60.5784 74.1625C60.522 74.0439 60.4271 73.9479 60.3092 73.8902C60.1027 73.8151 59.8828 73.7838 59.6636 73.7984V73.5842H62.616V73.7984H62.4753C62.3547 73.785 62.2328 73.8068 62.1242 73.8611C62.0157 73.9154 61.9251 73.9998 61.8634 74.1043C61.7702 74.367 61.7327 74.6463 61.7533 74.9243V77.2617C61.3493 77.4834 60.9199 77.655 60.4744 77.7727C60.0163 77.8873 59.5453 77.9428 59.0731 77.9379C57.5984 77.9379 56.4766 77.4647 55.7077 76.5183C55.1415 75.8293 54.8369 74.9624 54.8479 74.0707C54.8476 73.3962 55.0136 72.732 55.3313 72.1371C55.686 71.4362 56.2324 70.8505 56.907 70.4482C57.5124 70.1113 58.1969 69.9423 58.8896 69.9587C59.143 69.9575 59.396 69.98 59.6453 70.026C59.9744 70.1048 60.2975 70.2071 60.6121 70.3319C60.7465 70.3914 60.8886 70.4315 61.0343 70.4513C61.0707 70.4505 61.1065 70.4409 61.1384 70.4233C61.1704 70.4057 61.1976 70.3807 61.2178 70.3503C61.2814 70.2319 61.313 70.0991 61.3096 69.9648L61.533 69.9312Z" fill="#0E564D"/>
<path d="M66.4679 77.5342V77.7422H63.1973V77.5342H63.4665C63.5951 77.5457 63.7246 77.5265 63.8443 77.4781C63.964 77.4297 64.0705 77.3535 64.1549 77.2558C64.2737 76.9836 64.32 76.6853 64.2895 76.3899V71.458C64.3044 71.2008 64.2796 70.9428 64.2161 70.6931C64.1698 70.5885 64.0887 70.5031 63.9866 70.4514C63.828 70.3615 63.6488 70.3141 63.4665 70.3138H63.1973V70.1057H66.4679V70.3138H66.1925C66.0649 70.3032 65.9366 70.3229 65.8181 70.3713C65.6995 70.4197 65.5941 70.4954 65.5103 70.5922C65.3869 70.8631 65.3383 71.162 65.3695 71.458V76.3899C65.3544 76.6472 65.3792 76.9052 65.443 77.1548C65.4911 77.2613 65.5757 77.347 65.6816 77.3965C65.8366 77.487 66.013 77.5345 66.1925 77.5342H66.4679Z" fill="#0E564D"/>
<path d="M72.1527 75.1904H69.1972L68.6801 76.3959C68.5757 76.6035 68.5103 76.8285 68.4874 77.0598C68.4888 77.1202 68.5045 77.1794 68.5332 77.2326C68.5619 77.2858 68.6028 77.3314 68.6526 77.3657C68.8733 77.4846 69.1209 77.5447 69.3716 77.5401V77.7482H66.9668V77.5401C67.186 77.5191 67.3964 77.4433 67.5787 77.3198C67.8571 76.9964 68.0729 76.6239 68.2151 76.2215L70.9013 69.9372H71.1002L73.7558 76.2888C73.8823 76.6559 74.081 76.994 74.3402 77.2831C74.547 77.4484 74.8036 77.5389 75.0684 77.5401V77.7482H72.0578V77.5401C72.2722 77.5481 72.4844 77.4951 72.6697 77.3871C72.7178 77.3517 72.7572 77.3057 72.7848 77.2526C72.8123 77.1996 72.8274 77.1409 72.8288 77.0812C72.8008 76.809 72.7252 76.5439 72.6055 76.298L72.1527 75.1904ZM71.9936 74.7743L70.6994 71.6903L69.3716 74.7743H71.9936ZM72.275 67.6304L70.6168 69.5732H70.424L71.0145 67.6304H72.275Z" fill="#0E564D"/>
<path d="M79.5478 69.9311C80.0323 69.9284 80.5119 70.0276 80.9557 70.222C81.3995 70.4165 81.7975 70.702 82.1239 71.0601C82.4842 71.4333 82.7662 71.8749 82.9533 72.3589C83.1404 72.8428 83.2287 73.3593 83.2131 73.8779C83.2306 74.4081 83.1425 74.9364 82.9539 75.4322C82.7653 75.9281 82.4801 76.3815 82.1147 76.766C81.774 77.1262 81.364 77.4136 80.9092 77.611C80.4544 77.8084 79.9644 77.9116 79.4686 77.9145C78.9729 77.9173 78.4817 77.8198 78.0247 77.6276C77.5677 77.4355 77.1543 77.1528 76.8095 76.7966C76.448 76.4079 76.167 75.9515 75.9827 75.4537C75.7984 74.956 75.7144 74.4266 75.7356 73.8962C75.7169 73.3416 75.8179 72.7894 76.0318 72.2773C76.2456 71.7652 76.5672 71.3052 76.9747 70.9285C77.6701 70.2741 78.593 69.9163 79.5478 69.9311V69.9311ZM79.4407 70.3441C79.1266 70.3334 78.8143 70.3964 78.529 70.5282C78.2437 70.6599 77.9932 70.8568 77.7977 71.1029C77.2837 71.7332 77.0267 72.6561 77.0267 73.8718C77.0267 75.12 77.2929 76.0797 77.8253 76.7508C78.016 76.9972 78.2623 77.195 78.5442 77.328C78.826 77.4609 79.1353 77.5252 79.4468 77.5156C79.7876 77.5219 80.1252 77.4495 80.4335 77.3041C80.7418 77.1587 81.0124 76.9442 81.2244 76.6773C81.6894 76.1174 81.925 75.2363 81.925 74.0309C81.925 72.7234 81.668 71.7495 81.154 71.109C80.9485 70.8569 80.6867 70.6563 80.3897 70.5235C80.0927 70.3907 79.7688 70.3293 79.4438 70.3441H79.4407Z" fill="#0E564D"/>
<path d="M86.9902 77.7422V77.5341H87.2778C87.4093 77.5475 87.5419 77.5263 87.6627 77.4726C87.7834 77.4189 87.888 77.3347 87.9662 77.2282C88.0721 76.9643 88.114 76.6791 88.0886 76.396V71.4579C88.1244 71.1503 88.0702 70.8389 87.9326 70.5615C87.8475 70.4758 87.745 70.4093 87.6321 70.3665C87.5191 70.3238 87.3983 70.3058 87.2778 70.3137H86.9902V70.1056H90.0987C90.9836 70.0648 91.8679 70.1968 92.7023 70.4942C93.3073 70.7617 93.8103 71.2164 94.1372 71.7914C94.5086 72.4253 94.6971 73.1496 94.6818 73.8841C94.7117 74.8638 94.3645 75.8176 93.712 76.549C92.9899 77.3444 91.8865 77.7422 90.4016 77.7422H86.9902ZM89.1686 77.1884C89.5615 77.2842 89.9636 77.3375 90.3679 77.3475C90.774 77.358 91.1777 77.2816 91.5518 77.1233C91.926 76.965 92.2619 76.7285 92.5371 76.4296C93.1378 75.7447 93.4464 74.8519 93.3968 73.9423C93.3968 72.8867 93.1123 72.0545 92.5371 71.4457C92.2543 71.145 91.9109 70.9077 91.5296 70.7494C91.1483 70.5912 90.7377 70.5157 90.3251 70.5278C89.9343 70.5349 89.5458 70.5904 89.1686 70.6931V77.1884Z" fill="#0E564D"/>
<path d="M100.75 70.3138V70.1057H103.452V70.3138H103.164C103.026 70.3095 102.888 70.3425 102.767 70.4092C102.645 70.4759 102.544 70.574 102.473 70.6931C102.368 70.9497 102.327 71.228 102.354 71.5039V74.6001C102.377 75.2021 102.301 75.8038 102.127 76.3808C101.954 76.8303 101.639 77.2115 101.231 77.4669C100.685 77.7974 100.053 77.9562 99.4164 77.9228C98.7554 77.9648 98.0963 77.8139 97.5195 77.4883C97.0935 77.2114 96.7709 76.8017 96.6017 76.3226C96.4485 75.7079 96.3876 75.0737 96.4212 74.441V71.458C96.4569 71.1389 96.3882 70.8169 96.2253 70.5402C96.1429 70.4604 96.0441 70.3994 95.9359 70.3614C95.8276 70.3233 95.7124 70.3092 95.5981 70.3199H95.3105V70.1118H98.6118V70.3199H98.3058C98.1763 70.3087 98.0462 70.331 97.9278 70.3845C97.8094 70.4381 97.7067 70.5212 97.6297 70.6258C97.5094 70.89 97.4608 71.1813 97.4889 71.4703V74.799C97.4925 75.1401 97.5201 75.4806 97.5715 75.8178C97.6058 76.1347 97.7103 76.4399 97.8775 76.7112C98.0328 76.937 98.2435 77.1193 98.4894 77.2405C98.7969 77.3892 99.1362 77.4606 99.4776 77.4485C99.9447 77.4568 100.406 77.3451 100.818 77.1242C101.174 76.9445 101.459 76.6489 101.625 76.2859C101.801 75.7285 101.875 75.1439 101.843 74.5604V71.458C101.878 71.1501 101.823 70.8385 101.684 70.5616C101.599 70.4759 101.497 70.4095 101.385 70.3667C101.272 70.3239 101.152 70.3059 101.032 70.3138H100.75ZM99.2879 78.4184C99.4502 78.4184 99.6058 78.4829 99.7206 78.5976C99.8353 78.7124 99.8998 78.868 99.8998 79.0303C99.8934 79.1275 99.864 79.2218 99.8138 79.3053C99.7637 79.3889 99.6943 79.4592 99.6114 79.5105C99.5286 79.5618 99.4347 79.5926 99.3376 79.6003C99.2405 79.608 99.1429 79.5924 99.0531 79.5548C98.9632 79.5172 98.8836 79.4587 98.8209 79.3841C98.7582 79.3096 98.7142 79.2211 98.6926 79.1261C98.671 79.0311 98.6723 78.9323 98.6966 78.838C98.7209 78.7436 98.7673 78.6564 98.832 78.5836C98.8928 78.5265 98.9645 78.4823 99.0429 78.4539C99.1213 78.4255 99.2047 78.4134 99.2879 78.4184V78.4184Z" fill="#0E564D"/>
<path d="M110.65 69.9312L110.824 72.5287H110.65C110.497 71.8808 110.15 71.2949 109.655 70.849C109.211 70.5055 108.663 70.3251 108.101 70.3381C107.616 70.3316 107.139 70.4655 106.728 70.7236C106.285 71.0206 105.947 71.4485 105.761 71.9474C105.507 72.6171 105.387 73.3303 105.409 74.0462C105.394 74.6615 105.507 75.2733 105.742 75.8421C105.938 76.3324 106.285 76.7473 106.734 77.0262C107.195 77.303 107.725 77.444 108.263 77.4331C108.72 77.4456 109.172 77.3403 109.576 77.1271C110.076 76.7978 110.501 76.3673 110.824 75.8635L110.999 75.9737C110.687 76.5777 110.225 77.0917 109.659 77.4667C109.11 77.793 108.48 77.9574 107.841 77.9409C107.273 77.9673 106.707 77.8526 106.194 77.607C105.681 77.3614 105.237 76.9927 104.901 76.5336C104.379 75.8191 104.106 74.9526 104.124 74.0676C104.117 73.335 104.293 72.6123 104.638 71.9657C104.959 71.3485 105.448 70.8342 106.048 70.4819C106.643 70.1332 107.32 69.9514 108.009 69.9556C108.579 69.9593 109.139 70.0988 109.643 70.3625C109.746 70.4264 109.86 70.4681 109.98 70.4849C110.029 70.4857 110.078 70.4766 110.124 70.4582C110.169 70.4398 110.211 70.4125 110.246 70.3778C110.352 70.2585 110.424 70.1126 110.454 69.9556L110.65 69.9312Z" fill="#0E564D"/>
<path d="M119.608 77.8246C119.912 78.3951 120.336 78.893 120.851 79.284C121.302 79.5993 121.831 79.7846 122.38 79.8194V79.9999C121.815 79.9735 121.256 79.8705 120.719 79.6939C120.128 79.5062 119.565 79.2418 119.042 78.9076C118.551 78.5989 118.093 78.2389 117.678 77.8338C117.22 77.6621 116.788 77.4295 116.393 77.1423C115.94 76.7821 115.575 76.3226 115.328 75.7992C115.055 75.2058 114.92 74.5583 114.933 73.9053C114.917 73.3815 115.007 72.8597 115.198 72.3714C115.388 71.883 115.675 71.438 116.041 71.0631C116.386 70.6989 116.803 70.4103 117.265 70.2154C117.728 70.0206 118.226 69.9238 118.727 69.931C119.215 69.9285 119.697 70.0283 120.143 70.2238C120.59 70.4193 120.99 70.7063 121.319 71.0661C121.683 71.4464 121.967 71.8956 122.156 72.3874C122.344 72.8791 122.431 73.4036 122.414 73.9298C122.428 74.8089 122.154 75.6684 121.634 76.3774C121.139 77.072 120.426 77.5813 119.608 77.8246V77.8246ZM118.663 70.3655C118.351 70.3545 118.04 70.4145 117.754 70.5412C117.469 70.6679 117.215 70.8578 117.014 71.0967C116.488 71.7086 116.225 72.6448 116.225 73.9053C116.225 75.1659 116.491 76.1174 117.023 76.7599C117.216 77.0093 117.465 77.2095 117.75 77.344C118.035 77.4786 118.348 77.5436 118.663 77.5339C118.987 77.5446 119.31 77.4803 119.606 77.3461C119.901 77.2118 120.162 77.0112 120.367 76.7599C120.875 76.148 121.129 75.2515 121.129 74.0706C121.151 73.2821 121.009 72.4976 120.713 71.7668C120.539 71.3366 120.242 70.9673 119.859 70.7051C119.502 70.4782 119.086 70.3602 118.663 70.3655V70.3655Z" fill="#0E564D"/>
<path d="M128.484 70.3138V70.1057H131.188V70.3138H130.901C130.762 70.3096 130.624 70.3426 130.502 70.4093C130.38 70.476 130.278 70.5739 130.206 70.6931C130.104 70.9505 130.064 71.2283 130.09 71.5039V74.6001C130.113 75.2023 130.035 75.804 129.86 76.3808C129.688 76.8301 129.375 77.2113 128.967 77.4669C128.42 77.7971 127.787 77.9559 127.15 77.9227C126.489 77.9641 125.83 77.8132 125.253 77.4883C124.828 77.2097 124.506 76.8005 124.335 76.3226C124.183 75.7076 124.123 75.0737 124.154 74.441V71.458C124.189 71.1394 124.122 70.8179 123.962 70.5402C123.879 70.4605 123.779 70.3996 123.67 70.3616C123.562 70.3236 123.446 70.3093 123.331 70.3199H123.047V70.1118H126.345V70.3199H126.039C125.91 70.3086 125.78 70.3309 125.662 70.3845C125.544 70.4381 125.442 70.5212 125.366 70.6258C125.246 70.89 125.197 71.1813 125.225 71.4702V74.799C125.228 75.14 125.254 75.4805 125.305 75.8178C125.339 76.1346 125.444 76.4399 125.611 76.7112C125.767 76.9367 125.977 77.1188 126.223 77.2405C126.53 77.3885 126.87 77.4599 127.211 77.4485C127.678 77.4568 128.139 77.3451 128.551 77.1242C128.908 76.9445 129.192 76.6489 129.359 76.2859C129.534 75.7285 129.608 75.1439 129.576 74.5603V71.458C129.612 71.1504 129.558 70.839 129.42 70.5616C129.335 70.4755 129.233 70.4088 129.12 70.3661C129.007 70.3233 128.886 70.3054 128.765 70.3138H128.484Z" fill="#0E564D"/>
<path d="M135.655 69.931C136.14 69.9288 136.619 70.0281 137.063 70.2225C137.507 70.417 137.905 70.7023 138.231 71.06C138.591 71.4337 138.873 71.8754 139.06 72.3592C139.247 72.843 139.335 73.3593 139.32 73.8778C139.337 74.4079 139.249 74.9361 139.06 75.4318C138.872 75.9276 138.587 76.381 138.222 76.766C137.881 77.1261 137.471 77.4136 137.017 77.611C136.562 77.8083 136.072 77.9116 135.576 77.9144C135.08 77.9173 134.589 77.8197 134.132 77.6276C133.675 77.4355 133.262 77.1528 132.917 76.7966C132.555 76.4079 132.274 75.9515 132.09 75.4537C131.906 74.9559 131.822 74.4266 131.843 73.8962C131.824 73.3415 131.925 72.7894 132.139 72.2773C132.353 71.7652 132.675 71.3051 133.082 70.9285C133.776 70.2724 134.7 69.9143 135.655 69.931V69.931ZM135.548 70.3441C135.234 70.3333 134.922 70.3963 134.636 70.5281C134.351 70.6599 134.101 70.8567 133.905 71.1028C133.389 71.7331 133.131 72.6561 133.131 73.8717C133.131 75.12 133.398 76.0796 133.933 76.7507C134.123 76.9973 134.37 77.1953 134.651 77.3283C134.933 77.4612 135.243 77.5254 135.554 77.5156C135.895 77.522 136.232 77.4497 136.54 77.3043C136.848 77.1589 137.118 76.9443 137.329 76.6773C137.798 76.1163 138.032 75.2342 138.032 74.0308C138.032 72.7234 137.774 71.7494 137.258 71.109C137.053 70.8564 136.791 70.6556 136.494 70.5228C136.197 70.3899 135.873 70.3287 135.548 70.3441V70.3441ZM135.172 68.5237H136.105L137.069 69.3406H136.91L135.615 68.9061L134.364 69.3406H134.208L135.172 68.5237ZM135.53 68.3095H135.334L135.615 67.4651H136.87L135.53 68.3095Z" fill="#0E564D"/>
<path d="M146.836 69.9312L147.01 72.5287H146.836C146.682 71.8804 146.334 71.2945 145.839 70.849C145.394 70.5055 144.846 70.3251 144.284 70.3381C143.773 70.3244 143.271 70.4736 142.851 70.7639C142.43 71.0543 142.112 71.4709 141.944 71.9535C141.691 72.6236 141.572 73.3365 141.592 74.0523C141.578 74.6675 141.692 75.2789 141.925 75.8482C142.127 76.3328 142.478 76.741 142.926 77.0139C143.387 77.2914 143.918 77.4325 144.456 77.4208C144.912 77.4334 145.364 77.328 145.768 77.1149C146.268 76.7848 146.694 76.3545 147.02 75.8513L147.194 75.9614C146.882 76.5655 146.421 77.0795 145.854 77.4545C145.304 77.7808 144.673 77.9452 144.033 77.9287C143.466 77.9551 142.9 77.8404 142.388 77.5948C141.875 77.3492 141.431 76.9804 141.096 76.5213C140.574 75.8068 140.301 74.9403 140.319 74.0554C140.312 73.3232 140.488 72.6009 140.83 71.9535C141.154 71.3376 141.642 70.8238 142.241 70.4696C142.836 70.1209 143.515 69.9391 144.205 69.9434C144.773 69.9471 145.332 70.0866 145.836 70.3503C145.939 70.4139 146.055 70.4555 146.175 70.4727C146.224 70.4737 146.273 70.4648 146.318 70.4464C146.363 70.4279 146.404 70.4005 146.438 70.3656C146.546 70.2471 146.618 70.1008 146.646 69.9434L146.836 69.9312Z" fill="#0E564D"/>
<path d="M157.182 70.1057L157.268 71.8955H157.054C157.033 71.6637 156.977 71.4366 156.885 71.2224C156.782 71.0186 156.62 70.8502 156.42 70.739C156.181 70.6279 155.919 70.5755 155.656 70.5861H154.582V76.4144C154.546 76.7158 154.599 77.021 154.735 77.2925C154.821 77.3775 154.924 77.4428 155.037 77.484C155.151 77.5252 155.272 77.5413 155.392 77.5311H155.656V77.7392H152.419V77.5311H152.691C152.822 77.5424 152.953 77.5203 153.073 77.4668C153.193 77.4132 153.297 77.3301 153.376 77.2252C153.485 76.9654 153.529 76.6827 153.502 76.4022V70.6014H152.584C152.328 70.5892 152.071 70.6149 151.822 70.6778C151.617 70.7611 151.441 70.9052 151.32 71.0909C151.169 71.3384 151.083 71.6207 151.072 71.9108H150.861L150.95 70.121L157.182 70.1057Z" fill="#0E564D"/>
<path d="M160.092 70.5215V73.5413H161.769C162.075 73.575 162.383 73.505 162.644 73.3424C162.756 73.2184 162.842 73.0734 162.898 72.9159C162.953 72.7584 162.977 72.5914 162.968 72.4246H163.176V75.0833H162.968C162.946 74.8391 162.894 74.5986 162.812 74.3673C162.738 74.2313 162.621 74.1237 162.479 74.0614C162.253 73.9742 162.011 73.9356 161.769 73.9482H160.092V76.4662C160.08 76.6713 160.095 76.8771 160.138 77.0781C160.168 77.1526 160.223 77.2142 160.294 77.2524C160.429 77.3088 160.576 77.3319 160.722 77.3198H162.017C162.333 77.3324 162.65 77.3015 162.959 77.228C163.173 77.157 163.366 77.0352 163.522 76.8731C163.809 76.5588 164.05 76.2043 164.235 75.8206H164.461L163.803 77.7359H157.92V77.5278H158.189C158.368 77.5289 158.544 77.4835 158.7 77.3962C158.757 77.3704 158.808 77.3332 158.85 77.2869C158.892 77.2406 158.925 77.1862 158.945 77.127C159.002 76.8856 159.025 76.6374 159.012 76.3897V71.4363C159.012 70.9499 158.963 70.6531 158.865 70.5399C158.775 70.4568 158.668 70.3937 158.551 70.3547C158.435 70.3157 158.311 70.3016 158.189 70.3135H157.92V70.1054H163.803L163.886 71.779H163.666C163.625 71.4902 163.537 71.2101 163.406 70.9499C163.3 70.7909 163.147 70.669 162.968 70.6011C162.709 70.5315 162.441 70.5026 162.173 70.5154L160.092 70.5215ZM161.059 68.5237H161.995L162.959 69.3406H162.8L161.506 68.9061L160.254 69.3406H160.104L161.059 68.5237ZM161.42 68.3095H161.224L161.506 67.4651H162.76L161.42 68.3095Z" fill="#0E564D"/>
<path d="M173.147 69.9312V72.5716H172.939C172.898 72.1492 172.775 71.7388 172.578 71.3631C172.4 71.0604 172.141 70.8127 171.831 70.6471C171.525 70.4743 171.18 70.3827 170.828 70.381C170.471 70.3702 170.125 70.4986 169.861 70.7389C169.743 70.8393 169.647 70.9639 169.581 71.1043C169.515 71.2447 169.48 71.3976 169.479 71.5528C169.479 71.7873 169.565 72.0138 169.72 72.1891C169.953 72.4706 170.507 72.8459 171.382 73.315C171.889 73.5727 172.377 73.8672 172.841 74.1962C173.096 74.3896 173.305 74.6373 173.453 74.9213C173.592 75.191 173.664 75.4899 173.664 75.7932C173.666 76.0763 173.606 76.3563 173.49 76.6144C173.374 76.8725 173.204 77.1027 172.991 77.2893C172.517 77.7159 171.896 77.9409 171.259 77.9165C171.054 77.9163 170.85 77.8989 170.647 77.8645C170.403 77.8115 170.161 77.743 169.925 77.6595C169.7 77.5743 169.466 77.5148 169.228 77.4821C169.187 77.4797 169.146 77.4862 169.108 77.501C169.07 77.5157 169.036 77.5385 169.008 77.5678C168.935 77.6702 168.892 77.7911 168.885 77.9165H168.677V75.2976H168.885C168.944 75.7254 169.078 76.1396 169.28 76.5214C169.465 76.8125 169.726 77.0474 170.035 77.2006C170.381 77.382 170.765 77.4745 171.155 77.4699C171.559 77.4924 171.956 77.36 172.266 77.0996C172.393 76.9916 172.496 76.8571 172.566 76.7055C172.636 76.5538 172.673 76.3887 172.673 76.2216C172.671 76.0219 172.619 75.826 172.52 75.6525C172.4 75.4417 172.236 75.2591 172.039 75.1171C171.893 75.0049 171.493 74.7652 170.84 74.3981C170.355 74.1406 169.888 73.8482 169.445 73.5231C169.189 73.3285 168.976 73.0838 168.818 72.8041C168.674 72.5374 168.6 72.2383 168.604 71.9352C168.602 71.6679 168.658 71.4034 168.767 71.1592C168.875 70.915 169.035 70.6967 169.234 70.5186C169.67 70.1167 170.247 69.9034 170.84 69.9251C171.286 69.9367 171.725 70.0409 172.128 70.231C172.266 70.3041 172.417 70.3517 172.572 70.3718C172.661 70.3744 172.747 70.3427 172.814 70.2831C172.894 70.1818 172.945 70.0599 172.96 69.9312H173.147Z" fill="#0E564D"/>
<path d="M179.119 77.7419L176.169 71.3169V76.4141C176.133 76.7151 176.185 77.0201 176.319 77.2922C176.406 77.3774 176.509 77.4429 176.624 77.4841C176.738 77.5253 176.859 77.5412 176.98 77.5308H177.249V77.7389H174.594V77.5308H174.866C174.997 77.5421 175.128 77.52 175.248 77.4664C175.368 77.4129 175.472 77.3298 175.551 77.2249C175.661 76.9651 175.704 76.6823 175.677 76.4018V71.4149C175.693 71.1658 175.654 70.9162 175.564 70.6836C175.5 70.5619 175.398 70.4649 175.273 70.4083C175.058 70.3213 174.826 70.2836 174.594 70.2981V70.0901H176.757L179.529 76.0653L182.252 70.0901H184.415V70.2981H184.149C184.017 70.2863 183.884 70.3082 183.763 70.3617C183.642 70.4153 183.537 70.4987 183.457 70.6041C183.349 70.8642 183.307 71.1469 183.335 71.4271V76.4141C183.335 76.8853 183.387 77.1759 183.491 77.2922C183.576 77.3777 183.68 77.4433 183.793 77.4846C183.907 77.5258 184.028 77.5416 184.149 77.5308H184.415V77.7389H181.172V77.5308H181.441C181.572 77.5432 181.705 77.5216 181.825 77.468C181.946 77.4145 182.051 77.3307 182.129 77.2249C182.232 76.9677 182.271 76.6895 182.243 76.4141V71.3169L179.299 77.7419H179.119Z" fill="#0E564D"/>
<path d="M190.057 75.1904H187.101L186.584 76.3959C186.48 76.6035 186.415 76.8285 186.392 77.0598C186.393 77.1202 186.409 77.1794 186.437 77.2326C186.466 77.2858 186.507 77.3314 186.557 77.3657C186.778 77.4847 187.025 77.5447 187.276 77.5401V77.7482H184.871V77.5401C185.09 77.5178 185.3 77.4422 185.483 77.3198C185.759 76.9953 185.974 76.6231 186.116 76.2215L188.803 69.9373H189.001L191.657 76.2888C191.783 76.6559 191.982 76.9941 192.241 77.2831C192.448 77.4484 192.705 77.539 192.97 77.5401V77.7482H189.959V77.5401C190.173 77.5481 190.386 77.4951 190.571 77.3872C190.619 77.3517 190.658 77.3057 190.686 77.2526C190.714 77.1996 190.729 77.141 190.73 77.0812C190.702 76.8091 190.626 76.5439 190.507 76.298L190.057 75.1904ZM189.898 74.7743L188.604 71.6904L187.276 74.7743H189.898Z" fill="#0E564D"/>
<path d="M201.028 77.7421H198.991L196.405 74.1716C196.213 74.1716 196.057 74.1716 195.937 74.1716H195.781H195.607V76.3898C195.607 76.8701 195.659 77.1699 195.763 77.2862C195.845 77.3725 195.945 77.4395 196.056 77.4823C196.167 77.5252 196.287 77.5428 196.405 77.534H196.711V77.7421H193.432V77.534H193.719C193.851 77.547 193.984 77.5257 194.105 77.4721C194.226 77.4184 194.332 77.3344 194.411 77.2281C194.516 76.9652 194.557 76.6809 194.53 76.399V71.4579C194.53 70.9775 194.478 70.6807 194.374 70.5614C194.289 70.4754 194.187 70.4087 194.074 70.3659C193.961 70.3231 193.84 70.3053 193.719 70.3136H193.432V70.1056H196.213C196.816 70.0835 197.419 70.1432 198.006 70.283C198.39 70.4009 198.731 70.6285 198.988 70.9377C199.255 71.2547 199.397 71.6583 199.388 72.0728C199.396 72.5241 199.232 72.9614 198.93 73.2966C198.546 73.6844 198.049 73.9404 197.51 74.0278L199.086 76.2184C199.332 76.6029 199.642 76.9423 200.003 77.222C200.315 77.3994 200.662 77.5041 201.019 77.5279L201.028 77.7421ZM195.607 73.8167H195.913C196.5 73.8591 197.084 73.691 197.559 73.3425C197.739 73.1972 197.884 73.0124 197.982 72.8023C198.079 72.5922 198.127 72.3625 198.122 72.1309C198.13 71.917 198.094 71.7037 198.018 71.5039C197.941 71.3041 197.824 71.1219 197.675 70.9683C197.518 70.8175 197.331 70.7001 197.127 70.6234C196.923 70.5466 196.706 70.512 196.488 70.5216C196.192 70.5313 195.897 70.5671 195.607 70.6287V73.8167Z" fill="#0E564D"/>
<path d="M207.025 70.1057L207.11 71.8955H206.896C206.876 71.6637 206.819 71.4366 206.728 71.2224C206.624 71.0186 206.463 70.8502 206.263 70.739C206.022 70.6321 205.758 70.5849 205.495 70.6014H204.418V76.4144C204.382 76.7158 204.435 77.021 204.571 77.2925C204.657 77.3771 204.76 77.4423 204.874 77.4834C204.987 77.5246 205.108 77.5409 205.229 77.5311H205.495V77.7392H202.27V77.5311H202.539C202.67 77.5424 202.802 77.5203 202.922 77.4668C203.042 77.4132 203.146 77.3301 203.225 77.2252C203.333 76.9694 203.377 76.6911 203.353 76.4144V70.6014H202.435C202.179 70.5892 201.922 70.6149 201.674 70.6778C201.468 70.7604 201.294 70.9048 201.175 71.0909C201.02 71.3371 200.935 71.6203 200.927 71.9108H200.713L200.802 70.121L207.025 70.1057Z" fill="#0E564D"/>
<path d="M212.739 70.5218V73.5415H214.418C214.72 73.5773 215.024 73.5117 215.284 73.3549C215.397 73.2311 215.483 73.0863 215.54 72.9287C215.596 72.7712 215.62 72.6041 215.612 72.4371H215.82V75.0958H215.612C215.589 74.8513 215.536 74.6108 215.452 74.3798C215.378 74.2447 215.262 74.1373 215.122 74.0739C214.896 73.987 214.654 73.9485 214.412 73.9607H212.733V76.4787C212.72 76.6838 212.736 76.8896 212.778 77.0906C212.81 77.1653 212.866 77.2269 212.938 77.265C213.072 77.3215 213.218 77.3446 213.363 77.3323H214.672C214.988 77.3449 215.304 77.3141 215.612 77.2405C215.825 77.1702 216.019 77.0483 216.174 76.8856C216.463 76.5715 216.704 76.217 216.89 75.8331H217.12L216.462 77.7484H210.566V77.5403H210.836C211.015 77.5411 211.192 77.4958 211.35 77.4088C211.406 77.3823 211.457 77.3449 211.499 77.2987C211.541 77.2525 211.573 77.1984 211.594 77.1395C211.65 76.8979 211.672 76.6497 211.659 76.4022V71.4366C211.659 70.9501 211.61 70.6534 211.512 70.5402C211.421 70.4571 211.314 70.394 211.198 70.355C211.081 70.316 210.958 70.3019 210.836 70.3138H210.566V70.1057H216.45L216.536 71.7793H216.315C216.274 71.4902 216.185 71.2101 216.052 70.9501C215.95 70.7942 215.801 70.6743 215.627 70.6075C215.369 70.5378 215.101 70.5089 214.834 70.5218H212.739Z" fill="#0E564D"/>
<path d="M217.699 77.7422V77.5341H217.987C218.118 77.5472 218.25 77.5259 218.37 77.4722C218.49 77.4186 218.594 77.3344 218.672 77.2282C218.781 76.9651 218.824 76.6795 218.798 76.396V71.4579C218.798 70.9806 218.746 70.6839 218.638 70.5615C218.554 70.4758 218.452 70.4094 218.34 70.3666C218.227 70.3239 218.107 70.3058 217.987 70.3137H217.699V70.1056H220.808C221.693 70.0648 222.577 70.1968 223.411 70.4942C224.016 70.7624 224.519 71.217 224.846 71.7914C225.218 72.4253 225.406 73.1496 225.391 73.8841C225.421 74.8638 225.074 75.8176 224.421 76.549C223.699 77.3444 222.595 77.7422 221.111 77.7422H217.699ZM219.878 77.1884C220.271 77.2842 220.673 77.3375 221.077 77.3475C221.483 77.358 221.887 77.2816 222.261 77.1233C222.635 76.965 222.971 76.7285 223.246 76.4296C223.803 75.7184 224.106 74.8411 224.106 73.9377C224.106 73.0343 223.803 72.1569 223.246 71.4457C222.963 71.1446 222.619 70.907 222.237 70.7488C221.855 70.5906 221.444 70.5153 221.031 70.5278C220.641 70.5352 220.254 70.5907 219.878 70.6931V77.1884Z" fill="#0E564D"/>
<path d="M231.457 70.3138V70.1057H234.159V70.3138H233.871C233.733 70.3092 233.595 70.342 233.474 70.4088C233.352 70.4755 233.251 70.5737 233.18 70.6931C233.075 70.9497 233.034 71.228 233.061 71.5039V74.6001C233.083 75.202 233.006 75.8035 232.834 76.3808C232.66 76.8298 232.346 77.2107 231.938 77.4669C231.392 77.7974 230.76 77.9562 230.123 77.9227C229.461 77.9644 228.802 77.8135 228.223 77.4883C227.799 77.2097 227.477 76.8005 227.306 76.3226C227.154 75.7076 227.093 75.0737 227.125 74.441V71.458C227.16 71.1394 227.092 70.8179 226.932 70.5402C226.85 70.4604 226.751 70.3994 226.643 70.3614C226.535 70.3233 226.419 70.3092 226.305 70.3199H226.018V70.1118H229.316V70.3199H229.01C228.88 70.3087 228.75 70.331 228.632 70.3845C228.513 70.4381 228.411 70.5212 228.334 70.6258C228.213 70.89 228.165 71.1813 228.193 71.4702V74.799C228.196 75.1401 228.224 75.4806 228.275 75.8178C228.309 76.1349 228.413 76.4403 228.581 76.7112C228.737 76.937 228.947 77.1193 229.193 77.2405C229.501 77.3892 229.84 77.4606 230.182 77.4485C230.649 77.4568 231.11 77.3451 231.522 77.1242C231.877 76.9428 232.161 76.6477 232.329 76.2859C232.504 75.7282 232.576 75.1437 232.543 74.5604V71.458C232.579 71.1504 232.525 70.839 232.387 70.5616C232.303 70.4759 232.201 70.4095 232.089 70.3667C231.976 70.3239 231.856 70.3059 231.736 70.3138H231.457Z" fill="#0E564D"/>
</svg>
