<svg width="31" height="31" viewBox="0 0 31 31" fill="none" xmlns="http://www.w3.org/2000/svg">
<circle cx="15.875" cy="15.8438" r="15" fill="#E1E5F1"/>
<path d="M22.1857 16.4277V16.0002V15.567L23.2657 14.622C23.4648 14.4466 23.5955 14.2064 23.6346 13.9439C23.6737 13.6814 23.6188 13.4136 23.4795 13.1877L22.152 10.9377C22.0534 10.7668 21.9115 10.6249 21.7407 10.5262C21.5699 10.4274 21.3762 10.3754 21.1789 10.3752C21.0566 10.3742 20.935 10.3932 20.8189 10.4314L19.452 10.8927C19.216 10.7358 18.9698 10.5949 18.7151 10.4708L18.4282 9.05329C18.3768 8.79432 18.2359 8.56169 18.0303 8.39613C17.8246 8.23056 17.5672 8.14261 17.3033 8.14767H14.6708C14.4068 8.14261 14.1494 8.23056 13.9437 8.39613C13.7381 8.56169 13.5972 8.79432 13.5458 9.05329L13.2589 10.4708C13.0023 10.5949 12.7543 10.7358 12.5164 10.8927L11.1776 10.4089C11.0602 10.3783 10.9387 10.3669 10.8176 10.3752C10.6203 10.3754 10.4266 10.4274 10.2558 10.5262C10.085 10.6249 9.94314 10.7668 9.8445 10.9377L8.517 13.1877C8.38571 13.4132 8.33692 13.6774 8.37899 13.935C8.42106 14.1926 8.55138 14.4275 8.74762 14.5995L9.81075 15.5727V16.4333L8.74762 17.3783C8.54584 17.5515 8.41196 17.7907 8.36974 18.0533C8.32752 18.3158 8.37969 18.5849 8.517 18.8127L9.8445 21.0627C9.94314 21.2335 10.085 21.3754 10.2558 21.4742C10.4266 21.5729 10.6203 21.625 10.8176 21.6252C10.9399 21.6261 11.0615 21.6071 11.1776 21.5689L12.5445 21.1077C12.7805 21.2645 13.0267 21.4054 13.2814 21.5295L13.5683 22.947C13.6197 23.206 13.7606 23.4386 13.9662 23.6042C14.1719 23.7698 14.4293 23.8577 14.6933 23.8527H17.3482C17.6122 23.8577 17.8696 23.7698 18.0753 23.6042C18.2809 23.4386 18.4218 23.206 18.4732 22.947L18.7601 21.5295C19.0167 21.4055 19.2647 21.2645 19.5026 21.1077L20.8639 21.5689C20.98 21.6071 21.1016 21.6261 21.2239 21.6252C21.4212 21.625 21.6149 21.5729 21.7857 21.4742C21.9565 21.3754 22.0984 21.2335 22.197 21.0627L23.4795 18.8127C23.6108 18.5871 23.6596 18.3229 23.6175 18.0654C23.5754 17.8078 23.4451 17.5728 23.2489 17.4008L22.1857 16.4277ZM21.1789 20.5002L19.2495 19.8477C18.7978 20.2302 18.2817 20.5293 17.7251 20.7308L17.3258 22.7502H14.6708L14.2714 20.7533C13.7192 20.5461 13.2058 20.2475 12.7526 19.8702L10.8176 20.5002L9.49012 18.2502L11.0201 16.9002C10.9161 16.3179 10.9161 15.7218 11.0201 15.1395L9.49012 13.7502L10.8176 11.5002L12.747 12.1527C13.1987 11.7701 13.7148 11.4711 14.2714 11.2695L14.6708 9.25017H17.3258L17.7251 11.247C18.2773 11.4543 18.7907 11.7528 19.2439 12.1302L21.1789 11.5002L22.5064 13.7502L20.9764 15.1002C21.0804 15.6824 21.0804 16.2785 20.9764 16.8608L22.5064 18.2502L21.1789 20.5002Z" fill="black"/>
<path d="M16 19.375C15.3325 19.375 14.68 19.1771 14.125 18.8062C13.5699 18.4354 13.1374 17.9083 12.8819 17.2916C12.6265 16.6749 12.5596 15.9963 12.6899 15.3416C12.8201 14.6869 13.1415 14.0855 13.6135 13.6135C14.0855 13.1415 14.6869 12.8201 15.3416 12.6899C15.9963 12.5596 16.6749 12.6265 17.2916 12.8819C17.9083 13.1374 18.4354 13.5699 18.8062 14.125C19.1771 14.68 19.375 15.3325 19.375 16C19.3795 16.4445 19.2953 16.8854 19.1273 17.2969C18.9593 17.7084 18.7108 18.0822 18.3965 18.3965C18.0822 18.7108 17.7084 18.9593 17.2969 19.1273C16.8854 19.2953 16.4445 19.3795 16 19.375V19.375ZM16 13.75C15.7026 13.7431 15.4069 13.7965 15.1308 13.9072C14.8547 14.0178 14.6039 14.1833 14.3936 14.3936C14.1833 14.6039 14.0178 14.8547 13.9072 15.1308C13.7965 15.4069 13.7431 15.7026 13.75 16C13.7431 16.2974 13.7965 16.5931 13.9072 16.8692C14.0178 17.1453 14.1833 17.3961 14.3936 17.6064C14.6039 17.8167 14.8547 17.9822 15.1308 18.0928C15.4069 18.2035 15.7026 18.2569 16 18.25C16.2974 18.2569 16.5931 18.2035 16.8692 18.0928C17.1453 17.9822 17.3961 17.8167 17.6064 17.6064C17.8167 17.3961 17.9822 17.1453 18.0928 16.8692C18.2035 16.5931 18.2569 16.2974 18.25 16C18.2569 15.7026 18.2035 15.4069 18.0928 15.1308C17.9822 14.8547 17.8167 14.6039 17.6064 14.3936C17.3961 14.1833 17.1453 14.0178 16.8692 13.9072C16.5931 13.7965 16.2974 13.7431 16 13.75Z" fill="black"/>
</svg>
