<svg width="23" height="24" viewBox="0 0 23 24" fill="none" xmlns="http://www.w3.org/2000/svg">
<path fill-rule="evenodd" clip-rule="evenodd" d="M0.976562 18.3903C0.976562 17.719 1.52073 17.1749 2.192 17.1749H21.6391C22.3103 17.1749 22.8545 17.719 22.8545 18.3903C22.8545 19.0616 22.3103 19.6057 21.6391 19.6057H2.192C1.52073 19.6057 0.976562 19.0616 0.976562 18.3903Z" fill="#676E86"/>
<path fill-rule="evenodd" clip-rule="evenodd" d="M8.04014 6.79415C7.30927 7.80924 7.05377 9.06385 7.05377 9.88222V18.3903H4.62288V9.88222C4.62288 8.67485 4.9751 6.89086 6.06739 5.37378C7.20431 3.79472 9.08851 2.58957 11.9155 2.58957C14.7425 2.58957 16.6267 3.79472 17.7637 5.37378C18.856 6.89086 19.2082 8.67485 19.2082 9.88222V18.3903H16.7773V9.88222C16.7773 9.06385 16.5218 7.80924 15.7909 6.79415C15.1047 5.84104 13.9503 5.02045 11.9155 5.02045C9.88078 5.02045 8.72638 5.84104 8.04014 6.79415Z" fill="#676E86"/>
<path d="M14.3464 2.58957C14.3464 3.93211 13.2581 5.02045 11.9155 5.02045C10.573 5.02045 9.48465 3.93211 9.48465 2.58957C9.48465 1.24703 10.573 0.158691 11.9155 0.158691C13.2581 0.158691 14.3464 1.24703 14.3464 2.58957Z" fill="#676E86"/>
<path d="M11.9155 23.2521C13.2581 23.2521 14.3464 22.1637 14.3464 20.8212H9.48465C9.48465 22.1637 10.573 23.2521 11.9155 23.2521Z" fill="#676E86"/>
</svg>
