<svg width="23" height="24" viewBox="0 0 23 24" fill="none" xmlns="http://www.w3.org/2000/svg">
<path fill-rule="evenodd" clip-rule="evenodd" d="M0.476562 18.797C0.476562 18.1258 1.02073 17.5816 1.692 17.5816H21.1391C21.8103 17.5816 22.3545 18.1258 22.3545 18.797C22.3545 19.4683 21.8103 20.0125 21.1391 20.0125H1.692C1.02073 20.0125 0.476562 19.4683 0.476562 18.797Z" fill="white"/>
<path fill-rule="evenodd" clip-rule="evenodd" d="M7.54014 7.20089C6.80927 8.21598 6.55377 9.47059 6.55377 10.289V18.797H4.12288V10.289C4.12288 9.08159 4.4751 7.29759 5.56739 5.78051C6.70431 4.20146 8.58851 2.99631 11.4155 2.99631C14.2425 2.99631 16.1267 4.20146 17.2637 5.78051C18.356 7.29759 18.7082 9.08159 18.7082 10.289V18.797H16.2773V10.289C16.2773 9.47059 16.0218 8.21598 15.2909 7.20089C14.6047 6.24778 13.4503 5.42719 11.4155 5.42719C9.38078 5.42719 8.22638 6.24778 7.54014 7.20089Z" fill="white"/>
<path d="M13.8464 2.99631C13.8464 4.33885 12.7581 5.42719 11.4155 5.42719C10.073 5.42719 8.98465 4.33885 8.98465 2.99631C8.98465 1.65377 10.073 0.56543 11.4155 0.56543C12.7581 0.56543 13.8464 1.65377 13.8464 2.99631Z" fill="white"/>
<path d="M11.4155 23.6588C12.7581 23.6588 13.8464 22.5705 13.8464 21.2279H8.98465C8.98465 22.5705 10.073 23.6588 11.4155 23.6588Z" fill="white"/>
</svg>
