<svg width="23" height="24" viewBox="0 0 23 24" fill="none" xmlns="http://www.w3.org/2000/svg">
<path fill-rule="evenodd" clip-rule="evenodd" d="M0.476562 19.047C0.476562 18.3758 1.02073 17.8316 1.692 17.8316H21.1391C21.8103 17.8316 22.3545 18.3758 22.3545 19.047C22.3545 19.7183 21.8103 20.2625 21.1391 20.2625H1.692C1.02073 20.2625 0.476562 19.7183 0.476562 19.047Z" fill="#091230"/>
<path fill-rule="evenodd" clip-rule="evenodd" d="M7.54014 7.45089C6.80927 8.46598 6.55377 9.72059 6.55377 10.539V19.047H4.12288V10.539C4.12288 9.33159 4.4751 7.54759 5.56739 6.03051C6.70431 4.45146 8.58851 3.24631 11.4155 3.24631C14.2425 3.24631 16.1267 4.45146 17.2637 6.03051C18.356 7.54759 18.7082 9.33159 18.7082 10.539V19.047H16.2773V10.539C16.2773 9.72059 16.0218 8.46598 15.2909 7.45089C14.6047 6.49778 13.4503 5.67719 11.4155 5.67719C9.38078 5.67719 8.22638 6.49778 7.54014 7.45089Z" fill="#091230"/>
<path d="M13.8464 3.24631C13.8464 4.58885 12.7581 5.67719 11.4155 5.67719C10.073 5.67719 8.98465 4.58885 8.98465 3.24631C8.98465 1.90377 10.073 0.81543 11.4155 0.81543C12.7581 0.81543 13.8464 1.90377 13.8464 3.24631Z" fill="#091230"/>
<path d="M11.4155 23.9088C12.7581 23.9088 13.8464 22.8205 13.8464 21.4779H8.98465C8.98465 22.8205 10.073 23.9088 11.4155 23.9088Z" fill="#091230"/>
</svg>
