<svg width="40" height="41" viewBox="0 0 40 41" fill="none" xmlns="http://www.w3.org/2000/svg">
<circle cx="20" cy="20.5869" r="20" fill="#E1E5F1"/>
<path d="M12.8008 15.1868C12.8008 14.6345 13.2485 14.1868 13.8008 14.1868H17.1208C17.8846 14.1868 18.6171 14.4864 19.1572 15.0199C19.6974 15.5533 20.0008 16.2768 20.0008 17.0312V26.9868C20.0008 26.421 19.7732 25.8783 19.3681 25.4783C18.9631 25.0782 18.4136 24.8534 17.8408 24.8534H13.8008C13.2485 24.8534 12.8008 24.4057 12.8008 23.8534V15.1868Z" stroke="#193769" stroke-width="1.5" stroke-linecap="round" stroke-linejoin="round"/>
<path d="M27.2 15.1868C27.2 14.6345 26.7523 14.1868 26.2 14.1868H22.88C22.1162 14.1868 21.3836 14.4864 20.8435 15.0199C20.3034 15.5533 20 16.2768 20 17.0312V26.9868C20 26.421 20.2276 25.8783 20.6326 25.4783C21.0377 25.0782 21.5871 24.8534 22.16 24.8534H26.2C26.7523 24.8534 27.2 24.4057 27.2 23.8534V15.1868Z" stroke="#193769" stroke-width="1.5" stroke-linecap="round" stroke-linejoin="round"/>
</svg>
