<svg width="24" height="24" viewBox="0 0 24 24" fill="none" xmlns="http://www.w3.org/2000/svg">
<g clip-path="url(#clip0)">
<path d="M22.069 18.3318C22.069 18.7836 21.8854 19.217 21.5587 19.5365C21.2319 19.856 20.7887 20.0355 20.3266 20.0355H4.64477C4.18265 20.0355 3.73946 19.856 3.41269 19.5365C3.08592 19.217 2.90234 18.7836 2.90234 18.3318V8.96141C2.90234 8.50956 3.08592 8.07621 3.41269 7.75671C3.73946 7.4372 4.18265 7.2577 4.64477 7.2577H8.12962L9.87204 4.70215H15.0993L16.8417 7.2577H20.3266C20.7887 7.2577 21.2319 7.4372 21.5587 7.75671C21.8854 8.07621 22.069 8.50956 22.069 8.96141V18.3318Z" stroke="#091230" stroke-width="2" stroke-linecap="round" stroke-linejoin="round"/>
<path d="M12.4857 17.1598C14.6028 17.1598 16.319 15.4436 16.319 13.3265C16.319 11.2094 14.6028 9.49316 12.4857 9.49316C10.3686 9.49316 8.65234 11.2094 8.65234 13.3265C8.65234 15.4436 10.3686 17.1598 12.4857 17.1598Z" stroke="#091230" stroke-width="2" stroke-linecap="round" stroke-linejoin="round"/>
</g>
<defs>
<clipPath id="clip0">
<rect width="23" height="23" fill="white" transform="translate(0.984375 0.868164)"/>
</clipPath>
</defs>
</svg>
