<svg width="25" height="25" viewBox="0 0 25 25" fill="none" xmlns="http://www.w3.org/2000/svg">
<path fill-rule="evenodd" clip-rule="evenodd" d="M1.97656 1.75244C1.42428 1.75244 0.976562 2.20016 0.976562 2.75244C0.976562 3.30473 1.42428 3.75244 1.97656 3.75244H2.76084C3.63885 3.75244 4.41419 4.32509 4.6724 5.16427L7.36917 13.9288C7.88559 15.6072 9.43627 16.7524 11.1923 16.7524H17.7445C19.5109 16.7524 21.0682 15.5938 21.5758 13.9018L23.162 8.61448C23.7394 6.68965 22.2981 4.75244 20.2885 4.75244H6.63821L6.58395 4.5761C6.06753 2.89773 4.51686 1.75244 2.76084 1.75244H1.97656ZM9.28073 13.3406L7.2536 6.75244H20.2885C20.9584 6.75244 21.4388 7.39818 21.2463 8.03979L19.6601 13.3271C19.4063 14.1731 18.6277 14.7524 17.7445 14.7524H11.1923C10.3143 14.7524 9.53894 14.1798 9.28073 13.3406ZM10.9766 19.7524C10.4243 19.7524 9.97656 20.2001 9.97656 20.7524C9.97656 21.3047 10.4243 21.7524 10.9766 21.7524C11.5288 21.7524 11.9766 21.3047 11.9766 20.7524C11.9766 20.2001 11.5288 19.7524 10.9766 19.7524ZM7.97656 20.7524C7.97656 19.0955 9.31971 17.7524 10.9766 17.7524C12.6334 17.7524 13.9766 19.0955 13.9766 20.7524C13.9766 22.4092 12.6334 23.7524 10.9766 23.7524C9.31971 23.7524 7.97656 22.4092 7.97656 20.7524ZM18.9766 19.7524C18.4243 19.7524 17.9766 20.2001 17.9766 20.7524C17.9766 21.3047 18.4243 21.7524 18.9766 21.7524C19.5288 21.7524 19.9766 21.3047 19.9766 20.7524C19.9766 20.2001 19.5288 19.7524 18.9766 19.7524ZM15.9766 20.7524C15.9766 19.0955 17.3197 17.7524 18.9766 17.7524C20.6334 17.7524 21.9766 19.0955 21.9766 20.7524C21.9766 22.4092 20.6334 23.7524 18.9766 23.7524C17.3197 23.7524 15.9766 22.4092 15.9766 20.7524Z" fill="#636F7E"/>
</svg>
