<svg width="23" height="23" viewBox="0 0 23 23" fill="none" xmlns="http://www.w3.org/2000/svg">
<path fill-rule="evenodd" clip-rule="evenodd" d="M16.9821 3.75244H6.63821L6.58395 3.5761C6.06753 1.89773 4.51686 0.752441 2.76084 0.752441H1.97656C1.42428 0.752441 0.976562 1.20016 0.976562 1.75244C0.976562 2.30473 1.42428 2.75244 1.97656 2.75244H2.76084C3.63885 2.75244 4.41419 3.32509 4.6724 4.16427L7.36917 12.9288C7.88559 14.6072 9.43627 15.7524 11.1923 15.7524H17.7445C19.5109 15.7524 21.0682 14.5938 21.5758 12.9018L22.3345 10.3726C21.6736 10.204 21.0496 9.9429 20.4771 9.60398L19.6601 12.3271C19.4063 13.1731 18.6277 13.7524 17.7445 13.7524H11.1923C10.3143 13.7524 9.53894 13.1798 9.28073 12.3406L7.2536 5.75244H17.3505C17.1369 5.12082 17.0094 4.44949 16.9821 3.75244ZM9.97656 19.7524C9.97656 19.2001 10.4243 18.7524 10.9766 18.7524C11.5288 18.7524 11.9766 19.2001 11.9766 19.7524C11.9766 20.3047 11.5288 20.7524 10.9766 20.7524C10.4243 20.7524 9.97656 20.3047 9.97656 19.7524ZM10.9766 16.7524C9.31971 16.7524 7.97656 18.0955 7.97656 19.7524C7.97656 21.4092 9.31971 22.7524 10.9766 22.7524C12.6334 22.7524 13.9766 21.4092 13.9766 19.7524C13.9766 18.0955 12.6334 16.7524 10.9766 16.7524ZM17.9766 19.7524C17.9766 19.2001 18.4243 18.7524 18.9766 18.7524C19.5288 18.7524 19.9766 19.2001 19.9766 19.7524C19.9766 20.3047 19.5288 20.7524 18.9766 20.7524C18.4243 20.7524 17.9766 20.3047 17.9766 19.7524ZM18.9766 16.7524C17.3197 16.7524 15.9766 18.0955 15.9766 19.7524C15.9766 21.4092 17.3197 22.7524 18.9766 22.7524C20.6334 22.7524 21.9766 21.4092 21.9766 19.7524C21.9766 18.0955 20.6334 16.7524 18.9766 16.7524Z" fill="white"/>
</svg>
