<svg width="24" height="25" viewBox="0 0 24 25" fill="none" xmlns="http://www.w3.org/2000/svg">
<path d="M20.6146 4.22754H3.38535C2.62151 4.22754 2 4.83843 2 5.58921V17.0785C2 17.8293 2.62151 18.4402 3.38535 18.4402H13.432L13.1286 20.2586C13.0715 20.6009 13.1867 20.9109 13.4368 21.0879C13.6868 21.2648 14.0223 21.2743 14.3346 21.1125L16.5021 19.9911C16.5626 19.9606 16.7293 19.9606 16.7897 19.9911L18.9573 21.1125C19.1056 21.1893 19.2591 21.2275 19.4063 21.2275C19.5691 21.2275 19.7239 21.1807 19.8552 21.0878C20.1052 20.9109 20.2203 20.6007 20.1633 20.2584L19.8601 18.4401H20.6147C21.3785 18.4401 22 17.8292 22 17.0784V5.58921C21.9999 4.83835 21.3784 4.22754 20.6146 4.22754ZM16.646 16.1062C15.3147 16.1062 14.2315 15.0415 14.2315 13.733C14.2315 12.4244 15.3147 11.3598 16.646 11.3598C17.9773 11.3598 19.0604 12.4244 19.0604 13.733C19.0604 15.0415 17.9773 16.1062 16.646 16.1062ZM17.3429 18.9584C16.939 18.7494 16.3528 18.7494 15.9491 18.9584L14.4167 19.7512L14.9038 16.8303C15.4205 17.1122 16.0144 17.2732 16.6461 17.2732C17.2777 17.2732 17.8715 17.1121 18.3883 16.8303L18.5781 17.969C18.5786 17.9709 18.5787 17.9729 18.5791 17.9748L18.8754 19.7513L17.3429 18.9584ZM20.8125 17.0785C20.8125 17.1839 20.7218 17.273 20.6146 17.273H19.6653L19.4485 15.9729C19.4476 15.9677 19.4462 15.9628 19.4452 15.9577C19.9467 15.3494 20.248 14.5752 20.248 13.733C20.248 11.7808 18.6322 10.1926 16.6461 10.1926C14.6599 10.1926 13.0442 11.7808 13.0442 13.733C13.0442 14.5752 13.3455 15.3492 13.8469 15.9577C13.8459 15.9628 13.8445 15.9677 13.8436 15.9728L13.6266 17.274C13.62 17.2738 13.6136 17.273 13.6069 17.273H3.38535C3.27808 17.273 3.18744 17.1839 3.18744 17.0785V5.58921C3.18744 5.48378 3.27808 5.39469 3.38535 5.39469H20.6146C20.7218 5.39469 20.8125 5.48378 20.8125 5.58921V17.0785Z" fill="#676E86"/>
<path d="M18.5143 7.58594H5.05661C4.72864 7.58594 4.46289 7.84715 4.46289 8.16951C4.46289 8.49188 4.72864 8.75309 5.05661 8.75309H18.5143C18.8423 8.75309 19.108 8.49188 19.108 8.16951C19.108 7.84715 18.8423 7.58594 18.5143 7.58594Z" fill="#676E86"/>
<path d="M10.7563 10.7505H5.05661C4.72864 10.7505 4.46289 11.0117 4.46289 11.3341C4.46289 11.6564 4.72864 11.9176 5.05661 11.9176H10.7563C11.0843 11.9176 11.3501 11.6564 11.3501 11.3341C11.3501 11.0117 11.0843 10.7505 10.7563 10.7505Z" fill="#676E86"/>
</svg>
