<svg width="22" height="23" viewBox="0 0 22 23" fill="none" xmlns="http://www.w3.org/2000/svg">
<rect x="0.777344" y="19.2227" width="20" height="3" rx="1.5" stroke="#676E86" stroke-width="1.5"/>
<path d="M5.60547 2.53516C5.60547 1.98287 6.05318 1.53516 6.60547 1.53516H11.0273C11.5796 1.53516 12.0273 1.98287 12.0273 2.53516V4.03516H5.60547V2.53516Z" stroke="#676E86" stroke-width="1.5"/>
<path d="M3.77734 6.03516C3.77734 4.93059 4.67277 4.03516 5.77734 4.03516H15.7773C16.8819 4.03516 17.7773 4.93059 17.7773 6.03516V19.2227H3.77734V6.03516Z" stroke="#676E86" stroke-width="1.5"/>
<path d="M8.26172 18.4883L8.26172 15.7852" stroke="#676E86" stroke-width="1.5" stroke-linecap="round" stroke-linejoin="round"/>
<path d="M13.293 18.4883L13.293 15.7852" stroke="#676E86" stroke-width="1.5" stroke-linecap="round" stroke-linejoin="round"/>
<path d="M7.08594 15.707H14.4688" stroke="#676E86" stroke-width="1.5" stroke-linecap="round" stroke-linejoin="round"/>
<path d="M12.7773 7.23828H15.7773" stroke="#676E86" stroke-width="1.5" stroke-linecap="round" stroke-linejoin="round"/>
<path d="M12.7773 10.582H15.7773" stroke="#676E86" stroke-width="1.5" stroke-linecap="round" stroke-linejoin="round"/>
<path d="M5.77734 7.23828H8.77734" stroke="#676E86" stroke-width="1.5" stroke-linecap="round" stroke-linejoin="round"/>
<path d="M5.77734 10.582H8.77734" stroke="#676E86" stroke-width="1.5" stroke-linecap="round" stroke-linejoin="round"/>
</svg>
