<svg width="24" height="25" viewBox="0 0 24 25" fill="none" xmlns="http://www.w3.org/2000/svg">
<rect x="2" y="20.0625" width="20" height="3" rx="1.5" stroke="#676E86" stroke-width="1.5"/>
<path d="M6.82812 3.375C6.82812 2.82272 7.27584 2.375 7.82812 2.375H12.25C12.8023 2.375 13.25 2.82272 13.25 3.375V4.875H6.82812V3.375Z" stroke="#676E86" stroke-width="1.5"/>
<path d="M5 6.875C5 5.77043 5.89543 4.875 7 4.875H17C18.1046 4.875 19 5.77043 19 6.875V20.0625H5V6.875Z" stroke="#676E86" stroke-width="1.5"/>
<path d="M9.48438 19.3281L9.48438 16.625" stroke="#676E86" stroke-width="1.5" stroke-linecap="round" stroke-linejoin="round"/>
<path d="M14.5156 19.3281L14.5156 16.625" stroke="#676E86" stroke-width="1.5" stroke-linecap="round" stroke-linejoin="round"/>
<path d="M8.30859 16.5469H15.6914" stroke="#676E86" stroke-width="1.5" stroke-linecap="round" stroke-linejoin="round"/>
<path d="M14 8.07812H17" stroke="#676E86" stroke-width="1.5" stroke-linecap="round" stroke-linejoin="round"/>
<path d="M14 11.4219H17" stroke="#676E86" stroke-width="1.5" stroke-linecap="round" stroke-linejoin="round"/>
<path d="M7 8.07812H10" stroke="#676E86" stroke-width="1.5" stroke-linecap="round" stroke-linejoin="round"/>
<path d="M7 11.4219H10" stroke="#676E86" stroke-width="1.5" stroke-linecap="round" stroke-linejoin="round"/>
</svg>
