<svg width="33" height="33" viewBox="0 0 33 33" fill="none" xmlns="http://www.w3.org/2000/svg">
<path fill-rule="evenodd" clip-rule="evenodd" d="M6.77157 4.03906C6.15273 4.03906 5.55923 4.2849 5.12165 4.72248C4.68407 5.16007 4.43823 5.75356 4.43823 6.3724V19.0391C4.43823 20.3271 5.48357 21.3724 6.77157 21.3724H8.77157C9.03678 21.3724 9.29114 21.267 9.47867 21.0795C9.66621 20.892 9.77157 20.6376 9.77157 20.3724C9.77157 20.1072 9.66621 19.8528 9.47867 19.6653C9.29114 19.4778 9.03678 19.3724 8.77157 19.3724H6.77157C6.68316 19.3724 6.59838 19.3373 6.53586 19.2748C6.47335 19.2123 6.43823 19.1275 6.43823 19.0391V6.3724C6.43823 6.28399 6.47335 6.19921 6.53586 6.13669C6.59838 6.07418 6.68316 6.03906 6.77157 6.03906H19.4382C19.5266 6.03906 19.6114 6.07418 19.6739 6.13669C19.7364 6.19921 19.7716 6.28399 19.7716 6.3724V8.3724C19.7716 8.63761 19.8769 8.89197 20.0645 9.0795C20.252 9.26704 20.5063 9.3724 20.7716 9.3724C21.0368 9.3724 21.2911 9.26704 21.4787 9.0795C21.6662 8.89197 21.7716 8.63761 21.7716 8.3724V6.3724C21.7716 5.75356 21.5257 5.16007 21.0882 4.72248C20.6506 4.2849 20.0571 4.03906 19.4382 4.03906H6.77157ZM13.4382 10.7057C12.8194 10.7057 12.2259 10.9516 11.7883 11.3891C11.3507 11.8267 11.1049 12.4202 11.1049 13.0391V25.7057C11.1049 26.9937 12.1502 28.0391 13.4382 28.0391H26.1049C26.7237 28.0391 27.3172 27.7932 27.7548 27.3556C28.1924 26.9181 28.4382 26.3246 28.4382 25.7057V13.0391C28.4382 12.4202 28.1924 11.8267 27.7548 11.3891C27.3172 10.9516 26.7237 10.7057 26.1049 10.7057H13.4382ZM13.1049 13.0391C13.1049 12.9507 13.14 12.8659 13.2025 12.8034C13.265 12.7408 13.3498 12.7057 13.4382 12.7057H26.1049C26.1933 12.7057 26.2781 12.7408 26.3406 12.8034C26.4031 12.8659 26.4382 12.9507 26.4382 13.0391V25.7057C26.4382 25.7941 26.4031 25.8789 26.3406 25.9414C26.2781 26.0039 26.1933 26.0391 26.1049 26.0391H13.4382C13.3498 26.0391 13.265 26.0039 13.2025 25.9414C13.14 25.8789 13.1049 25.7941 13.1049 25.7057V13.0391Z" fill="#193769"/>
</svg>
