<svg width="15" height="16" viewBox="0 0 15 16" fill="none" xmlns="http://www.w3.org/2000/svg">
<path fill-rule="evenodd" clip-rule="evenodd" d="M7.41073 0.779297C5.43151 0.779285 4.47382 2.08418 4.18665 2.80712C4.15432 2.88849 4.07768 2.9457 3.99012 2.9457H0.901945C0.816119 2.9457 0.73899 3.00029 0.720191 3.08403C0.548423 3.8492 0.715904 5.54727 1.60766 6.7793C2.17609 7.56461 3.00472 7.99648 3.79654 8.40916C4.62908 8.84305 5.42093 9.25574 5.82683 10.0358C6.31442 10.9727 6.25926 12.4022 5.24606 12.596C3.98032 12.8382 3.5525 14.5129 3.5073 15.3557C3.50148 15.4642 3.59048 15.5502 3.69909 15.5502H11.1228C11.2312 15.5502 11.3205 15.4636 11.3182 15.3552C11.2785 13.4621 9.92435 12.6857 9.31142 12.596C8.67785 12.5034 8.36107 10.8892 8.88904 10.0358C9.11325 9.67333 9.68939 9.33927 10.3709 8.94413C11.2942 8.40878 12.4108 7.76132 13.1077 6.7793C13.7038 5.93926 14.32 4.09988 14.2882 3.11981C14.2849 3.01968 14.1995 2.9457 14.0993 2.9457H10.9851C10.8998 2.9457 10.8248 2.89158 10.791 2.81321C10.4531 2.02924 9.35598 0.779308 7.41073 0.779297ZM10.9986 4.57994C11.006 4.4734 11.0937 4.38998 11.2005 4.38998H12.745C12.8591 4.38998 12.9506 4.48538 12.9393 4.59889C12.7612 6.39992 11.401 7.30682 10.5971 7.50157C10.4384 7.54002 10.3537 7.35911 10.4288 7.21412C10.7838 6.52853 10.9483 5.31072 10.9986 4.57994ZM1.98771 4.59889C1.97649 4.48538 2.06798 4.38998 2.18204 4.38998H3.72653C3.83332 4.38998 3.9211 4.47339 3.92843 4.57994C3.97874 5.31072 4.14322 6.52853 4.49824 7.21412C4.57332 7.35911 4.48862 7.54002 4.32994 7.50157C3.52607 7.30682 2.16583 6.39992 1.98771 4.59889Z" fill="white"/>
</svg>
