<svg width="54" height="54" viewBox="0 0 54 54" fill="none" xmlns="http://www.w3.org/2000/svg">
<rect x="1.25391" y="0.875" width="52" height="52" rx="6.5" fill="#F7F7F7" stroke="#B8BEC8"/>
<path fill-rule="evenodd" clip-rule="evenodd" d="M27.2464 30.5325C27.3786 30.6712 27.5624 30.75 27.7545 30.75C27.9467 30.75 28.1305 30.6712 28.2627 30.5325L33.1845 25.3762C33.6111 24.93 33.2942 24.1875 32.6764 24.1875H30.0983V18.7969C30.0983 18.1509 29.5724 17.625 28.9264 17.625H26.5827C25.9367 17.625 25.4108 18.1509 25.4108 18.7969V24.1875H22.8327C22.2149 24.1875 21.898 24.93 22.3245 25.3762L27.2464 30.5325ZM18.3789 32.625C17.3434 32.625 16.5039 33.4645 16.5039 34.5C16.5039 35.5355 17.3434 36.375 18.3789 36.375H37.1289C38.1644 36.375 39.0039 35.5355 39.0039 34.5C39.0039 33.4645 38.1644 32.625 37.1289 32.625H18.3789Z" fill="#FF9E0D"/>
</svg>
