<svg width="29" height="29" viewBox="0 0 29 29" fill="none" xmlns="http://www.w3.org/2000/svg">
<path fill-rule="evenodd" clip-rule="evenodd" d="M23.0229 4.6287C22.5979 4.33861 22.0385 4.33861 21.6135 4.6287C21.5316 4.68463 21.4347 4.77689 21.0985 5.11304L20.7069 5.50471C20.6452 6.87114 21.7778 8.00543 23.1437 7.94651L23.5379 7.55238C23.874 7.21623 23.9663 7.11933 24.0222 7.03739C24.3123 6.61238 24.3123 6.05303 24.0222 5.62802C23.9663 5.54608 23.874 5.44918 23.5379 5.11304C23.2017 4.77689 23.1048 4.68463 23.0229 4.6287ZM21.8357 9.25456C20.6894 8.87254 19.7785 7.96081 19.3975 6.81409L15.9353 10.2762C15.4521 10.7594 15.2704 10.9443 15.1245 11.1474C14.9877 11.3377 14.8718 11.5423 14.779 11.7575C14.68 11.9871 14.6149 12.2381 14.4492 12.901L14.0156 14.6353L15.7499 14.2017C16.4128 14.036 16.6638 13.9709 16.8934 13.8719C17.1086 13.7791 17.3132 13.6633 17.5035 13.5264C17.7066 13.3805 17.8915 13.1988 18.3747 12.7156L21.8357 9.25456ZM20.7679 3.38978C21.7029 2.75158 22.9335 2.75158 23.8685 3.38978C24.0824 3.53577 24.2857 3.7393 24.5493 4.00316L24.5985 4.05238L24.6478 4.10157C24.9116 4.36518 25.1151 4.56852 25.2611 4.7824C25.8993 5.71742 25.8993 6.94799 25.2611 7.88301C25.1151 8.09689 24.9116 8.30023 24.6478 8.56384L24.6477 8.56385L24.5985 8.61304L19.4353 13.7762L19.3913 13.8203C18.9668 14.2449 18.693 14.5187 18.3791 14.7444C18.1009 14.9444 17.8019 15.1137 17.4873 15.2493C17.1323 15.4024 16.7566 15.4963 16.1742 15.6418L16.1137 15.6569L13.1668 16.3936C12.9112 16.4575 12.6408 16.3827 12.4545 16.1964C12.2682 16.0101 12.1934 15.7397 12.2573 15.4841L12.994 12.5372L13.0091 12.4767C13.1546 11.8943 13.2485 11.5187 13.4016 11.1636C13.5373 10.849 13.7065 10.55 13.9065 10.2718C14.1322 9.95787 14.406 9.68413 14.8306 9.25964L14.8747 9.21556L20.0379 4.05238L20.0871 4.00315L20.0871 4.00314L20.0871 4.00311C20.3507 3.73927 20.554 3.53576 20.7679 3.38978ZM10.0198 3.24907L10.0528 3.24907L14.1528 3.24907C14.567 3.24907 14.9028 3.58486 14.9028 3.99907C14.9028 4.41328 14.567 4.74907 14.1528 4.74907L10.0528 4.74907C8.92035 4.74907 8.1161 4.74965 7.48671 4.80108C6.86609 4.85178 6.48184 4.94816 6.17736 5.1033C5.56584 5.41489 5.06865 5.91207 4.75706 6.5236C4.60192 6.82807 4.50555 7.21232 4.45484 7.83295C4.40342 8.46234 4.40283 9.26659 4.40283 10.3991L4.40283 18.5991C4.40283 19.7316 4.40342 20.5358 4.45484 21.1652C4.50555 21.7858 4.60192 22.1701 4.75706 22.4745C5.06865 23.0861 5.56584 23.5833 6.17736 23.8948C6.48184 24.05 6.86609 24.1464 7.48671 24.1971C8.1161 24.2485 8.92035 24.2491 10.0528 24.2491H18.2528C19.3853 24.2491 20.1896 24.2485 20.8189 24.1971C21.4396 24.1464 21.8238 24.05 22.1283 23.8948C22.7398 23.5833 23.237 23.0861 23.5486 22.4745C23.7037 22.1701 23.8001 21.7858 23.8508 21.1652C23.9022 20.5358 23.9028 19.7316 23.9028 18.5991V14.4991C23.9028 14.0849 24.2386 13.7491 24.6528 13.7491C25.067 13.7491 25.4028 14.0849 25.4028 14.4991V18.5991V18.632C25.4028 19.7242 25.4028 20.5897 25.3458 21.2873C25.2876 22.0007 25.1659 22.6044 24.8851 23.1555C24.4297 24.0493 23.7031 24.776 22.8093 25.2314C22.2581 25.5122 21.6545 25.6338 20.9411 25.6921C20.2435 25.7491 19.3779 25.7491 18.2857 25.7491H18.2528H10.0528H10.0199C8.92773 25.7491 8.06221 25.7491 7.36457 25.6921C6.65118 25.6338 6.04755 25.5122 5.49638 25.2314C4.60261 24.776 3.87595 24.0493 3.42055 23.1555C3.13971 22.6044 3.01811 22.0007 2.95982 21.2873C2.90282 20.5897 2.90283 19.7242 2.90283 18.6321V18.6321V18.5991L2.90283 10.3991V10.3661V10.3661C2.90283 9.27392 2.90282 8.40842 2.95982 7.7108C3.01811 6.99742 3.13971 6.39379 3.42055 5.84262C3.87595 4.94885 4.60261 4.22219 5.49638 3.76679C6.04755 3.48595 6.65118 3.36434 7.36457 3.30606C8.06219 3.24906 8.92769 3.24906 10.0198 3.24907Z" fill="#636F7E"/>
</svg>
