<svg width="18" height="19" viewBox="0 0 18 19" fill="none" xmlns="http://www.w3.org/2000/svg">
<path d="M8.30788 2.56691C8.56452 1.95213 9.43548 1.95214 9.69212 2.56691L11.1289 6.00867C11.2314 6.25436 11.4566 6.42726 11.7204 6.46297L15.5376 6.97961C16.1878 7.0676 16.4195 7.88909 15.9112 8.30391L12.9761 10.699C12.7547 10.8797 12.6552 11.1707 12.7196 11.4492L13.6572 15.5008C13.8123 16.171 13.0587 16.6789 12.4957 16.2838L9.43086 14.1327C9.17229 13.9512 8.82771 13.9512 8.56914 14.1327L5.50429 16.2838C4.94126 16.679 4.18767 16.171 4.34274 15.5008L5.28027 11.4491C5.34472 11.1706 5.24524 10.8797 5.02377 10.699L2.0888 8.30391C1.58048 7.88909 1.81222 7.06761 2.4624 6.97961L6.27961 6.46297C6.54344 6.42726 6.76857 6.25436 6.87113 6.00867L8.30788 2.56691Z" stroke="#FF7545" stroke-width="1.5" stroke-miterlimit="3.3292" stroke-linecap="round" stroke-linejoin="round"/>
</svg>
