<svg width="358" height="267" viewBox="0 0 358 267" fill="none" xmlns="http://www.w3.org/2000/svg">
<path d="M191.15 145.302L168.333 153.4C167.171 153.813 166.287 154.773 165.967 155.966L159.72 179.386C158.92 182.389 155.02 183.168 153.129 180.699L138.352 161.465C137.6 160.486 136.414 159.938 135.182 160.003L110.994 161.261C107.894 161.423 105.946 157.952 107.703 155.386L121.392 135.399C122.089 134.383 122.242 133.084 121.796 131.928L113.095 109.288C111.979 106.383 114.671 103.464 117.65 104.346L140.886 111.227C142.071 111.58 143.349 111.325 144.307 110.545L163.113 95.292C165.525 93.3337 169.137 94.9997 169.22 98.1134L169.894 122.355C169.927 123.589 170.568 124.731 171.605 125.404L191.931 138.62C194.538 140.314 194.078 144.263 191.15 145.302Z" fill="#FF9E0D"/>
<path d="M142.438 214.786C142.438 214.786 142.237 215.706 141.64 216.046C141.041 216.384 140.649 216.418 140.649 216.418C140.649 216.418 141.381 216.647 141.976 216.482C143.002 216.194 142.438 214.786 142.438 214.786Z" fill="#940DFF"/>
<path d="M128.694 222.812L132.888 216.714C133.101 216.404 133.46 216.224 133.845 216.234L141.42 216.448C142.391 216.475 142.923 215.381 142.319 214.595L137.614 208.473C137.375 208.161 137.3 207.758 137.413 207.397L139.636 200.282C139.922 199.369 139.018 198.481 138.107 198.777L131.007 201.092C130.645 201.21 130.24 201.14 129.925 200.905L123.725 196.295C122.93 195.704 121.839 196.25 121.881 197.218L122.198 204.77C122.213 205.155 122.04 205.515 121.732 205.731L115.676 209.996C114.899 210.544 115.129 211.769 116.064 212.072L123.36 214.425C123.731 214.545 124.029 214.837 124.153 215.206L126.61 222.452C126.923 223.382 128.155 223.595 128.694 222.812Z" fill="#940DFF"/>
<path d="M234.164 121.587C234.164 121.587 233.85 123.025 232.916 123.556C231.979 124.086 231.367 124.138 231.367 124.138C231.367 124.138 232.51 124.497 233.442 124.238C235.046 123.789 234.164 121.587 234.164 121.587Z" fill="#00BF2A"/>
<path d="M212.673 134.137L219.231 124.601C219.565 124.115 220.126 123.835 220.729 123.851L232.573 124.185C234.093 124.227 234.925 122.516 233.981 121.287L226.623 111.714C226.248 111.225 226.131 110.596 226.307 110.03L229.785 98.9049C230.231 97.4771 228.818 96.0878 227.393 96.5512L216.289 100.171C215.724 100.355 215.09 100.246 214.599 99.8795L204.903 92.67C203.659 91.746 201.954 92.599 202.019 94.1125L202.514 105.923C202.538 106.524 202.267 107.088 201.785 107.426L192.316 114.096C191.1 114.952 191.46 116.868 192.922 117.341L204.331 121.021C204.913 121.209 205.378 121.666 205.571 122.242L209.414 133.573C209.903 135.028 211.831 135.362 212.673 134.137Z" fill="#00BF2A"/>
<path d="M282.535 152.064C282.535 152.064 290.215 150.467 297.588 153.801C304.96 157.135 311.392 164.511 311.392 164.511L301.614 171.813C301.615 171.815 302.154 159.951 282.535 152.064Z" fill="#FAE0B2"/>
<path d="M278.499 157.315L276.961 150.846L281.428 145.922C281.937 145.362 281.579 144.462 280.824 144.398L274.185 143.85L270.867 138.083C270.489 137.425 269.521 137.486 269.23 138.183L266.665 144.315L260.147 145.676C259.405 145.832 259.163 146.768 259.739 147.263L264.792 151.6L264.082 158.207C264.002 158.958 264.821 159.479 265.467 159.085L271.157 155.634L277.236 158.357C277.926 158.668 278.674 158.051 278.499 157.315Z" fill="#F7CC7F"/>
<path d="M59.8164 200.729C59.8164 200.729 49.2576 202.354 41.4594 210.118C33.6611 217.882 29.0048 230.352 29.0048 230.352L44.9754 235C44.9719 235.004 38.5893 220.138 59.8164 200.729Z" fill="#FAE0B2"/>
<path d="M62.7442 208.38L61.6005 199.4L53.541 195.252C52.6232 194.779 52.6479 193.461 53.5799 193.021L61.7805 189.158L63.242 180.224C63.4079 179.205 64.6717 178.821 65.3778 179.572L71.5909 186.166L80.5541 184.795C81.5743 184.64 82.3333 185.718 81.8355 186.624L77.4757 194.561L81.5531 202.646C82.0191 203.566 81.2213 204.62 80.2081 204.426L71.3014 202.738L64.8588 209.106C64.1245 209.832 62.8748 209.402 62.7442 208.38Z" fill="#F7CC7F"/>
<path d="M263.17 205.858L264.985 202.798L263.489 199.573C263.318 199.206 263.644 198.802 264.041 198.893L267.515 199.669L270.126 197.252C270.424 196.977 270.909 197.161 270.945 197.565L271.279 201.103L274.388 202.835C274.743 203.031 274.717 203.549 274.344 203.709L271.077 205.12L270.388 208.606C270.31 209.002 269.809 209.14 269.54 208.834L267.186 206.168L263.652 206.593C263.248 206.639 262.965 206.205 263.17 205.858Z" fill="#466EB6"/>
<path d="M134.137 80.5494L136.427 76.6903L134.539 72.6215C134.324 72.1582 134.736 71.6483 135.234 71.7622L139.618 72.7431L142.911 69.6941C143.287 69.3473 143.896 69.5802 143.945 70.0875L144.365 74.5523L148.288 76.7369C148.733 76.9853 148.702 77.6376 148.231 77.8421L144.108 79.6202L143.24 84.0203C143.141 84.5225 142.509 84.6907 142.172 84.3076L139.203 80.9428L134.744 81.476C134.236 81.5356 133.878 80.9894 134.137 80.5494Z" fill="#F79C8D"/>
<path d="M290.076 38.8986L282.852 39.6998L283.145 46.449L276.063 47.5542L275.547 54.04L270.381 55.7295L271.235 58.3369L278.144 56.0756L278.635 49.9297L286.002 48.7822L285.713 42.1429L292.259 41.4168L290.076 38.8986Z" fill="#F48C7F"/>
<path d="M338.355 224.77L334.08 218.905L328.356 222.516L323.889 216.922L317.993 219.697L313.964 216.061L312.121 218.095L317.506 222.961L323.095 220.331L327.741 226.147L333.372 222.599L337.245 227.912L338.355 224.77Z" fill="#F48C7F"/>
<path d="M46.016 72.7466L39.4949 63.8674L30.7633 69.3337L23.9496 60.8659L14.957 65.0665L8.81169 59.561L6 62.6409L14.2136 70.0076L22.7396 66.0265L29.8261 74.8313L38.4154 69.4591L44.3234 77.5037L46.016 72.7466Z" fill="#F48C7F"/>
<path d="M61.0222 33.7159L62.8133 39.2833L68.7392 40.0229L70.3046 46.4043L76.8627 45.2488L78.9505 52.3884L85.1205 52.07L88.2538 58.6106L85.7726 59.7954L83.4302 54.9064L76.9192 55.2443L74.9127 48.38L68.2456 49.5552L66.5194 42.513L60.7305 41.7878L59.0702 36.6284L55.1693 36.9469L54.9461 34.212L61.0222 33.7159Z" fill="#F7CC7F"/>
<path d="M316.446 120.904L322.168 122.187L325.811 117.47L332.123 119.36L334.448 113.139L341.68 114.964L344.533 109.501L351.777 110.125L351.543 112.857L346.128 112.392L343.12 118.158L336.167 116.402L333.803 122.727L326.839 120.64L323.277 125.246L317.974 124.057L316.272 127.571L313.794 126.376L316.446 120.904Z" fill="#96D9C9"/>
<path d="M153.682 31.1445L144.735 31.9565L141.927 17.842L128.714 17.4377L124.868 7.22675L119.635 9.1951L124.78 22.8514L137.309 23.2343L140.228 37.9166L153.688 36.6912L153.682 31.1445Z" fill="#50BFA5"/>
<path d="M291.563 87.5018L286.347 89.1014L284.711 94.2987C284.579 94.718 284.022 94.806 283.77 94.4436L280.633 89.9866L275.178 90.0383C274.738 90.0435 274.484 89.5414 274.748 89.1894L278.025 84.8333L276.291 79.6696C276.151 79.2529 276.55 78.8569 276.967 78.9992L282.129 80.7645L286.51 77.5213C286.866 77.2599 287.366 77.5161 287.358 77.9561L287.27 83.4019L291.714 86.5622C292.077 86.8159 291.986 87.3724 291.563 87.5018Z" fill="#FED333"/>
<path d="M52.493 140.677L47.2768 142.277L45.6409 147.474C45.5087 147.893 44.9513 147.981 44.6998 147.619L41.5628 143.162L36.1081 143.213C35.6674 143.219 35.4133 142.717 35.6778 142.365L38.9547 138.008L37.2203 132.845C37.0803 132.428 37.4796 132.032 37.897 132.174L43.0587 133.94L47.4402 130.696C47.7953 130.435 48.2957 130.691 48.2879 131.131L48.1998 136.577L52.6434 139.737C53.0063 139.991 52.9156 140.548 52.493 140.677Z" fill="#00BF2A"/>
<path d="M205.736 227.683L207.878 231.237C208.108 231.622 208.684 231.573 208.847 231.156L210.369 227.297L214.416 226.36C214.854 226.259 214.986 225.7 214.639 225.413L211.432 222.776L211.79 218.645C211.829 218.197 211.336 217.899 210.958 218.14L207.455 220.368L203.628 218.751C203.214 218.575 202.778 218.95 202.892 219.385L203.934 223.399L201.212 226.531C200.917 226.87 201.14 227.401 201.588 227.427L205.736 227.683Z" fill="#F47458"/>
<path d="M222.034 44.4596L228.995 44.2222C229.749 44.1988 230.145 43.3191 229.666 42.7423L225.239 37.3867L227.157 30.7209C227.366 29.9996 226.652 29.3525 225.948 29.626L219.465 32.1624L213.691 28.2845C213.065 27.8639 212.227 28.3408 212.272 29.0887L212.694 36.0094L207.204 40.2784C206.608 40.7406 206.804 41.681 207.536 41.8678L214.278 43.6085L216.661 50.1245C216.918 50.8312 217.879 50.937 218.282 50.3036L222.034 44.4596Z" fill="#F47458"/>
<path d="M293.08 214.553C293.08 215.922 291.967 217.032 290.596 217.032C289.225 217.032 288.112 215.922 288.112 214.553C288.112 213.184 289.225 212.073 290.596 212.073C291.967 212.076 293.08 213.184 293.08 214.553Z" fill="#50BFA5"/>
<path d="M203.815 90.963C203.815 92.3322 202.703 93.4426 201.331 93.4426C199.96 93.4426 198.848 92.3322 198.848 90.963C198.848 89.5938 199.96 88.4834 201.331 88.4834C202.703 88.486 203.815 89.5938 203.815 90.963Z" fill="#50BFA5"/>
<path d="M98.4147 124.84C98.4147 126.209 97.2117 127.319 95.7262 127.319C94.2407 127.319 93.0352 126.209 93.0352 124.84C93.0352 123.471 94.2407 122.36 95.7262 122.36C97.2117 122.36 98.4147 123.471 98.4147 124.84Z" fill="#50BFA5"/>
<path d="M200.001 169.001L206.492 170.28C206.492 170.28 215.984 165.856 216.707 163.722C217.43 161.588 217.099 156.674 218.488 156.365C219.877 156.056 222.656 156.174 223.719 159.438C224.489 161.804 221.809 169.254 222.454 169.934C222.862 170.357 226.57 171.203 229.291 171.77C231.078 172.146 232.508 173.502 232.994 175.286V175.291C233.324 176.497 232.777 177.781 231.677 178.369L229.968 179.281L230.768 181.06C231.367 182.385 230.794 183.957 229.487 184.581L228.155 185.22L228.739 186.293C229.493 187.674 228.888 189.417 227.453 190.036L226.286 190.536L226.374 190.855C226.751 192.175 226.064 193.577 224.799 194.083L223.632 194.547L206.343 191.134C204.721 190.814 203.188 190.159 201.829 189.216L195.953 186.994C195.323 186.757 194.961 186.081 195.106 185.411L198.39 170.074C198.555 169.336 199.273 168.857 200.001 169.001Z" fill="#96D9C9"/>
<rect y="255" width="354" height="12" rx="6" fill="#E1E5F1"/>
<rect y="255" width="354" height="12" rx="6" fill="#00BF2A"/>
</svg>
