<svg width="45" height="45" viewBox="0 0 45 45" fill="none" xmlns="http://www.w3.org/2000/svg">
<path fill-rule="evenodd" clip-rule="evenodd" d="M24.393 11.187L20.3783 8.20222C19.947 7.88162 19.424 7.7085 18.8867 7.7085H12.4189C11.0382 7.7085 9.91895 8.82779 9.91895 10.2085V11.375L15.2414 11.3749C15.951 11.3749 16.6395 11.6164 17.1936 12.0597L20.0649 14.3568C20.619 14.8 21.3088 15.0415 22.0184 15.0415H34.2943C36.0202 15.0415 37.4209 16.4407 37.4209 18.1665V31.5418H38.5856C39.9663 31.5418 41.0856 30.4225 41.0856 29.0418V14.1807C41.0856 12.8 39.9663 11.6807 38.5856 11.6807H25.8846C25.3472 11.6807 24.8242 11.5076 24.393 11.187ZM16.1524 13.7466L19.8182 16.6424C20.2595 16.991 20.8055 17.1806 21.3679 17.1806H33.0853C34.466 17.1806 35.5853 18.2999 35.5853 19.6806V34.5417C35.5853 35.9224 34.466 37.0417 33.0853 37.0417H8.75195C7.37124 37.0417 6.25195 35.9224 6.25195 34.5417V15.7084C6.25195 14.3277 7.37124 13.2084 8.75195 13.2084H14.6027C15.1651 13.2084 15.7111 13.398 16.1524 13.7466Z" fill="#4063E0"/>
</svg>
