<svg width="18" height="19" viewBox="0 0 18 19" fill="none" xmlns="http://www.w3.org/2000/svg">
<path d="M8.30788 3.06691C8.56452 2.45213 9.43548 2.45214 9.69212 3.06691L11.1289 6.50867C11.2314 6.75436 11.4566 6.92726 11.7204 6.96297L15.5376 7.47961C16.1878 7.5676 16.4195 8.38909 15.9112 8.80391L12.9761 11.199C12.7547 11.3797 12.6552 11.6707 12.7196 11.9492L13.6572 16.0008C13.8123 16.671 13.0587 17.1789 12.4957 16.7838L9.43086 14.6327C9.17229 14.4512 8.82771 14.4512 8.56914 14.6327L5.50429 16.7838C4.94126 17.179 4.18767 16.671 4.34274 16.0008L5.28027 11.9491C5.34472 11.6706 5.24524 11.3797 5.02377 11.199L2.0888 8.80391C1.58048 8.38909 1.81222 7.56761 2.4624 7.47961L6.27961 6.96297C6.54344 6.92726 6.76857 6.75436 6.87113 6.50867L8.30788 3.06691Z" fill="#FF7545"/>
</svg>
