<svg width="25" height="25" viewBox="0 0 25 25" fill="none" xmlns="http://www.w3.org/2000/svg">
<path fill-rule="evenodd" clip-rule="evenodd" d="M10.3677 7.10105C8.24208 7.10105 6.51897 8.82416 6.51897 10.9497C6.51897 13.0753 8.24208 14.7984 10.3677 14.7984C12.4932 14.7984 14.2163 13.0753 14.2163 10.9497C14.2163 8.82416 12.4932 7.10105 10.3677 7.10105ZM4.97949 10.9497C4.97949 7.97394 7.39185 5.56157 10.3677 5.56157C13.3434 5.56157 15.7558 7.97394 15.7558 10.9497C15.7558 13.9255 13.3434 16.3379 10.3677 16.3379C7.39185 16.3379 4.97949 13.9255 4.97949 10.9497Z" fill="#676E86"/>
<path fill-rule="evenodd" clip-rule="evenodd" d="M19.379 3.02691L13.9909 8.41507L12.9023 7.3265L18.2905 1.93834L19.379 3.02691Z" fill="#676E86"/>
<path fill-rule="evenodd" clip-rule="evenodd" d="M14.9861 2.48263C14.9861 2.05751 15.3307 1.71289 15.7558 1.71289H18.8348C19.2599 1.71289 19.6045 2.05751 19.6045 2.48263V5.56157C19.6045 5.98669 19.2599 6.33131 18.8348 6.33131C18.4096 6.33131 18.065 5.98669 18.065 5.56157V3.25236H15.7558C15.3307 3.25236 14.9861 2.90774 14.9861 2.48263Z" fill="#676E86"/>
<path fill-rule="evenodd" clip-rule="evenodd" d="M14.921 11.1445C12.8607 11.1445 11.1906 12.8147 11.1906 14.8749C11.1906 16.9352 12.8607 18.6053 14.921 18.6053C16.9812 18.6053 18.6514 16.9352 18.6514 14.8749C18.6514 12.8147 16.9812 11.1445 14.921 11.1445ZM9.69841 14.8749C9.69841 11.9906 12.0366 9.65234 14.921 9.65234C17.8053 9.65234 20.1436 11.9906 20.1436 14.8749C20.1436 17.7593 17.8053 20.0975 14.921 20.0975C12.0366 20.0975 9.69841 17.7593 9.69841 14.8749Z" fill="#676E86"/>
<path fill-rule="evenodd" clip-rule="evenodd" d="M12.4642 18.3868L7.24164 23.6094L6.18652 22.5543L11.4091 17.3317L12.4642 18.3868Z" fill="#676E86"/>
<path fill-rule="evenodd" clip-rule="evenodd" d="M9.91693 23.6094L6.18652 19.879L7.24164 18.8238L10.9721 22.5543L9.91693 23.6094Z" fill="#676E86"/>
</svg>
