<svg width="25" height="25" viewBox="0 0 25 25" fill="none" xmlns="http://www.w3.org/2000/svg">
<g clip-path="url(#clip0)">
<path d="M20.6601 6.99825L20.3609 7.09311L18.7674 7.23507L18.3174 7.95381L17.9908 7.85005L16.7226 6.70668L16.5386 6.11208L16.2923 5.47801L15.4952 4.76308L14.5549 4.5791L14.5333 5.00946L15.4545 5.90836L15.9052 6.4393L15.3985 6.70413L14.9859 6.58254L14.3678 6.32471L14.3888 5.82624L13.5777 5.49265L13.3084 6.66466L12.491 6.84992L12.5719 7.50373L13.6369 7.70872L13.8209 6.66403L14.7001 6.7939L15.1088 7.03326H15.7645L16.2133 7.93217L17.4032 9.1392L17.316 9.60839L16.3566 9.48616L14.6988 10.3233L13.5052 11.7551L13.3498 12.3891H12.9214L12.1231 12.0212L11.3477 12.3891L11.5406 13.2072L11.878 12.8182L12.4713 12.7998L12.4299 13.5344L12.9214 13.6783L13.4122 14.2296L14.2137 14.0042L15.1292 14.1487L16.1923 14.4346L16.7233 14.497L17.6234 15.5187L19.3608 16.5405L18.2371 18.6872L17.0511 19.2385L16.601 20.4653L14.8847 21.6112L14.702 22.272C19.0896 21.2152 22.3535 17.2739 22.3535 12.5617C22.3522 10.5035 21.7284 8.58789 20.6601 6.99825Z" fill="black"/>
<path d="M13.5033 17.7874L12.775 16.4372L13.4434 15.0442L12.775 14.8443L12.0244 14.0906L10.3616 13.7175L9.80963 12.5627V13.2483H9.56644L8.13342 11.3054V9.70939L7.083 8.00134L5.41506 8.29864H4.29142L3.72611 7.92813L4.4474 7.35645L3.72802 7.5226C2.86094 9.00338 2.35547 10.7216 2.35547 12.5621C2.35547 18.0835 6.83153 22.5614 12.3536 22.5614C12.7788 22.5614 13.1958 22.5239 13.6083 22.4742L13.5039 21.2627C13.5039 21.2627 13.9629 19.4637 13.9629 19.4025C13.9623 19.3408 13.5033 17.7874 13.5033 17.7874Z" fill="black"/>
<path d="M6.0692 5.786L7.84536 5.53835L8.66405 5.08953L9.58524 5.355L11.0571 5.27352L11.5613 4.48093L12.2966 4.60188L14.0823 4.43445L14.5744 3.89206L15.2683 3.4286L16.25 3.57629L16.6078 3.52218C15.3148 2.91357 13.876 2.56152 12.3513 2.56152C9.24783 2.56152 6.47281 3.97609 4.64062 6.19725H4.64572L6.0692 5.786ZM12.7741 3.55592L13.7952 2.99379L14.4509 3.37258L13.5017 4.09514L12.5952 4.18617L12.1871 3.92134L12.7741 3.55592ZM9.74949 3.63804L10.2002 3.82585L10.7904 3.63804L11.1119 4.19509L9.74949 4.55287L9.09441 4.16962C9.09377 4.16962 9.73485 3.75709 9.74949 3.63804Z" fill="black"/>
</g>
<defs>
<clipPath id="clip0">
<rect width="20" height="20" fill="white" transform="translate(2.35156 2.56152)"/>
</clipPath>
</defs>
</svg>
