<svg width="35" height="35" viewBox="0 0 35 35" fill="none" xmlns="http://www.w3.org/2000/svg">
<path d="M22.7428 30.125C23.8474 30.125 24.7428 29.2296 24.7428 28.125V27.2917C24.7428 25.7888 24.1458 24.3474 23.0831 23.2847C22.0204 22.222 20.5791 21.625 19.0762 21.625H7.74284C6.23994 21.625 4.79861 22.222 3.7359 23.2847C2.67319 24.3474 2.07617 25.7888 2.07617 27.2917V28.125" stroke="white" stroke-width="2" stroke-linecap="round" stroke-linejoin="bevel"/>
<path d="M13.4108 15.9583C16.5404 15.9583 19.0775 13.4213 19.0775 10.2917C19.0775 7.16205 16.5404 4.625 13.4108 4.625C10.2812 4.625 7.74414 7.16205 7.74414 10.2917C7.74414 13.4213 10.2812 15.9583 13.4108 15.9583Z" stroke="white" stroke-width="2" stroke-linecap="round" stroke-linejoin="round"/>
<path d="M31.8262 30.1252V26.7464C31.8252 25.2491 31.4073 23.7947 30.6381 22.6113C29.8689 21.428 28.7919 20.5828 27.5762 20.2085" stroke="white" stroke-width="2" stroke-linecap="round" stroke-linejoin="round"/>
<path d="M23.3262 4.80908C24.5451 5.12118 25.6255 5.83008 26.397 6.82402C27.1685 7.81797 27.5873 9.04042 27.5873 10.2987C27.5873 11.5569 27.1685 12.7794 26.397 13.7733C25.6255 14.7673 24.5451 15.4762 23.3262 15.7882" stroke="white" stroke-width="2" stroke-linecap="round" stroke-linejoin="round"/>
</svg>
