<svg width="24" height="25" viewBox="0 0 24 25" fill="none" xmlns="http://www.w3.org/2000/svg">
<path fill-rule="evenodd" clip-rule="evenodd" d="M9.08618 3.25C9.08618 2.83579 8.7504 2.5 8.33618 2.5C7.92197 2.5 7.58618 2.83579 7.58618 3.25V4.39723C7.54411 4.40019 7.50264 4.40334 7.46173 4.40668C6.74834 4.46496 6.14472 4.58657 5.59355 4.86741C4.69978 5.32281 3.97312 6.04946 3.51772 6.94323C3.23688 7.49441 3.11527 8.09803 3.05699 8.81142C2.99999 9.50904 2.99999 10.3745 3 11.4667V11.4997V15.3471V15.3801C2.99999 16.4723 2.99999 17.3378 3.05699 18.0354C3.11527 18.7488 3.23688 19.3524 3.51772 19.9036C3.97312 20.7973 4.69978 21.524 5.59355 21.9794C6.14472 22.2602 6.74834 22.3818 7.46173 22.4401C8.15935 22.4971 9.02484 22.4971 10.117 22.4971H10.15H13.8596H13.8926C14.9847 22.4971 15.8502 22.4971 16.5478 22.4401C17.2612 22.3818 17.8648 22.2602 18.416 21.9794C19.3098 21.524 20.0364 20.7973 20.4918 19.9036C20.7727 19.3524 20.8943 18.7488 20.9526 18.0354C21.0096 17.3378 21.0096 16.4723 21.0096 15.3801V15.3471V11.4997V11.4667C21.0096 10.3745 21.0096 9.50904 20.9526 8.81142C20.8943 8.09803 20.7727 7.49441 20.4918 6.94323C20.0364 6.04946 19.3098 5.32281 18.416 4.86741C17.8648 4.58657 17.2612 4.46496 16.5478 4.40668C16.507 4.40334 16.4656 4.4002 16.4236 4.39724V3.25C16.4236 2.83579 16.0878 2.5 15.6736 2.5C15.2594 2.5 14.9236 2.83579 14.9236 3.25V4.35188C14.6042 4.34969 14.2613 4.34969 13.8926 4.34969L13.8596 4.34969H12.7546V3.25C12.7546 2.83579 12.4189 2.5 12.0046 2.5C11.5904 2.5 11.2546 2.83579 11.2546 3.25V4.34969H10.15L10.117 4.34969H10.117H10.117C9.74831 4.34969 9.40546 4.34969 9.08618 4.35188V3.25ZM14.9236 5.85198C14.604 5.84976 14.2514 5.84969 13.8596 5.84969H12.7546V6.94943C12.7546 7.36364 12.4189 7.69943 12.0046 7.69943C11.5904 7.69943 11.2546 7.36364 11.2546 6.94943V5.84969H10.15C9.75823 5.84969 9.40574 5.84976 9.08618 5.85198V6.94943C9.08618 7.36364 8.7504 7.69943 8.33618 7.69943C7.92197 7.69943 7.58618 7.36364 7.58618 6.94943V5.90151L7.58388 5.9017C6.96325 5.9524 6.579 6.04878 6.27453 6.20392C5.663 6.51551 5.16582 7.01269 4.85423 7.62422C4.69909 7.92869 4.60271 8.31294 4.55201 8.93357C4.50058 9.56295 4.5 10.3672 4.5 11.4997V15.3471C4.5 16.4796 4.50058 17.2838 4.55201 17.9132C4.60271 18.5339 4.69909 18.9181 4.85423 19.2226C5.16582 19.8341 5.663 20.3313 6.27453 20.6429C6.579 20.798 6.96325 20.8944 7.58388 20.9451C8.21326 20.9965 9.01752 20.9971 10.15 20.9971H13.8596C14.992 20.9971 15.7963 20.9965 16.4257 20.9451C17.0463 20.8944 17.4305 20.798 17.735 20.6429C18.3465 20.3313 18.8437 19.8341 19.1553 19.2226C19.3105 18.9181 19.4068 18.5339 19.4575 17.9132C19.509 17.2838 19.5096 16.4796 19.5096 15.3471V11.4997C19.5096 10.3672 19.509 9.56295 19.4575 8.93357C19.4068 8.31294 19.3105 7.92869 19.1553 7.62422C18.8437 7.01269 18.3465 6.51551 17.735 6.20392C17.4305 6.04878 17.0463 5.9524 16.4257 5.9017C16.425 5.90164 16.4243 5.90158 16.4236 5.90153V6.94943C16.4236 7.36364 16.0878 7.69943 15.6736 7.69943C15.2594 7.69943 14.9236 7.36364 14.9236 6.94943V5.85198ZM6.66895 10.6489C6.66895 10.2347 7.00473 9.89888 7.41895 9.89888H16.5909C17.0051 9.89888 17.3409 10.2347 17.3409 10.6489C17.3409 11.0631 17.0051 11.3989 16.5909 11.3989H7.41895C7.00473 11.3989 6.66895 11.0631 6.66895 10.6489ZM7.41895 13.5983C7.00473 13.5983 6.66895 13.934 6.66895 14.3483C6.66895 14.7625 7.00473 15.0983 7.41895 15.0983H12.9221C13.3363 15.0983 13.6721 14.7625 13.6721 14.3483C13.6721 13.934 13.3363 13.5983 12.9221 13.5983H7.41895ZM6.66895 18.0477C6.66895 17.6335 7.00473 17.2977 7.41895 17.2977H9.25334C9.66755 17.2977 10.0033 17.6335 10.0033 18.0477C10.0033 18.4619 9.66755 18.7977 9.25334 18.7977H7.41895C7.00473 18.7977 6.66895 18.4619 6.66895 18.0477Z" fill="#636F7E"/>
</svg>
