<svg width="25" height="25" viewBox="0 0 25 25" fill="none" xmlns="http://www.w3.org/2000/svg">
<path fill-rule="evenodd" clip-rule="evenodd" d="M9.86353 3.41016C9.86353 2.99594 9.52774 2.66016 9.11353 2.66016C8.69931 2.66016 8.36353 2.99594 8.36353 3.41016V4.55738C8.32146 4.56035 8.27998 4.56349 8.23908 4.56683C7.52569 4.62512 6.92206 4.74673 6.37089 5.02756C5.47712 5.48296 4.75046 6.20962 4.29506 7.10339C4.01423 7.65456 3.89262 8.25819 3.83433 8.97158C3.77733 9.6692 3.77734 10.5347 3.77734 11.6268V11.6598V15.5073V15.5403C3.77734 16.6324 3.77733 17.4979 3.83433 18.1955C3.89262 18.9089 4.01423 19.5125 4.29506 20.0637C4.75046 20.9575 5.47712 21.6841 6.37089 22.1395C6.92206 22.4204 7.52569 22.542 8.23908 22.6003C8.9367 22.6573 9.80219 22.6573 10.8943 22.6573H10.9273H14.6369H14.6699C15.7621 22.6573 16.6275 22.6573 17.3252 22.6003C18.0386 22.542 18.6422 22.4204 19.1934 22.1395C20.0871 21.6841 20.8138 20.9575 21.2692 20.0637C21.55 19.5125 21.6716 18.9089 21.7299 18.1955C21.7869 17.4979 21.7869 16.6324 21.7869 15.5403V15.5073V11.6598V11.6268C21.7869 10.5347 21.7869 9.6692 21.7299 8.97158C21.6716 8.25819 21.55 7.65457 21.2692 7.10339C20.8138 6.20962 20.0871 5.48296 19.1934 5.02756C18.6422 4.74673 18.0386 4.62512 17.3252 4.56683C17.2838 4.56345 17.2418 4.56027 17.1992 4.55728V3.41016C17.1992 2.99594 16.8634 2.66016 16.4492 2.66016C16.035 2.66016 15.6992 2.99594 15.6992 3.41016V4.51202C15.3804 4.50984 15.038 4.50984 14.6699 4.50985L14.6369 4.50985H13.532V3.41016C13.532 2.99594 13.1962 2.66016 12.782 2.66016C12.3678 2.66016 12.032 2.99594 12.032 3.41016V4.50985H10.9273L10.8943 4.50985H10.8943H10.8943C10.5257 4.50984 10.1828 4.50984 9.86353 4.51203V3.41016ZM15.6992 6.01213C15.3801 6.00992 15.0281 6.00985 14.6369 6.00985H13.532V7.10958C13.532 7.5238 13.1962 7.85958 12.782 7.85958C12.3678 7.85958 12.032 7.5238 12.032 7.10958V6.00985H10.9273C10.5356 6.00985 10.1831 6.00992 9.86353 6.01214V7.10958C9.86353 7.5238 9.52774 7.85958 9.11353 7.85958C8.69931 7.85958 8.36353 7.5238 8.36353 7.10958V6.06166L8.36123 6.06185C7.7406 6.11256 7.35635 6.20894 7.05187 6.36407C6.44035 6.67566 5.94316 7.17285 5.63157 7.78438C5.47644 8.08885 5.38006 8.4731 5.32935 9.09373C5.27793 9.72311 5.27734 10.5274 5.27734 11.6598V15.5073C5.27734 16.6397 5.27793 17.444 5.32935 18.0734C5.38006 18.694 5.47644 19.0783 5.63157 19.3827C5.94316 19.9943 6.44035 20.4914 7.05187 20.803C7.35635 20.9582 7.7406 21.0546 8.36123 21.1053C8.99061 21.1567 9.79486 21.1573 10.9273 21.1573H14.6369C15.7694 21.1573 16.5736 21.1567 17.203 21.1053C17.8236 21.0546 18.2079 20.9582 18.5124 20.803C19.1239 20.4914 19.6211 19.9943 19.9327 19.3827C20.0878 19.0783 20.1842 18.694 20.2349 18.0734C20.2863 17.444 20.2869 16.6397 20.2869 15.5073V11.6598C20.2869 10.5274 20.2863 9.72311 20.2349 9.09373C20.1842 8.4731 20.0878 8.08885 19.9327 7.78438C19.6211 7.17285 19.1239 6.67566 18.5124 6.36407C18.2079 6.20894 17.8236 6.11256 17.203 6.06185C17.2017 6.06175 17.2005 6.06165 17.1992 6.06154V7.10958C17.1992 7.5238 16.8634 7.85958 16.4492 7.85958C16.035 7.85958 15.6992 7.5238 15.6992 7.10958V6.01213ZM7.44629 10.809C7.44629 10.3948 7.78208 10.059 8.19629 10.059H17.3683C17.7825 10.059 18.1183 10.3948 18.1183 10.809C18.1183 11.2233 17.7825 11.559 17.3683 11.559H8.19629C7.78208 11.559 7.44629 11.2233 7.44629 10.809ZM8.19629 13.7584C7.78208 13.7584 7.44629 14.0942 7.44629 14.5084C7.44629 14.9226 7.78208 15.2584 8.19629 15.2584H13.6995C14.1137 15.2584 14.4495 14.9226 14.4495 14.5084C14.4495 14.0942 14.1137 13.7584 13.6995 13.7584H8.19629ZM7.44629 18.2079C7.44629 17.7936 7.78208 17.4579 8.19629 17.4579H10.0307C10.4449 17.4579 10.7807 17.7936 10.7807 18.2079C10.7807 18.6221 10.4449 18.9579 10.0307 18.9579H8.19629C7.78208 18.9579 7.44629 18.6221 7.44629 18.2079Z" fill="#636F7E"/>
</svg>
