<svg width="25" height="25" viewBox="0 0 25 25" fill="none" xmlns="http://www.w3.org/2000/svg">
<path fill-rule="evenodd" clip-rule="evenodd" d="M12.5315 5.46137C12.7366 5.39309 12.9583 5.39309 13.1633 5.46137C13.2164 5.47902 13.3164 5.52566 13.5287 5.71214C13.7495 5.90611 14.0177 6.18304 14.431 6.61167L17.6716 9.97193V15.122C17.6716 15.9785 17.6708 16.5608 17.634 17.0109C17.5982 17.4493 17.5333 17.6735 17.4536 17.8299C17.2618 18.2063 16.9559 18.5122 16.5795 18.704C16.4231 18.7837 16.1989 18.8486 15.7605 18.8844C15.3104 18.9212 14.7281 18.922 13.8716 18.922H11.8234C10.9669 18.922 10.3846 18.9212 9.93447 18.8844C9.49606 18.8486 9.27186 18.7837 9.11546 18.704C8.73913 18.5122 8.43317 18.2063 8.24142 17.8299C8.16173 17.6735 8.09681 17.4493 8.06099 17.0109C8.02422 16.5608 8.02344 15.9785 8.02344 15.122V9.97179L11.2638 6.61167C11.6772 6.18304 11.9454 5.90612 12.1662 5.71214C12.3784 5.52566 12.4785 5.47902 12.5315 5.46137ZM6.02344 12.0457L5.24716 12.8506C4.86378 13.2482 4.23072 13.2597 3.83318 12.8763C3.43563 12.4929 3.42415 11.8598 3.80753 11.4623L9.82422 5.22334L9.85155 5.195C10.2299 4.80264 10.5556 4.4649 10.8461 4.20963C11.1522 3.94075 11.4862 3.70146 11.8997 3.56379C12.5149 3.35895 13.1799 3.35895 13.7952 3.56379C14.2086 3.70146 14.5427 3.94075 14.8487 4.20963C15.1393 4.4649 15.465 4.80263 15.8433 5.19499L15.8433 5.19499L15.8706 5.22334L21.8873 11.4623C22.2707 11.8598 22.2592 12.4929 21.8617 12.8763C21.4642 13.2597 20.8311 13.2482 20.4477 12.8506L19.6716 12.0458V15.122V15.1632C19.6716 15.9682 19.6716 16.6326 19.6274 17.1738C19.5814 17.7359 19.4829 18.2526 19.2356 18.7379C18.8521 19.4906 18.2402 20.1025 17.4875 20.486C17.0022 20.7333 16.4855 20.8318 15.9234 20.8778C15.3822 20.922 14.7178 20.922 13.9129 20.922H13.9128H13.8716H11.8234H11.7822H11.7821C10.9772 20.922 10.3128 20.922 9.77161 20.8778C9.20951 20.8318 8.69281 20.7333 8.20748 20.486C7.45483 20.1025 6.84291 19.4906 6.45941 18.7379C6.21212 18.2526 6.11356 17.7359 6.06763 17.1738C6.02341 16.6326 6.02342 15.9682 6.02344 15.1633L6.02344 15.122V12.0457Z" fill="#676E86"/>
</svg>
