<svg width="31" height="31" viewBox="0 0 31 31" fill="none" xmlns="http://www.w3.org/2000/svg">
<circle cx="15.875" cy="15.8438" r="15" fill="#E1E5F1"/>
<path d="M15.5214 21.9785L15.875 22.332L16.2286 21.9785L19.4218 18.7852C21.5702 18.9863 23.25 20.7807 23.25 22.9749V23.3124C23.25 23.9679 22.718 24.4999 22.0625 24.4999H9.6875C9.032 24.4999 8.5 23.9679 8.5 23.3124V22.9749C8.5 20.7807 10.1798 18.9863 12.3282 18.7852L15.5214 21.9785ZM9.66398 9.57592L9.20312 9.46489V9.46174L8.81722 9.3713L8.5947 9.31914C8.53614 9.30461 8.51588 9.28249 8.51046 9.27572C8.50339 9.2669 8.50088 9.25813 8.50088 9.2499C8.50088 9.24167 8.50339 9.23291 8.51046 9.22408C8.51591 9.21727 8.5364 9.19491 8.59584 9.18038C8.59597 9.18035 8.5961 9.18032 8.59623 9.18028L15.2949 7.56712C15.2951 7.56708 15.2952 7.56704 15.2954 7.567C15.6758 7.47638 16.0775 7.47636 16.458 7.56697C16.4582 7.56702 16.4584 7.56707 16.4586 7.56712L23.1509 9.18395C23.1509 9.18395 23.1509 9.18396 23.1509 9.18397C23.2126 9.19888 23.2339 9.22195 23.2394 9.22873C23.2463 9.23733 23.2482 9.24509 23.2482 9.25166C23.2482 9.25823 23.2463 9.26599 23.2394 9.27459C23.2339 9.28138 23.2126 9.30446 23.1509 9.31937L19.7657 10.1349L19.1515 10.2829L19.4366 10.8467C19.7115 11.3902 19.875 11.9884 19.875 12.6249C19.875 14.8343 18.0844 16.6249 15.875 16.6249C13.6656 16.6249 11.875 14.8343 11.875 12.6249C11.875 11.9898 12.0412 11.391 12.3144 10.8446L12.5956 10.2822L11.9843 10.1349L9.66398 9.57592ZM8.96037 12.34L9.125 12.2412L9.28963 12.34C9.41012 12.4123 9.46875 12.5185 9.46875 12.6249C9.46875 12.7244 9.4163 12.8253 9.30265 12.9005L9.125 13.018L8.94735 12.9005C8.8337 12.8253 8.78125 12.7244 8.78125 12.6249C8.78125 12.5185 8.83988 12.4123 8.96037 12.34ZM8.64044 15.4999L9.125 13.5648L9.60956 15.4999H8.64044Z" stroke="black"/>
<path d="M22.625 9.15625L16.125 11.1562L9.125 9.15625" stroke="black"/>
</svg>
