<svg width="51" height="51" viewBox="0 0 51 51" fill="none" xmlns="http://www.w3.org/2000/svg">
<g clip-path="url(#clip0)">
<path d="M47.8269 44.1368L40.8406 44.5441L36.9873 50.4025L28.8418 36.9627C28.9986 36.8688 29.1239 36.7747 29.2804 36.6495C30.5963 37.0254 31.8493 37.0254 33.0085 36.5554C34.1363 36.0856 35.0135 35.177 35.6715 33.9865C37.0499 33.8298 38.2402 33.3599 39.0862 32.4828C39.4621 32.1069 39.7755 31.6996 39.9948 31.1982L47.8269 44.1368Z" fill="#FFCE33"/>
<path d="M22.7644 36.9628L14.6189 50.4026L10.7656 44.5441L3.7793 44.1369L11.6114 31.1982C11.8307 31.6996 12.1441 32.1069 12.52 32.4828C13.366 33.3599 14.5563 33.8299 15.9347 33.9865C16.5927 35.1769 17.47 36.0856 18.5977 36.5554C19.7569 37.0254 21.0099 37.0254 22.3258 36.6495C22.4823 36.7749 22.6077 36.8689 22.7644 36.9628Z" fill="#FFCE33"/>
<path d="M43.2547 22.6768C43.6307 23.9925 43.6307 25.2458 43.1607 26.4049C42.6908 27.5327 41.7822 28.4099 40.5917 29.0677C40.4979 29.8509 40.3099 30.5716 39.9967 31.198C39.7774 31.6994 39.464 32.1067 39.0881 32.4826C38.2421 33.3597 37.0518 33.8297 35.6734 33.9863C35.0154 35.1768 34.1381 36.0854 33.0104 36.5552C31.8512 37.0252 30.5982 37.0252 29.2823 36.6493C29.1256 36.7745 29.0004 36.8686 28.8437 36.9625C27.9037 37.6518 26.87 37.9964 25.8047 37.9964C24.7395 37.9964 23.7058 37.6518 22.766 36.9625C22.6092 36.8686 22.4839 36.7745 22.3274 36.6493C21.0115 37.0252 19.7585 37.0252 18.5993 36.5552C17.4715 36.0854 16.5943 35.1768 15.9363 33.9863C14.5579 33.8296 13.3676 33.3597 12.5216 32.4826C12.1457 32.1067 11.8323 31.6994 11.613 31.198C11.2998 30.5717 11.1118 29.8509 11.0179 29.0677C9.82746 28.4099 8.91884 27.5326 8.44902 26.4049C7.97899 25.2458 7.97899 23.9925 8.35493 22.6768C7.47784 21.6116 7.00781 20.4213 7.00781 19.1994C7.00781 17.9775 7.47784 16.787 8.35493 15.7219C7.97899 14.406 7.97899 13.153 8.44902 11.9938C8.91884 10.8659 9.82746 9.98883 11.0179 9.33084C11.1746 7.95239 11.6443 6.76191 12.5216 5.91614C13.3676 5.03885 14.5579 4.56882 15.9363 4.41228C16.5943 3.2218 17.4716 2.31338 18.5993 1.84335C19.7585 1.37352 21.0115 1.37352 22.3274 1.74946C23.3925 0.872172 24.5829 0.402344 25.8047 0.402344C27.0265 0.402344 28.2171 0.872172 29.2822 1.74946C30.5981 1.37352 31.8511 1.37352 33.0103 1.84335C34.1381 2.31338 35.0153 3.2218 35.6733 4.41228C37.0517 4.56892 38.242 5.03885 39.088 5.91614C39.9653 6.76191 40.4351 7.95239 40.5916 9.33084C41.7821 9.98883 42.6907 10.8659 43.1606 11.9938C43.6306 13.153 43.6306 14.406 43.2547 15.7219C44.1317 16.787 44.6018 17.9775 44.6018 19.1994C44.6018 20.4213 44.1318 21.6116 43.2547 22.6768Z" fill="#FFFA50"/>
<path d="M25.8028 31.7317C32.7237 31.7317 38.3342 26.1212 38.3342 19.2003C38.3342 12.2794 32.7237 6.66895 25.8028 6.66895C18.882 6.66895 13.2715 12.2794 13.2715 19.2003C13.2715 26.1212 18.882 31.7317 25.8028 31.7317Z" fill="#FFCE33"/>
<path d="M28.8053 20.1749L31.7617 17.2631L27.6584 16.645L25.8027 12.9336L23.947 16.645L19.8438 17.2631L22.8001 20.1749L22.1198 24.2683L25.8027 22.3564L29.4857 24.2683L28.8053 20.1749Z" fill="#FFFA50"/>
<path d="M39.9943 31.1983C39.775 31.6996 39.4616 32.1069 39.0857 32.4828C38.2397 33.3599 37.0495 33.8299 35.671 33.9865C35.013 35.177 34.1357 36.0856 33.008 36.5554C31.8488 37.0255 30.5958 37.0255 29.2799 36.6495C29.1233 36.7747 28.9981 36.8688 28.8413 36.9627L28.2148 35.8975L39.0544 29.6318L39.9943 31.1983Z" fill="#FFA65C"/>
<path d="M23.3907 35.8984L22.7643 36.9637C22.6075 36.8698 22.4823 36.7757 22.3257 36.6505C21.0098 37.0264 19.7568 37.0264 18.5977 36.5564C17.4698 36.0866 16.5926 35.178 15.9346 33.9875C14.5562 33.8308 13.3659 33.3609 12.5199 32.4838C12.144 32.1079 11.8306 31.7006 11.6113 31.1992L12.5514 29.6328L23.3907 35.8984Z" fill="#FFA65C"/>
</g>
<defs>
<clipPath id="clip0">
<rect width="50" height="50" fill="white" transform="translate(0.800781 0.402344)"/>
</clipPath>
</defs>
</svg>
