<svg width="25" height="25" viewBox="0 0 25 25" fill="none" xmlns="http://www.w3.org/2000/svg">
<path fill-rule="evenodd" clip-rule="evenodd" d="M11.774 4.99446C11.6227 5.20462 11.5625 5.48685 11.5625 5.66016V6.66016H9.5625V5.66016C9.5625 5.1668 9.70228 4.44902 10.151 3.82585C10.6364 3.15169 11.4366 2.66016 12.5625 2.66016C13.6884 2.66016 14.4886 3.15169 14.974 3.82585C15.4227 4.44902 15.5625 5.1668 15.5625 5.66016V6.66016H13.5625V5.66016C13.5625 5.48685 13.5023 5.20462 13.351 4.99446C13.2364 4.83529 13.0366 4.66016 12.5625 4.66016C12.0884 4.66016 11.8886 4.83529 11.774 4.99446Z" fill="#676E86"/>
<path fill-rule="evenodd" clip-rule="evenodd" d="M8.5625 16.6602C8.5625 16.1079 9.01022 15.6602 9.5625 15.6602H11.5625C12.1148 15.6602 12.5625 16.1079 12.5625 16.6602C12.5625 17.2124 12.1148 17.6602 11.5625 17.6602H9.5625C9.01022 17.6602 8.5625 17.2124 8.5625 16.6602Z" fill="#676E86"/>
<path fill-rule="evenodd" clip-rule="evenodd" d="M8.5625 13.6602C8.5625 13.1079 9.01022 12.6602 9.5625 12.6602H15.5625C16.1148 12.6602 16.5625 13.1079 16.5625 13.6602C16.5625 14.2124 16.1148 14.6602 15.5625 14.6602H9.5625C9.01022 14.6602 8.5625 14.2124 8.5625 13.6602Z" fill="#676E86"/>
<path fill-rule="evenodd" clip-rule="evenodd" d="M8.5625 10.6602C8.5625 10.1079 9.01022 9.66016 9.5625 9.66016H15.5625C16.1148 9.66016 16.5625 10.1079 16.5625 10.6602C16.5625 11.2124 16.1148 11.6602 15.5625 11.6602H9.5625C9.01022 11.6602 8.5625 11.2124 8.5625 10.6602Z" fill="#676E86"/>
<path fill-rule="evenodd" clip-rule="evenodd" d="M4.5625 8.66016C4.5625 7.0033 5.90565 5.66016 7.5625 5.66016H17.5625C19.2194 5.66016 20.5625 7.0033 20.5625 8.66016V19.6602C20.5625 21.317 19.2194 22.6602 17.5625 22.6602H7.5625C5.90565 22.6602 4.5625 21.317 4.5625 19.6602V8.66016ZM7.5625 7.66016C7.01022 7.66016 6.5625 8.10787 6.5625 8.66016V19.6602C6.5625 20.2124 7.01022 20.6602 7.5625 20.6602H17.5625C18.1148 20.6602 18.5625 20.2124 18.5625 19.6602V8.66016C18.5625 8.10787 18.1148 7.66016 17.5625 7.66016H7.5625Z" fill="#676E86"/>
</svg>
