<svg width="286" height="196" viewBox="0 0 286 196" fill="none" xmlns="http://www.w3.org/2000/svg">
<path d="M198.559 190.648H89.6584V34.116H210.523V180.452C210.523 186.083 205.166 190.648 198.559 190.648Z" fill="#F7F7F7"/>
<path d="M210.294 34.116H89.6301V41.3828H210.294V34.116Z" fill="#474EBB"/>
<path d="M180.045 120.202C181.672 120.202 181.672 118.363 180.045 118.363H119.48C117.852 118.363 117.852 120.202 119.48 120.202H180.045Z" fill="#F7F7F7"/>
<path d="M147.331 46.4224C142.725 46.4175 138.172 47.4047 133.982 49.3168C129.792 51.2288 126.064 54.0208 123.052 57.5024L147.331 78.5183L171.61 57.5024C168.599 54.0206 164.871 51.2284 160.681 49.3164C156.491 47.4043 151.938 46.4172 147.331 46.4224V46.4224Z" fill="#EED5D5"/>
<path d="M181.443 73.8142L149.646 78.39V110.475C154.252 110.477 158.804 109.49 162.994 107.579C167.184 105.669 170.914 102.88 173.93 99.4028C176.946 95.9254 179.178 91.8405 180.474 87.4254C181.771 83.0102 182.101 78.3682 181.443 73.8142V73.8142Z" fill="#5D66D3"/>
<path d="M123.088 57.6072C120.119 61.1246 117.943 65.2383 116.706 69.6696C115.469 74.1009 115.2 78.7461 115.917 83.2903C116.635 87.8345 118.322 92.1716 120.864 96.0074C123.406 99.8432 126.744 103.088 130.652 105.522L147.652 78.2854L123.088 57.6072Z" fill="#DDDAE8"/>
<path d="M147.606 110.429C141.447 110.436 135.416 108.666 130.24 105.331L147.611 78.3354L147.606 110.429Z" fill="#8CABEF"/>
<path d="M183.077 72.0473C182.21 65.9551 179.599 60.243 175.558 55.5984L151.279 76.6144L183.077 72.0473Z" fill="#3B3387"/>
<path d="M115.672 155.218H103.869V183.616H115.672V155.218Z" fill="#D67086"/>
<path d="M115.672 144.22H103.869V157.564H115.672V144.22Z" fill="#EED5D5"/>
<path d="M193.366 156.499H181.563V184.897H193.366V156.499Z" fill="#D67086"/>
<path d="M193.442 132.531H181.563V158.846H193.442V132.531Z" fill="#EED5D5"/>
<path d="M167.468 154.257H155.666V184.257H167.468V154.257Z" fill="#D67086"/>
<path d="M167.468 151.588H155.666V171.499H167.468V151.588Z" fill="#EED5D5"/>
<path d="M141.569 143.807H129.766V184.093H141.569V143.807Z" fill="#D67086"/>
<path d="M141.569 128.208H129.766V160.432H141.569V128.208Z" fill="#EED5D5"/>
<path d="M94.241 39.8052C93.9337 39.8056 93.6333 39.715 93.3776 39.5448C93.1219 39.3746 92.9225 39.1325 92.8046 38.849C92.6868 38.5656 92.6557 38.2536 92.7154 37.9525C92.775 37.6514 92.9228 37.3747 93.1399 37.1576C93.357 36.9404 93.6337 36.7924 93.935 36.7324C94.2363 36.6723 94.5487 36.7029 94.8326 36.8203C95.1165 36.9376 95.3592 37.1365 95.5299 37.3917C95.7007 37.6468 95.7918 37.9469 95.7918 38.2538C95.7918 38.6649 95.6285 39.0592 95.3377 39.35C95.0469 39.6409 94.6525 39.8046 94.241 39.8052V39.8052ZM94.241 36.9726C93.9852 36.9726 93.7351 37.0484 93.5224 37.1903C93.3097 37.3323 93.1439 37.5341 93.046 37.7702C92.9481 38.0063 92.9225 38.2661 92.9724 38.5168C93.0223 38.7674 93.1455 38.9977 93.3264 39.1784C93.5073 39.3591 93.7377 39.4821 93.9886 39.532C94.2395 39.5818 94.4996 39.5563 94.7359 39.4585C94.9723 39.3607 95.1743 39.195 95.3164 38.9826C95.4586 38.7701 95.5344 38.5203 95.5344 38.2647C95.5356 38.0942 95.503 37.9251 95.4385 37.7672C95.3741 37.6093 95.279 37.4657 95.1588 37.3446C95.0386 37.2235 94.8957 37.1274 94.7381 37.0617C94.5806 36.9959 94.4117 36.962 94.241 36.9617V36.9726Z" fill="white"/>
<path d="M99.0269 39.8052C98.7196 39.8056 98.4192 39.715 98.1635 39.5448C97.9078 39.3746 97.7084 39.1325 97.5905 38.849C97.4727 38.5656 97.4416 38.2536 97.5013 37.9525C97.5609 37.6514 97.7087 37.3747 97.9258 37.1576C98.1429 36.9404 98.4196 36.7924 98.7209 36.7324C99.0222 36.6723 99.3346 36.7029 99.6185 36.8203C99.9024 36.9376 100.145 37.1365 100.316 37.3917C100.487 37.6468 100.578 37.9469 100.578 38.2538C100.578 38.6649 100.414 39.0592 100.124 39.35C99.8328 39.6409 99.4384 39.8046 99.0269 39.8052V39.8052ZM99.0269 36.9726C98.771 36.9722 98.5207 37.0476 98.3077 37.1893C98.0947 37.331 97.9286 37.5326 97.8303 37.7687C97.7321 38.0048 97.7062 38.2647 97.7558 38.5154C97.8055 38.7662 97.9285 38.9967 98.1093 39.1776C98.2901 39.3585 98.5206 39.4818 98.7715 39.5318C99.0225 39.5819 99.2827 39.5564 99.5192 39.4587C99.7556 39.3609 99.9578 39.1953 100.1 38.9828C100.242 38.7702 100.318 38.5203 100.318 38.2647C100.319 38.0944 100.287 37.9255 100.222 37.7677C100.158 37.61 100.063 37.4665 99.9433 37.3454C99.8233 37.2243 99.6806 37.1281 99.5234 37.0623C99.3661 36.9964 99.1974 36.9623 99.0269 36.9617V36.9726Z" fill="white"/>
<path d="M103.81 39.8052C103.503 39.8052 103.203 39.7142 102.947 39.5438C102.692 39.3733 102.493 39.131 102.375 38.8475C102.258 38.564 102.227 38.2521 102.287 37.9511C102.347 37.6502 102.495 37.3738 102.712 37.1568C102.929 36.9398 103.206 36.7921 103.507 36.7322C103.808 36.6723 104.121 36.7031 104.404 36.8205C104.688 36.9379 104.931 37.1368 105.101 37.3919C105.272 37.647 105.363 37.947 105.363 38.2538C105.363 38.6653 105.199 39.0599 104.908 39.3508C104.617 39.6418 104.222 39.8052 103.81 39.8052V39.8052ZM103.81 36.9726C103.554 36.9726 103.304 37.0484 103.091 37.1903C102.879 37.3323 102.713 37.5341 102.615 37.7702C102.517 38.0063 102.492 38.2661 102.542 38.5168C102.591 38.7674 102.715 38.9977 102.895 39.1784C103.076 39.3591 103.307 39.4821 103.558 39.532C103.809 39.5818 104.069 39.5563 104.305 39.4585C104.541 39.3607 104.743 39.195 104.886 38.9826C105.028 38.7701 105.104 38.5203 105.104 38.2647C105.105 38.0941 105.073 37.9249 105.008 37.7669C104.944 37.6089 104.849 37.4651 104.729 37.344C104.608 37.2228 104.465 37.1267 104.308 37.0611C104.15 36.9955 103.981 36.9617 103.81 36.9617V36.9726Z" fill="white"/>
<path opacity="0.07" d="M92.9042 195.212H15.8708V76.3438H100.065V188.059C100.066 188.998 99.8808 189.929 99.5211 190.797C99.1615 191.665 98.634 192.454 97.969 193.118C97.3039 193.783 96.5143 194.31 95.6452 194.669C94.7762 195.028 93.8447 195.213 92.9042 195.212Z" fill="#2E4661"/>
<path d="M86.6026 191.881H6.31055V67.3513H97.0265V181.467C97.0265 184.229 95.9283 186.878 93.9734 188.831C92.0186 190.784 89.3672 191.881 86.6026 191.881Z" fill="#8CABEF"/>
<path d="M89.375 77.2939H15.9341V123.688H89.375V77.2939Z" fill="white"/>
<path d="M62.4569 93.3833C62.7623 93.9978 63.288 94.5229 64.2869 94.8955C66.1475 95.5884 68.6493 95.0872 69.7181 93.5315C71.5111 90.932 71.0072 87.2125 72.9354 84.5084C73.7657 83.3556 74.9605 82.5159 76.3271 82.1246C77.7508 81.7075 79.2805 81.8526 80.6001 82.5299C82.6395 83.6521 83.3441 85.9705 83.3637 88.0754C83.4029 92.1173 82.8358 96.2944 82.1073 100.278C81.7561 102.208 81.213 104.2 79.8127 105.725C77.9129 107.793 74.7959 108.653 71.7968 109.113C64.2302 110.279 56.4717 109.566 48.8332 108.852L30.3999 107.126C28.668 106.963 23.5684 107.224 22.5323 106.026C21.4962 104.827 22.3142 100.888 22.9075 99.663C24.2162 96.9372 27.8326 95.3988 31.2178 95.571C38.852 95.961 35.8354 87.9947 38.2784 84.2121C39.5871 82.2031 42.4379 80.7584 44.9005 81.5973C47.2496 82.3948 48.229 84.7503 49.3872 86.7048C49.987 87.7202 50.842 88.7726 52.1268 88.9905C54.308 89.3653 56.1314 87.1471 58.3563 87.2321C59.665 87.2822 60.7927 88.1691 61.3598 89.2084C62.1254 90.6226 61.8549 92.1718 62.4569 93.3833Z" fill="#F7F7F7"/>
<path d="M84.5742 121.169C84.5742 121.169 84.5873 117.831 84.5873 117.648C84.6048 112.664 84.6128 107.681 84.6113 102.698C84.6113 97.9374 85.0105 93.1785 84.9319 88.4284C84.8992 86.232 83.9482 85.0837 81.6318 85.672C79.3296 86.26 77.2885 87.596 75.8298 89.47C74.8592 90.7338 74.0499 92.3157 72.5384 92.8255C69.8359 93.7342 67.6263 90.6945 65.1986 89.1998C62.5812 87.5873 58.9495 87.8597 56.6047 89.8404C53.7692 92.2372 53.1148 96.3772 50.7155 99.2099C48.0762 102.324 43.2841 103.378 39.5805 101.659C38.0536 100.953 36.7449 99.8527 35.2508 99.1009C29.3027 96.1223 21.0338 100.408 20.0479 106.982V120.581C20.0479 120.581 84.6942 121.289 84.5742 121.169Z" fill="#EED5D5"/>
<path d="M22.6544 130.761H17.1338V136.276H22.6544V130.761Z" fill="#8CABEF"/>
<path d="M22.6544 138.913H17.1338V144.428H22.6544V138.913Z" fill="#5D66D3"/>
<path d="M43.2927 132.439H27.2129V134.117H43.2927V132.439Z" fill="#F7F7F7"/>
<path d="M43.0529 141.31H26.9731V142.987H43.0529V141.31Z" fill="#F7F7F7"/>
<path d="M87.9354 153.83H17.8535V155.643H87.9354V153.83Z" fill="#F7F7F7"/>
<path d="M49.0534 159.096H17.8535V183.941H49.0534V159.096Z" fill="#F7F7F7"/>
<path d="M87.9352 159.336H53.854V170.155H87.9352V159.336Z" fill="#F7F7F7"/>
<path d="M87.5756 173.002H53.4944V183.821H87.5756V173.002Z" fill="#F7F7F7"/>
<path d="M57.7388 15.8848H0.399539C0.288821 15.8899 0.184638 15.9386 0.109819 16.0203C0.034999 16.102 -0.00435245 16.2099 0.000382796 16.3206V46.6668C0.000382796 54.1494 5.57116 60.2134 12.4441 60.2134H36.2191L45.9407 73.8449C45.9972 73.9246 46.0774 73.9843 46.1699 74.0156C46.2624 74.0468 46.3625 74.048 46.4557 74.019C46.549 73.99 46.6306 73.9322 46.6889 73.8539C46.7473 73.7757 46.7793 73.681 46.7805 73.5835L46.9812 60.2221H57.7388C57.8496 60.217 57.9537 60.1683 58.0286 60.0866C58.1034 60.0049 58.1427 59.8969 58.138 59.7863V16.3206C58.1427 16.2099 58.1034 16.102 58.0286 16.0203C57.9537 15.9386 57.8496 15.8899 57.7388 15.8848V15.8848Z" fill="#5D66D3"/>
<path d="M43.2249 23.1384H7.50781V24.6245H43.2249V23.1384Z" fill="#F7F7F7"/>
<path d="M50.1066 34.4756H7.50781V35.9616H50.1066V34.4756Z" fill="#F7F7F7"/>
<path d="M50.1066 45.8103H7.50781V47.2963H50.1066V45.8103Z" fill="#F7F7F7"/>
<path d="M95.0438 30.1153H52.5105V0H92.3391L100.87 8.9969V23.8966C100.87 27.3306 98.2611 30.1153 95.0438 30.1153Z" fill="#353A85"/>
<path d="M100.9 9.0688L92.3369 9.28452V0L100.9 9.0688Z" fill="#474EBB"/>
<path d="M91.3094 7.81567H64.1775V9.10561H91.3094V7.81567Z" fill="#F7F7F7"/>
<path d="M91.3097 14.0522H59.8809V15.3422H91.3097V14.0522Z" fill="#F7F7F7"/>
<path d="M91.3097 20.2903H59.8809V21.5802H91.3097V20.2903Z" fill="#F7F7F7"/>
<path d="M180.706 90.4047C180.627 90.4049 180.551 90.3762 180.491 90.324C180.432 90.2719 180.393 90.1999 180.383 90.1215C180.322 89.6857 180.283 89.2325 180.263 88.7879C180.26 88.7013 180.291 88.6167 180.35 88.553C180.409 88.4892 180.491 88.4515 180.578 88.448C180.664 88.4445 180.749 88.4757 180.813 88.5345C180.877 88.5933 180.914 88.6751 180.918 88.7618C180.935 89.1845 180.972 89.6138 181.031 90.0321C181.043 90.1182 181.02 90.2054 180.968 90.2748C180.916 90.3442 180.838 90.3901 180.752 90.4026L180.706 90.4047Z" fill="#F7F7F7"/>
<path d="M180.739 86.4935H180.689C180.646 86.4871 180.605 86.4724 180.568 86.4502C180.531 86.428 180.499 86.3987 180.474 86.3641C180.448 86.3295 180.43 86.2902 180.419 86.2485C180.409 86.2067 180.407 86.1634 180.414 86.1209C180.549 85.2437 180.76 84.3798 181.044 83.5388C181.073 83.4564 181.133 83.389 181.212 83.3512C181.291 83.3134 181.381 83.3084 181.464 83.3372C181.546 83.3661 181.614 83.4266 181.652 83.5052C181.69 83.5839 181.695 83.6743 181.666 83.7567C181.393 84.5612 181.19 85.388 181.061 86.2276C181.048 86.3028 181.008 86.3707 180.949 86.4193C180.89 86.468 180.815 86.4942 180.739 86.4935V86.4935ZM182.375 81.5712C182.322 81.5713 182.271 81.5594 182.224 81.5363C182.148 81.4964 182.091 81.4284 182.065 81.3469C182.039 81.2654 182.046 81.177 182.084 81.1005C182.49 80.3161 182.947 79.5591 183.452 78.8344C183.504 78.7709 183.578 78.7292 183.66 78.7177C183.741 78.7062 183.824 78.7257 183.891 78.7724C183.959 78.8191 184.007 78.8895 184.025 78.9697C184.043 79.0498 184.03 79.1337 183.989 79.2049C183.501 79.9077 183.059 80.6405 182.665 81.3991C182.637 81.4517 182.595 81.4956 182.544 81.526C182.493 81.5564 182.434 81.572 182.375 81.5712V81.5712ZM185.324 77.2896C185.243 77.2911 185.165 77.2623 185.105 77.2089C185.073 77.1808 185.046 77.1465 185.027 77.108C185.008 77.0696 184.996 77.0277 184.993 76.9848C184.99 76.9418 184.995 76.8987 185.009 76.8579C185.023 76.8171 185.044 76.7794 185.073 76.747C185.64 76.0933 186.255 75.4614 186.905 74.8491C186.936 74.8186 186.973 74.7945 187.013 74.7784C187.054 74.7623 187.097 74.7543 187.14 74.7551C187.184 74.7559 187.227 74.7653 187.267 74.7829C187.307 74.8005 187.342 74.8258 187.372 74.8574C187.402 74.889 187.426 74.9263 187.441 74.967C187.456 75.0078 187.463 75.0511 187.462 75.0946C187.46 75.1381 187.449 75.1808 187.431 75.2202C187.413 75.2596 187.387 75.2949 187.354 75.3241C186.72 75.9212 186.117 76.5444 185.566 77.1762C185.536 77.2112 185.499 77.2394 185.457 77.2589C185.415 77.2785 185.37 77.2889 185.324 77.2896V77.2896ZM189.112 73.7161C189.063 73.7162 189.013 73.7049 188.969 73.683C188.924 73.6611 188.885 73.6291 188.855 73.5897C188.802 73.5217 188.777 73.4354 188.788 73.3497C188.798 73.2639 188.842 73.1857 188.909 73.1321C189.594 72.5939 190.316 72.0775 191.051 71.5959C191.087 71.5707 191.128 71.553 191.171 71.5438C191.214 71.5346 191.258 71.5341 191.301 71.5424C191.344 71.5507 191.385 71.5675 191.422 71.5919C191.458 71.6164 191.489 71.6479 191.513 71.6846C191.537 71.7213 191.554 71.7625 191.562 71.8056C191.569 71.8488 191.568 71.8931 191.559 71.9358C191.549 71.9786 191.531 72.019 191.505 72.0545C191.479 72.0901 191.447 72.1201 191.409 72.1429C190.689 72.6135 189.985 73.119 189.313 73.6463C189.256 73.6911 189.185 73.7156 189.112 73.7161V73.7161ZM193.475 70.8595C193.416 70.8589 193.358 70.843 193.308 70.8131C193.257 70.7833 193.216 70.7406 193.187 70.6895C193.148 70.6141 193.139 70.5265 193.164 70.4451C193.188 70.3638 193.243 70.2951 193.318 70.2537C194.077 69.8375 194.864 69.4344 195.656 69.0596C195.695 69.0412 195.737 69.0306 195.78 69.0283C195.823 69.0261 195.866 69.0324 195.906 69.0467C195.947 69.0611 195.984 69.0833 196.016 69.1121C196.048 69.1408 196.074 69.1756 196.092 69.2144C196.111 69.2531 196.121 69.2952 196.123 69.338C196.126 69.3809 196.119 69.4238 196.105 69.4643C196.091 69.5048 196.068 69.542 196.04 69.5739C196.011 69.6058 195.976 69.6317 195.937 69.6501C195.156 70.0206 194.38 70.415 193.632 70.8268C193.582 70.8516 193.526 70.8629 193.47 70.8595H193.475ZM198.18 68.6151C198.104 68.6149 198.03 68.5884 197.972 68.5402C197.913 68.4919 197.874 68.4248 197.859 68.3505C197.845 68.2761 197.857 68.199 197.893 68.1325C197.929 68.0659 197.987 68.0139 198.057 67.9854C198.856 67.6608 199.685 67.3514 200.516 67.0659C200.556 67.0516 200.599 67.0454 200.642 67.0478C200.685 67.0501 200.728 67.0609 200.767 67.0795C200.805 67.0981 200.84 67.1242 200.869 67.1563C200.898 67.1883 200.92 67.2257 200.934 67.2664C200.949 67.307 200.955 67.3501 200.953 67.3931C200.95 67.4361 200.939 67.4782 200.921 67.5171C200.902 67.5559 200.876 67.5907 200.844 67.6195C200.812 67.6483 200.774 67.6704 200.734 67.6847C199.911 67.9658 199.096 68.2709 198.308 68.5912C198.267 68.6081 198.224 68.6163 198.18 68.6151ZM203.109 66.9199C203.03 66.9194 202.955 66.8907 202.896 66.8389C202.836 66.7872 202.798 66.716 202.787 66.6382C202.776 66.5605 202.794 66.4814 202.836 66.4155C202.879 66.3496 202.944 66.3013 203.02 66.2793C203.846 66.0418 204.699 65.8174 205.556 65.6256C205.598 65.6157 205.641 65.6142 205.684 65.6211C205.726 65.6279 205.767 65.6431 205.804 65.6656C205.84 65.6882 205.872 65.7177 205.897 65.7526C205.922 65.7874 205.94 65.8268 205.95 65.8686C205.96 65.9103 205.961 65.9537 205.955 65.996C205.948 66.0384 205.933 66.079 205.91 66.1155C205.887 66.1521 205.858 66.1838 205.823 66.2089C205.788 66.234 205.749 66.252 205.707 66.2619C204.861 66.4602 204.016 66.6802 203.198 66.9156C203.169 66.9243 203.139 66.9287 203.109 66.9286V66.9199ZM244.824 66.0004H244.56C244.474 66.0004 244.39 65.966 244.329 65.9047C244.268 65.8434 244.233 65.7602 244.233 65.6736C244.233 65.5869 244.268 65.5037 244.329 65.4424C244.39 65.3811 244.474 65.3467 244.56 65.3467H244.82C245.629 65.3467 246.41 65.3184 247.139 65.2617C247.182 65.2584 247.225 65.2636 247.266 65.277C247.307 65.2904 247.345 65.3117 247.377 65.3397C247.41 65.3678 247.437 65.4019 247.456 65.4403C247.476 65.4787 247.488 65.5206 247.491 65.5635C247.494 65.6064 247.489 65.6496 247.476 65.6905C247.462 65.7314 247.441 65.7693 247.413 65.802C247.385 65.8346 247.351 65.8615 247.312 65.8809C247.274 65.9004 247.232 65.9121 247.189 65.9154C246.447 65.9721 245.651 66.0004 244.824 66.0004ZM241.956 65.9002H241.934C241.156 65.85 240.303 65.7781 239.317 65.6823C239.274 65.6781 239.232 65.6656 239.194 65.6453C239.156 65.625 239.122 65.5975 239.095 65.5642C239.067 65.5309 239.047 65.4926 239.034 65.4513C239.021 65.4101 239.017 65.3667 239.021 65.3238C239.025 65.2809 239.038 65.2392 239.058 65.2012C239.079 65.1631 239.106 65.1294 239.139 65.102C239.173 65.0746 239.211 65.054 239.252 65.0414C239.294 65.0288 239.337 65.0244 239.38 65.0286C240.351 65.1245 241.197 65.1942 241.969 65.2465C242.056 65.2494 242.138 65.2866 242.197 65.3499C242.257 65.4133 242.288 65.4975 242.285 65.5842C242.283 65.6709 242.245 65.7529 242.182 65.8121C242.118 65.8714 242.034 65.9031 241.947 65.9002H241.956ZM208.182 65.7258C208.096 65.7339 208.009 65.7073 207.942 65.6517C207.875 65.5961 207.833 65.5162 207.825 65.4295C207.817 65.3428 207.843 65.2565 207.899 65.1895C207.955 65.1224 208.035 65.0802 208.121 65.0722C208.963 64.9131 209.834 64.7671 210.706 64.6364C210.793 64.6237 210.881 64.6459 210.952 64.6982C211.022 64.7505 211.069 64.8286 211.081 64.9153C211.094 65.002 211.072 65.0901 211.019 65.1604C210.967 65.2307 210.889 65.2773 210.802 65.2901C209.93 65.4164 209.077 65.5602 208.244 65.7258C208.223 65.7287 208.203 65.7294 208.182 65.728V65.7258ZM249.752 65.5733C249.665 65.5814 249.578 65.5547 249.511 65.4992C249.444 65.4436 249.402 65.3637 249.394 65.277C249.386 65.1903 249.413 65.104 249.468 65.0369C249.524 64.9699 249.604 64.9277 249.691 64.9196C250.529 64.7598 251.356 64.5414 252.164 64.2659C252.205 64.2516 252.248 64.2454 252.291 64.2477C252.333 64.25 252.375 64.2607 252.414 64.2792C252.453 64.2977 252.488 64.3237 252.517 64.3556C252.545 64.3876 252.567 64.4248 252.582 64.4653C252.596 64.5058 252.602 64.5487 252.6 64.5916C252.598 64.6345 252.587 64.6765 252.569 64.7152C252.55 64.754 252.524 64.7887 252.492 64.8174C252.46 64.8461 252.423 64.8683 252.382 64.8826C251.545 65.1708 250.689 65.3987 249.819 65.5646C249.797 65.5707 249.775 65.5744 249.752 65.5755V65.5733ZM236.763 65.4077H236.728L235.951 65.3227C235.348 65.2574 234.743 65.1956 234.137 65.1375C234.05 65.1292 233.97 65.0867 233.914 65.0195C233.859 64.9522 233.833 64.8658 233.841 64.7791C233.849 64.6924 233.892 64.6126 233.959 64.5572C234.026 64.5019 234.113 64.4755 234.2 64.4838C234.808 64.5427 235.417 64.6059 236.021 64.6712L236.798 64.7562C236.884 64.7608 236.966 64.7997 237.024 64.8643C237.082 64.9288 237.112 65.0138 237.107 65.1005C237.103 65.1872 237.064 65.2685 236.999 65.3265C236.935 65.3845 236.849 65.4145 236.763 65.4099V65.4077ZM213.341 64.9719C213.254 64.9766 213.169 64.9465 213.105 64.8885C213.04 64.8305 213.001 64.7492 212.996 64.6625C212.992 64.5758 213.022 64.4909 213.08 64.4263C213.138 64.3617 213.219 64.3229 213.306 64.3182C214.157 64.2245 215.034 64.1461 215.924 64.0829C216.01 64.0769 216.096 64.1055 216.162 64.1625C216.227 64.2195 216.268 64.3002 216.274 64.3869C216.28 64.4736 216.251 64.5591 216.194 64.6247C216.137 64.6903 216.056 64.7305 215.969 64.7366C215.097 64.7998 214.224 64.8782 213.385 64.9697L213.341 64.9719ZM231.571 64.9109H231.545C230.673 64.8412 229.8 64.7802 228.95 64.7279C228.863 64.7227 228.782 64.6833 228.724 64.6183C228.666 64.5533 228.637 64.4681 228.642 64.3814C228.647 64.2948 228.687 64.2137 228.752 64.1561C228.817 64.0984 228.902 64.069 228.989 64.0742C229.84 64.1243 230.716 64.1875 231.606 64.2572C231.693 64.2607 231.775 64.2985 231.834 64.3622C231.893 64.426 231.924 64.5105 231.92 64.5971C231.917 64.6838 231.879 64.7656 231.815 64.8244C231.752 64.8833 231.667 64.9144 231.58 64.9109H231.571ZM226.365 64.5971H226.352C225.479 64.5623 224.607 64.5383 223.752 64.5274C223.665 64.5257 223.582 64.4897 223.522 64.4272C223.461 64.3648 223.428 64.2809 223.429 64.194C223.429 64.1511 223.438 64.1087 223.455 64.0693C223.472 64.0298 223.497 63.9941 223.527 63.9643C223.558 63.9345 223.595 63.9111 223.635 63.8955C223.675 63.88 223.718 63.8726 223.761 63.8737C224.613 63.8868 225.506 63.9086 226.378 63.9435C226.465 63.9449 226.547 63.9807 226.608 64.043C226.668 64.1054 226.701 64.1891 226.7 64.2758C226.698 64.3624 226.662 64.445 226.6 64.5053C226.538 64.5655 226.454 64.5986 226.367 64.5971H226.365ZM218.541 64.5971C218.454 64.5989 218.37 64.5661 218.308 64.506C218.245 64.446 218.209 64.3635 218.207 64.2768C218.205 64.1902 218.238 64.1063 218.298 64.0438C218.359 63.9813 218.441 63.9452 218.528 63.9435C219.383 63.9086 220.273 63.8846 221.145 63.8759C221.231 63.8765 221.314 63.9104 221.375 63.9706C221.437 64.0308 221.472 64.1125 221.475 64.1984C221.475 64.2413 221.467 64.2839 221.451 64.3238C221.436 64.3637 221.412 64.4 221.382 64.4308C221.352 64.4616 221.316 64.4861 221.277 64.5031C221.237 64.52 221.195 64.529 221.152 64.5296C220.279 64.5296 219.407 64.5623 218.554 64.5971H218.541ZM254.657 63.8716C254.584 63.8714 254.514 63.8471 254.456 63.8023C254.399 63.7576 254.358 63.695 254.34 63.6245C254.323 63.554 254.329 63.4796 254.358 63.4131C254.388 63.3465 254.438 63.2916 254.502 63.2571C255.253 62.8516 255.971 62.389 256.651 61.8735C256.72 61.8248 256.806 61.805 256.889 61.8181C256.973 61.8312 257.048 61.8762 257.1 61.9437C257.151 62.0111 257.174 62.0958 257.164 62.1798C257.154 62.2639 257.111 62.3407 257.046 62.3942C256.339 62.9305 255.593 63.4113 254.812 63.8323C254.764 63.855 254.711 63.8655 254.657 63.8628V63.8716ZM258.801 60.7491C258.715 60.7488 258.632 60.7144 258.57 60.6532C258.54 60.623 258.515 60.5871 258.499 60.5474C258.482 60.5078 258.474 60.4652 258.474 60.4223C258.474 60.3793 258.482 60.3368 258.499 60.2971C258.515 60.2575 258.54 60.2215 258.57 60.1913C259.175 59.5851 259.744 58.9449 260.276 58.2738C260.302 58.238 260.335 58.2078 260.373 58.185C260.41 58.1623 260.452 58.1474 260.496 58.1413C260.54 58.1352 260.585 58.1381 260.627 58.1497C260.67 58.1613 260.71 58.1814 260.744 58.2088C260.779 58.2362 260.808 58.2703 260.829 58.3091C260.85 58.3479 260.863 58.3905 260.867 58.4345C260.871 58.4785 260.866 58.5228 260.853 58.5648C260.839 58.6069 260.817 58.6457 260.789 58.6791C260.245 59.3697 259.662 60.0288 259.044 60.6532C258.98 60.7117 258.896 60.743 258.81 60.7404L258.801 60.7491ZM262.047 56.6832C261.988 56.6826 261.931 56.6664 261.88 56.6362C261.83 56.6059 261.789 56.5628 261.761 56.5112C261.733 56.4596 261.719 56.4015 261.721 56.3429C261.723 56.2842 261.741 56.2272 261.772 56.1777C262.224 55.4782 262.66 54.7287 263.081 53.953C263.101 53.915 263.129 53.8815 263.162 53.8542C263.195 53.8269 263.233 53.8063 263.274 53.7938C263.315 53.7813 263.359 53.7769 263.401 53.7811C263.444 53.7852 263.486 53.7977 263.524 53.8179C263.562 53.838 263.595 53.8655 263.623 53.8986C263.65 53.9318 263.671 53.97 263.683 54.011C263.696 54.0521 263.7 54.0953 263.696 54.138C263.692 54.1808 263.679 54.2223 263.659 54.2602C263.238 55.0511 262.787 55.816 262.331 56.5328C262.3 56.577 262.259 56.6129 262.211 56.6376C262.163 56.6623 262.11 56.675 262.056 56.6745L262.047 56.6832Z" fill="#F7F7F7"/>
<path d="M264.514 52.0661C264.469 52.0663 264.425 52.0567 264.384 52.0377C264.344 52.0205 264.307 51.9955 264.277 51.9641C264.247 51.9327 264.224 51.8957 264.208 51.8551C264.192 51.8145 264.185 51.7712 264.186 51.7277C264.188 51.6843 264.198 51.6415 264.216 51.6019C264.388 51.2141 264.556 50.8132 264.719 50.4079C264.754 50.3312 264.817 50.271 264.896 50.2397C264.974 50.2084 265.061 50.2085 265.14 50.24C265.218 50.2715 265.281 50.3319 265.315 50.4086C265.35 50.4853 265.354 50.5725 265.326 50.6519C265.16 51.0637 264.988 51.4712 264.813 51.8678C264.789 51.9266 264.747 51.9769 264.694 52.0122C264.641 52.0475 264.578 52.0662 264.514 52.0661Z" fill="#F7F7F7"/>
<path d="M280.683 26.0124L279.316 57.0102L269.064 46.2658C269.064 46.2658 280.72 25.143 280.801 25.4916L280.365 25.119C280.709 25.021 267.897 45.4639 267.897 45.4639L253.516 41.7422L279.966 25.472L280.683 26.0124Z" fill="#F7F7F7"/>
<path opacity="0.07" d="M260.534 130.45H200.066V174.118H260.534V130.45Z" fill="#2E4661"/>
<path d="M263.013 127.916H202.134V171.715H263.013V127.916Z" fill="#8CABEF"/>
<path d="M262.931 127.916H202.134V131.402H262.931V127.916Z" fill="#5D66D3"/>
<path opacity="0.03" d="M262.885 138.93V138.795H255.403V131.469H255.268V138.795H246.308V131.469H246.173V138.795H237.214V131.469H237.081V138.795H228.138V131.469H228.003V138.795H219.045V131.469H218.91V138.795H209.952V131.469H209.816V138.795H202.354V138.93H209.816V147.21H202.354V147.345H209.816V155.625H202.354V155.76H209.816V164.04H202.354V164.175H209.816V171.878H209.952V164.164H218.91V171.867H219.045V164.164H228.003V171.867H228.138V164.164H237.081V171.867H237.217V164.164H246.175V171.867H246.31V164.164H255.27V171.867H255.406V164.164H262.878V164.029H255.403V155.749H262.876V155.614H255.403V147.334H262.876V147.199H255.403V138.919L262.885 138.93ZM246.181 138.93V147.21H237.223V138.93H246.181ZM228.138 147.341H237.081V155.621H228.138V147.341ZM228.003 155.621H219.045V147.341H228.003V155.621ZM237.232 147.341H246.19V155.621H237.232V147.341ZM237.097 138.93V147.21H228.138V138.93H237.097ZM228.003 138.93V147.21H219.045V138.93H228.003ZM209.952 138.93H218.91V147.21H209.952V138.93ZM209.952 147.341H218.91V155.621H209.952V147.341ZM209.952 164.029V155.749H218.91V164.029H209.952ZM219.045 164.029V155.749H228.003V164.029H219.045ZM228.138 164.029V155.749H237.081V164.029H228.138ZM237.232 164.029V155.749H246.19V164.029H237.232ZM255.286 164.029H246.325V155.749H255.286V164.029ZM255.286 155.619H246.325V147.339H255.286V155.619ZM255.286 147.206H246.325V138.926H255.286V147.206Z" fill="#272525"/>
<path d="M256.461 137.017C256.092 137.016 255.731 137.124 255.424 137.329C255.116 137.533 254.877 137.825 254.737 138.166C254.596 138.507 254.561 138.882 254.635 139.243C254.709 139.605 254.889 139.936 255.152 140.194L248.696 145.75L248.205 146.186C248.008 146.039 247.784 145.932 247.545 145.872C247.307 145.812 247.058 145.8 246.815 145.836C246.572 145.873 246.338 145.957 246.128 146.085C245.917 146.213 245.735 146.381 245.59 146.58C245.445 146.779 245.342 147.005 245.285 147.244C245.229 147.483 245.22 147.732 245.261 147.974C245.301 148.217 245.39 148.449 245.521 148.657C245.652 148.865 245.823 149.045 246.024 149.187C245.55 150.321 245.078 151.456 244.609 152.59C244.408 153.076 244.205 153.56 244.004 154.043C243.867 154.01 243.727 153.993 243.586 153.993C243.26 153.993 242.941 154.078 242.659 154.241C242.377 154.403 242.143 154.636 241.98 154.917L235.738 150.975L231.111 148.056C231.214 147.802 231.259 147.528 231.244 147.254C231.228 146.981 231.152 146.714 231.021 146.474C230.89 146.233 230.707 146.024 230.486 145.862C230.264 145.7 230.01 145.59 229.74 145.538C229.471 145.486 229.194 145.494 228.928 145.562C228.662 145.63 228.415 145.755 228.203 145.93C227.992 146.105 227.822 146.324 227.706 146.572C227.589 146.82 227.529 147.091 227.53 147.365C227.531 147.492 227.544 147.619 227.569 147.744L218.816 151.315L217.957 151.664C217.847 151.412 217.682 151.187 217.475 151.007C217.267 150.826 217.022 150.694 216.757 150.619C216.492 150.545 216.214 150.53 215.943 150.576C215.671 150.623 215.414 150.729 215.188 150.886C214.963 151.044 214.776 151.25 214.64 151.49C214.504 151.729 214.423 151.995 214.403 152.269C214.383 152.544 214.425 152.819 214.524 153.075C214.624 153.332 214.779 153.563 214.979 153.751C214.543 154.244 214.107 154.736 213.671 155.227L207.465 162.262C207.08 162.002 206.611 161.894 206.151 161.96C205.691 162.027 205.272 162.263 204.977 162.622C204.681 162.981 204.531 163.438 204.556 163.902C204.58 164.366 204.777 164.804 205.108 165.131C205.44 165.457 205.881 165.648 206.346 165.666C206.811 165.684 207.265 165.528 207.621 165.228C207.976 164.928 208.207 164.507 208.267 164.046C208.328 163.585 208.213 163.118 207.947 162.738L213.245 156.728C214.013 155.856 214.779 154.985 215.544 154.113C215.826 154.228 216.132 154.272 216.435 154.24C216.738 154.209 217.028 154.104 217.281 153.934C217.534 153.764 217.74 153.535 217.883 153.266C218.026 152.998 218.101 152.698 218.101 152.394C218.101 152.368 218.101 152.344 218.101 152.32L218.227 152.268L227.824 148.356C227.977 148.596 228.182 148.797 228.425 148.944C228.667 149.091 228.94 149.181 229.223 149.206C229.506 149.231 229.79 149.191 230.055 149.088C230.32 148.986 230.557 148.824 230.749 148.616L234.944 151.265L241.749 155.562C241.735 155.655 241.728 155.748 241.727 155.841C241.727 156.162 241.81 156.477 241.968 156.756C242.126 157.035 242.354 157.268 242.629 157.433C242.904 157.598 243.217 157.689 243.538 157.698C243.859 157.706 244.176 157.631 244.459 157.48C244.743 157.329 244.982 157.108 245.154 156.837C245.326 156.567 245.425 156.256 245.442 155.936C245.458 155.616 245.391 155.297 245.247 155.011C245.104 154.724 244.888 154.479 244.622 154.301L246.644 149.437C246.772 149.464 246.903 149.478 247.034 149.479C247.361 149.479 247.682 149.393 247.965 149.229C248.248 149.066 248.483 148.83 248.645 148.547C248.808 148.264 248.893 147.943 248.892 147.616C248.89 147.29 248.802 146.969 248.637 146.687L249.78 145.705L254.677 141.493L255.733 140.584C255.986 140.69 256.26 140.738 256.534 140.726C256.808 140.713 257.076 140.64 257.319 140.512C257.561 140.384 257.772 140.203 257.937 139.983C258.101 139.763 258.214 139.51 258.269 139.241C258.323 138.972 258.317 138.695 258.251 138.429C258.186 138.162 258.061 137.914 257.888 137.702C257.714 137.489 257.496 137.318 257.248 137.2C257 137.082 256.729 137.02 256.455 137.019L256.461 137.017Z" fill="#EED5D5"/>
<path d="M270.183 104.546L262.898 116.203L221.56 90.1889L228.845 78.5315L270.183 104.546Z" fill="#F7F7F7"/>
<path d="M284.424 121.435L284.339 121.568C282.042 125.246 277.94 126.83 275.178 125.109L243.448 105.657L251.787 91.6489L283.587 111.663C286.346 113.38 286.721 117.757 284.424 121.435Z" fill="#292949"/>
<g style="mix-blend-mode:multiply" opacity="0.2">
<path d="M224.452 91.9256L226.455 93.3811L244.567 88.6855L229.475 79.0654L224.452 91.9256Z" fill="#BBBCBF"/>
</g>
<path d="M216.037 29.2285C196.637 17.1309 171.104 23.0337 158.986 42.4112C146.867 61.7886 152.782 87.2976 172.182 99.4061C191.581 111.515 217.115 105.601 229.233 86.2234C241.352 66.846 235.434 41.3282 216.037 29.2285ZM224.326 83.162C220.594 89.132 215.174 93.8625 208.751 96.7553C202.328 99.648 195.191 100.573 188.242 99.4134C181.292 98.2537 174.843 95.0614 169.711 90.2402C164.578 85.419 160.991 79.1855 159.405 72.328C157.818 65.4705 158.303 58.297 160.798 51.7147C163.292 45.1325 167.685 39.4372 173.42 35.349C179.156 31.2608 185.975 28.9635 193.018 28.7475C200.06 28.5315 207.008 30.4065 212.983 34.1355C220.995 39.135 226.69 47.1085 228.817 56.3024C230.944 65.4964 229.328 75.1579 224.326 83.162V83.162Z" fill="#353A85"/>
<path opacity="0.5" d="M219.296 89.478C233.207 75.5813 233.207 53.0505 219.296 39.1539C205.385 25.2572 182.831 25.2573 168.92 39.1539C155.009 53.0505 155.009 75.5813 168.92 89.478C182.831 103.375 205.385 103.375 219.296 89.478Z" fill="#D1E7F5"/>
<g opacity="0.22">
<path opacity="0.22" d="M168.439 62.8825C168.264 51.5367 175.637 41.2717 186.602 38.1209C197.567 34.9701 209.443 39.7987 215.193 49.5975C216.816 52.3604 221.224 50.0529 219.599 47.2856C216.375 41.7768 211.497 37.4211 205.657 34.8357C199.817 32.2503 193.311 31.5663 187.06 32.8805C174.448 35.5606 165.143 46.39 163.627 59.0432C163.49 60.2686 163.435 61.5017 163.464 62.7344C163.514 65.9265 168.48 66.0943 168.439 62.8782V62.8825Z" fill="white"/>
</g>
<path opacity="0.31" d="M220.868 60.6161C222.66 60.3809 223.923 58.7387 223.687 56.9481C223.452 55.1575 221.808 53.8965 220.016 54.1316C218.223 54.3668 216.961 56.009 217.196 57.7996C217.432 59.5902 219.075 60.8512 220.868 60.6161Z" fill="white"/>
<path d="M243.869 105.189L251.804 91.8603C251.936 91.6393 251.981 91.3774 251.93 91.1254C251.879 90.8734 251.736 90.6492 251.529 90.4963L251.39 90.3917C251.272 90.3048 251.138 90.2438 250.995 90.2124C250.852 90.1811 250.705 90.1802 250.562 90.2098C250.419 90.2394 250.283 90.2989 250.165 90.3843C250.046 90.4697 249.947 90.5791 249.874 90.7054L242.061 104.132C241.991 104.251 241.946 104.383 241.928 104.52C241.91 104.657 241.92 104.796 241.956 104.929C241.993 105.062 242.056 105.187 242.141 105.295C242.227 105.404 242.333 105.495 242.454 105.562L242.473 105.572C242.71 105.703 242.988 105.735 243.249 105.664C243.51 105.592 243.732 105.422 243.869 105.189V105.189Z" fill="#353A85"/>
<path d="M228.856 64.5711C228.855 73.0896 225.764 81.3192 220.156 87.7364C214.548 94.1537 206.803 98.3242 198.354 99.4758C189.808 100.687 180.988 98.5214 173.848 93.7386C166.895 89.08 161.83 81.8938 159.597 73.8447C157.342 65.5925 158.169 56.8027 161.924 49.1149C165.679 41.4271 172.105 35.3664 180.004 32.0633C188.022 28.7077 197.126 28.5051 205.325 31.3421C213.221 34.0723 219.926 39.7528 224.127 46.9368C227.226 52.2958 228.857 58.3757 228.856 64.5646C228.856 65.7848 230.756 65.787 230.752 64.5646C230.716 56.0128 227.758 47.7296 222.367 41.0863C217.106 34.5865 209.57 30.0412 201.408 28.2806C195.129 26.9347 188.607 27.2376 182.48 29.1596C176.353 31.0816 170.829 34.5572 166.447 39.2474C162.065 43.9376 158.975 49.6822 157.478 55.921C155.98 62.1598 156.127 68.6797 157.904 74.8449C160.192 82.8896 165.305 89.9276 172.082 94.8041C179.04 99.8157 187.732 102.169 196.269 101.581C204.747 100.957 212.758 97.4607 218.977 91.6708C226.476 84.7221 230.712 74.7599 230.756 64.5711C230.756 63.3509 228.86 63.3509 228.856 64.5711Z" fill="#DDDAE8"/>
</svg>
