<svg width="24" height="25" viewBox="0 0 24 25" fill="none" xmlns="http://www.w3.org/2000/svg">
<path fill-rule="evenodd" clip-rule="evenodd" d="M8.69194 8.47275C8.69455 8.47278 8.69716 8.47279 8.69978 8.47279C8.70239 8.47279 8.705 8.47278 8.70761 8.47275H15.2926C15.2952 8.47278 15.2978 8.47279 15.3004 8.47279C15.303 8.47279 15.3056 8.47278 15.3082 8.47275H17.647C18.2528 8.47275 18.4226 8.47806 18.5456 8.50782C19.0009 8.61799 19.3564 8.97347 19.4665 9.42875C19.4963 9.55175 19.5016 9.7216 19.5016 10.3273C19.5016 10.9331 19.4963 11.103 19.4665 11.2259C19.3564 11.6812 19.0009 12.0367 18.5456 12.1469C18.4226 12.1766 18.2528 12.1819 17.647 12.1819H16.0504V12.0638C16.0504 11.6496 15.7146 11.3138 15.3004 11.3138C14.8861 11.3138 14.5504 11.6496 14.5504 12.0638V12.1819H9.44978V12.0638C9.44978 11.6496 9.11399 11.3138 8.69978 11.3138C8.28556 11.3138 7.94978 11.6496 7.94978 12.0638V12.1819H6.35466C5.74891 12.1819 5.57906 12.1766 5.45607 12.1469C5.00078 12.0367 4.64531 11.6812 4.53514 11.2259C4.50537 11.103 4.50007 10.9331 4.50007 10.3273C4.50007 9.7216 4.50537 9.55175 4.53514 9.42875C4.64531 8.97347 5.00078 8.61799 5.45607 8.50782C5.57906 8.47806 5.74891 8.47275 6.35466 8.47275H8.69194ZM7.94978 13.6819H6.35466L6.26605 13.682H6.26604C5.8964 13.6822 5.5923 13.6824 5.32429 13.6458V14.3457C5.32429 15.4782 5.32487 16.2825 5.37629 16.9118C5.427 17.5325 5.52338 17.9167 5.67852 18.2212C5.9901 18.8327 6.48729 19.3299 7.09882 19.6415C7.40329 19.7966 7.78754 19.893 8.40817 19.9437C9.03755 19.9951 9.84181 19.9957 10.9743 19.9957H13.0257C14.1582 19.9957 14.9624 19.9951 15.5918 19.9437C16.2124 19.893 16.5967 19.7966 16.9011 19.6415C17.5127 19.3299 18.0099 18.8327 18.3214 18.2212C18.4766 17.9167 18.573 17.5325 18.6237 16.9118C18.6751 16.2825 18.6757 15.4782 18.6757 14.3457V13.6461C18.4081 13.6824 18.1045 13.6822 17.7356 13.682H17.7356L17.647 13.6819H16.0504V13.8002C16.0504 14.2144 15.7146 14.5502 15.3004 14.5502C14.8861 14.5502 14.5504 14.2144 14.5504 13.8002V13.6819H9.44978V13.8002C9.44978 14.2144 9.11399 14.5502 8.69978 14.5502C8.28556 14.5502 7.94978 14.2144 7.94978 13.8002V13.6819ZM20.1749 12.8975C20.1754 12.9089 20.1757 12.9204 20.1757 12.9319V14.3457V14.3787V14.3788C20.1757 15.4709 20.1757 16.3364 20.1187 17.034C20.0604 17.7474 19.9388 18.351 19.658 18.9022C19.2026 19.796 18.4759 20.5226 17.5821 20.978C17.031 21.2588 16.4273 21.3805 15.7139 21.4387C15.0163 21.4957 14.1508 21.4957 13.0586 21.4957H13.0257H10.9743H10.9413C9.84916 21.4957 8.98365 21.4957 8.28602 21.4387C7.57263 21.3805 6.96901 21.2588 6.41783 20.978C5.52406 20.5226 4.79741 19.796 4.34201 18.9022C4.06117 18.351 3.93956 17.7474 3.88128 17.034C3.82428 16.3364 3.82428 15.4709 3.82429 14.3787L3.82429 14.3457V12.9319C3.82429 12.9199 3.82457 12.9078 3.82514 12.8959C3.46405 12.542 3.20065 12.0888 3.07721 11.5787C2.99953 11.2577 2.99975 10.8909 3.00003 10.416L3.00007 10.3273L3.00003 10.2387C2.99975 9.76376 2.99953 9.39698 3.07721 9.07595C3.3196 8.07433 4.10164 7.29228 5.10327 7.0499C5.4243 6.97221 5.79107 6.97243 6.26605 6.97272L6.35466 6.97275H7.99064C8.27095 5.0094 9.95925 3.5 12.0001 3.5C14.0409 3.5 15.7292 5.0094 16.0095 6.97275H17.647L17.7356 6.97272C18.2106 6.97243 18.5774 6.97221 18.8984 7.0499C19.9 7.29228 20.6821 8.07433 20.9245 9.07595C21.0021 9.39698 21.0019 9.76375 21.0016 10.2387L21.0016 10.3273L21.0016 10.416C21.0019 10.8909 21.0021 11.2577 20.9245 11.5787C20.8008 12.0896 20.5368 12.5433 20.1749 12.8975ZM14.4847 6.97275C14.223 5.84246 13.2099 5 12.0001 5C10.7902 5 9.77714 5.84246 9.51545 6.97275H14.4847Z" fill="#636F7E"/>
</svg>
