<svg width="24" height="25" viewBox="0 0 24 25" fill="none" xmlns="http://www.w3.org/2000/svg">
<path d="M20.3984 12.7597C21.2947 12.6822 22 11.946 22 11.0516V5.71525C22 4.76946 21.2114 4 20.2422 4H14.4219C13.4526 4 12.6641 4.76946 12.6641 5.71525V7.96413H5.35938C4.39012 7.96413 3.60156 8.73359 3.60156 9.67937V16.5404C3.60156 16.7408 3.6373 16.9332 3.70234 17.1121H3.05469C2.47313 17.1121 2 17.5738 2 18.1413C2 19.7176 3.31426 21 4.92969 21H19.0703C20.6857 21 22 19.7176 22 18.1413C22 17.5738 21.5269 17.1121 20.9453 17.1121H20.2977C20.3627 16.9332 20.3984 16.7408 20.3984 16.5404V12.7597ZM13.8359 5.71525C13.8359 5.39998 14.0988 5.1435 14.4219 5.1435H20.2422C20.5653 5.1435 20.8281 5.39998 20.8281 5.71525V11.0516C20.8281 11.3668 20.5653 11.6233 20.2422 11.6233H14.8125C14.7027 11.6233 14.5951 11.6534 14.502 11.7102L13.3205 12.4307L13.8113 10.8347C13.8276 10.7814 13.8359 10.7261 13.8359 10.6704V5.71525ZM19.0703 19.8565H4.92969C3.9998 19.8565 3.23629 19.1483 3.17574 18.2556H20.8243C20.7637 19.1483 20.0002 19.8565 19.0703 19.8565ZM7.58594 12.8049C7.58594 12.4476 7.88383 12.157 8.25 12.157C8.61617 12.157 8.91406 12.4476 8.91406 12.8049C8.91406 13.1622 8.61617 13.4529 8.25 13.4529C7.88383 13.4529 7.58594 13.1622 7.58594 12.8049ZM7.27344 15.2444C7.27344 14.8992 7.72977 14.5964 8.25 14.5964C8.52898 14.5964 8.79777 14.6813 8.98746 14.8294C9.0768 14.8991 9.22656 15.0457 9.22656 15.2444V17.1121H7.27344V15.2444ZM10.3984 17.1121V15.2444C10.3984 14.75 10.151 14.2733 9.71953 13.9365C9.70984 13.9289 9.69973 13.9218 9.68988 13.9144C9.93754 13.609 10.0859 13.2237 10.0859 12.8049C10.0859 11.8171 9.26234 11.0135 8.25 11.0135C7.23766 11.0135 6.41406 11.8171 6.41406 12.8049C6.41406 13.2242 6.56281 13.6099 6.81094 13.9154C6.37563 14.2435 6.10156 14.7177 6.10156 15.2444V17.1121H5.35938C5.03629 17.1121 4.77344 16.8556 4.77344 16.5404V9.67937C4.77344 9.36411 5.03629 9.10762 5.35938 9.10762H12.6641V10.5865L12.1981 12.1021C12.0566 12.5624 12.2181 13.0483 12.6096 13.3398C12.8205 13.4968 13.0695 13.5762 13.3196 13.5762C13.5338 13.5762 13.7489 13.5179 13.9416 13.4004L14.9805 12.7668H19.2266V16.5404C19.2266 16.8556 18.9637 17.1121 18.6406 17.1121H10.3984Z" fill="#676E86"/>
<path d="M17.9375 9.18359H16.6875C16.3639 9.18359 16.1016 9.43958 16.1016 9.75534C16.1016 10.0711 16.3639 10.3271 16.6875 10.3271H17.9375C18.2611 10.3271 18.5234 10.0711 18.5234 9.75534C18.5234 9.43958 18.2611 9.18359 17.9375 9.18359Z" fill="#676E86"/>
<path d="M15.75 7.5849H18.875C19.1986 7.5849 19.4609 7.32891 19.4609 7.01316C19.4609 6.6974 19.1986 6.44141 18.875 6.44141H15.75C15.4264 6.44141 15.1641 6.6974 15.1641 7.01316C15.1641 7.32891 15.4264 7.5849 15.75 7.5849Z" fill="#676E86"/>
</svg>
