<svg width="24" height="25" viewBox="0 0 24 25" fill="none" xmlns="http://www.w3.org/2000/svg">
<path d="M5.78125 3.19629H14.1878C14.4665 3.19629 14.7326 3.31263 14.9219 3.51725L18.9841 7.90883C19.155 8.09364 19.25 8.33612 19.25 8.58787V21.165C19.25 21.7173 18.8023 22.165 18.25 22.165H5.78125C5.22897 22.165 4.78125 21.7173 4.78125 21.165V4.19629C4.78125 3.644 5.22897 3.19629 5.78125 3.19629Z" stroke="#676E86" stroke-linecap="round" stroke-linejoin="round"/>
<path d="M19.2812 8.22754L14.7188 3.27441V8.22754H19.2812Z" stroke="#676E86" stroke-linecap="round" stroke-linejoin="round"/>
<path d="M7.42188 12.165H14.0548" stroke="#676E86" stroke-linecap="round" stroke-linejoin="round"/>
<path d="M7.42188 14.6104H16.4219" stroke="#676E86" stroke-linecap="round" stroke-linejoin="round"/>
<path d="M7.42188 17.1206H16.4219" stroke="#676E86" stroke-linecap="round" stroke-linejoin="round"/>
<path d="M7.42188 19.6309H16.4219" stroke="#676E86" stroke-linecap="round" stroke-linejoin="round"/>
<rect x="7.35938" y="5.50879" width="4.40625" height="4.40625" rx="1" stroke="#676E86"/>
</svg>
