<svg width="24" height="25" viewBox="0 0 24 25" fill="none" xmlns="http://www.w3.org/2000/svg">
<path fill-rule="evenodd" clip-rule="evenodd" d="M4.29432 6.12918C4.61573 5.88884 5.13047 5.67325 5.71945 5.51552C6.32081 5.35447 7.04393 5.24187 7.80957 5.23385C9.19076 5.21939 10.7712 5.54689 12 6.61619C13.2288 5.54689 14.8092 5.21939 16.1904 5.23385C16.9561 5.24187 17.6792 5.35447 18.2806 5.51552C18.8695 5.67325 19.3843 5.88884 19.7057 6.12918C19.8319 6.22358 19.9062 6.37198 19.9062 6.52961V17.3879C19.9062 17.5545 19.8233 17.7101 19.6849 17.803C19.5466 17.8959 19.3711 17.9137 19.2169 17.8506C17.9113 17.3165 16.5186 17.5669 15.2491 18.1015C15.1661 18.1365 15.084 18.1725 15.0028 18.2094C16.7899 18.0173 19.0595 18.2333 21.5312 19.4062V9.74819C21.4897 9.7183 21.4263 9.67862 21.3326 9.63276C21.1413 9.5392 20.8839 9.44882 20.5849 9.37328C20.3171 9.30565 20.1549 9.03378 20.2226 8.76605C20.2902 8.49832 20.5621 8.33611 20.8298 8.40374C21.1732 8.4905 21.5005 8.60168 21.772 8.73448C22.0227 8.85712 22.3066 9.03622 22.4617 9.29879C22.5072 9.37582 22.5312 9.46364 22.5312 9.55311V20.2219C22.5312 20.3984 22.4383 20.5618 22.2865 20.6519C22.1348 20.7419 21.9469 20.7454 21.792 20.661C17.3208 18.2239 13.5397 19.2811 12.2682 20.049C12.2483 20.0616 12.2276 20.0728 12.2062 20.0824C12.1399 20.1125 12.0696 20.127 12 20.1269C11.9304 20.127 11.8601 20.1125 11.7938 20.0824C11.7724 20.0728 11.7517 20.0616 11.7318 20.049C10.4603 19.2811 6.67922 18.2239 2.20804 20.661C2.05312 20.7454 1.86516 20.7419 1.71345 20.6519C1.56174 20.5618 1.46875 20.3984 1.46875 20.2219V9.55311C1.46875 9.46364 1.49275 9.37582 1.53826 9.29879C1.69337 9.03622 1.97729 8.85712 2.22801 8.73448C2.49947 8.60168 2.82678 8.4905 3.1702 8.40374C3.43793 8.33611 3.7098 8.49832 3.77743 8.76605C3.84507 9.03378 3.68285 9.30565 3.41512 9.37328C3.1161 9.44882 2.85869 9.5392 2.66743 9.63276C2.57367 9.67862 2.51026 9.7183 2.46875 9.74819V19.4062C4.98776 18.2109 7.29681 18.0093 9.09915 18.2209C8.98641 18.1695 8.8718 18.1198 8.75549 18.0722C7.487 17.5529 6.09196 17.3151 4.78309 17.8506C4.62889 17.9137 4.45339 17.8959 4.31506 17.803C4.17674 17.7101 4.09375 17.5545 4.09375 17.3879V6.52961C4.09375 6.37198 4.16808 6.22358 4.29432 6.12918ZM11.5 18.4338V7.51417C10.5013 6.54931 9.12437 6.22014 7.82004 6.2338C7.14245 6.24089 6.50268 6.341 5.97814 6.48148C5.59673 6.58363 5.29744 6.70139 5.09375 6.80765V16.6997C6.52124 16.3449 7.9411 16.6582 9.13435 17.1467C10.0558 17.5239 10.8752 18.0195 11.5 18.4338ZM12.5 18.4916C13.1234 18.0725 13.9419 17.567 14.861 17.1799C16.0538 16.6776 17.4757 16.3485 18.9062 16.7005V6.80765C18.7026 6.70139 18.4033 6.58363 18.0219 6.48148C17.4973 6.341 16.8576 6.24089 16.18 6.2338C14.8756 6.22014 13.4987 6.54931 12.5 7.51417V18.4916Z" fill="#676E86"/>
</svg>
