<svg width="31" height="31" viewBox="0 0 31 31" fill="none" xmlns="http://www.w3.org/2000/svg">
<circle cx="15.875" cy="15.8438" r="15" fill="#E1E5F1"/>
<path fill-rule="evenodd" clip-rule="evenodd" d="M16.9786 12.4903C16.7833 12.295 16.4667 12.295 16.2714 12.4903C16.0762 12.6855 16.0762 13.0021 16.2714 13.1974L18.4179 15.3438L9.125 15.3438C8.84886 15.3438 8.625 15.5677 8.625 15.8438C8.625 16.12 8.84886 16.3438 9.125 16.3438L18.4179 16.3438L16.2714 18.4903C16.0762 18.6855 16.0762 19.0021 16.2714 19.1974C16.4667 19.3926 16.7833 19.3926 16.9786 19.1974L19.9786 16.1974C20.1738 16.0021 20.1738 15.6855 19.9786 15.4903L16.9786 12.4903ZM17.8251 8.84375C18.6734 8.84375 19.2796 8.84414 19.7547 8.88296C20.2241 8.92131 20.5214 8.99464 20.76 9.11623C21.2305 9.35592 21.6129 9.73837 21.8526 10.2088C21.9742 10.4474 22.0475 10.7447 22.0859 11.2141C22.1247 11.6892 22.1251 12.2954 22.1251 13.1437L22.1251 18.5437C22.1251 19.3921 22.1247 19.9983 22.0859 20.4734C22.0475 20.9428 21.9742 21.2401 21.8526 21.4787C21.6129 21.9491 21.2305 22.3316 20.76 22.5713C20.5214 22.6929 20.2241 22.7662 19.7547 22.8045C19.2796 22.8434 18.6734 22.8437 17.8251 22.8437L16.6251 22.8437C15.9193 22.8437 15.415 22.8435 15.0176 22.8164C14.6247 22.7896 14.3729 22.7382 14.1684 22.6534C13.5558 22.3997 13.0691 21.913 12.8154 21.3005C12.7306 21.0959 12.6793 20.8441 12.6525 20.4512C12.6253 20.0538 12.6251 19.5495 12.6251 18.8437L11.6251 18.8437L11.6251 18.8622C11.6251 19.5455 11.6251 20.0838 11.6548 20.5193C11.6851 20.9631 11.7479 21.3364 11.8915 21.6831C12.2467 22.5407 12.9281 23.2221 13.7857 23.5773C14.1324 23.7209 14.5057 23.7838 14.9496 23.814C15.385 23.8438 15.9233 23.8438 16.6066 23.8437L16.6251 23.8437L17.8251 23.8437L17.8473 23.8437C18.6686 23.8438 19.3155 23.8438 19.8362 23.8012C20.3674 23.7578 20.8109 23.6677 21.214 23.4623C21.8726 23.1267 22.408 22.5913 22.7436 21.9327C22.949 21.5296 23.0391 21.086 23.0825 20.5549C23.1251 20.0342 23.1251 19.3872 23.1251 18.566L23.1251 18.5437L23.1251 13.1437L23.1251 13.1215C23.1251 12.3003 23.1251 11.6533 23.0825 11.1326C23.0391 10.6015 22.949 10.1579 22.7436 9.75478C22.408 9.09621 21.8726 8.56078 21.214 8.22523C20.8109 8.01984 20.3674 7.92968 19.8362 7.88628C19.3155 7.84374 18.6686 7.84375 17.8473 7.84375L17.8473 7.84375L17.8251 7.84375L16.6251 7.84375L16.6067 7.84375C15.9233 7.84375 15.385 7.84374 14.9496 7.87345C14.5057 7.90374 14.1324 7.96655 13.7857 8.11017C12.9281 8.4654 12.2467 9.14676 11.8915 10.0044C11.7479 10.3511 11.6851 10.7244 11.6548 11.1682C11.6251 11.6037 11.6251 12.142 11.6251 12.8253L11.6251 12.8437L12.6251 12.8437C12.6251 12.138 12.6253 11.6337 12.6525 11.2363C12.6793 10.8434 12.7306 10.5916 12.8154 10.387C13.0691 9.77447 13.5558 9.28779 14.1684 9.03405C14.3729 8.94931 14.6247 8.89794 15.0176 8.87113C15.415 8.84402 15.9193 8.84375 16.6251 8.84375L17.8251 8.84375Z" fill="#091230"/>
</svg>
