<svg width="24" height="25" viewBox="0 0 24 25" fill="none" xmlns="http://www.w3.org/2000/svg">
<path fill-rule="evenodd" clip-rule="evenodd" d="M7 9.01853C7 7.08943 7.65874 5.72864 8.56967 4.84896C9.49265 3.95762 10.7367 3.5 12 3.5C13.2633 3.5 14.5073 3.95764 15.4303 4.84897C16.3413 5.72866 17 7.08945 17 9.01853C17 11.9611 15.034 14.4943 13.3419 16.1086C12.5719 16.8432 11.4284 16.8432 10.6584 16.1087C8.9662 14.4944 7 11.9611 7 9.01853ZM19 9.01853C19 6.60195 18.1587 4.70347 16.8197 3.41031C15.4927 2.1288 13.7367 1.5 12 1.5C10.2633 1.5 8.50735 2.12878 7.18033 3.41029C5.84126 4.70345 5 6.60193 5 9.01853C5 12.8158 7.48888 15.8492 9.27789 17.5558C10.8206 19.0275 13.1797 19.0275 14.7224 17.5557C16.5113 15.8491 19 12.8158 19 9.01853ZM12 7.5C11.4477 7.5 11 7.94772 11 8.5C11 9.05229 11.4477 9.5 12 9.5C12.5523 9.5 13 9.05229 13 8.5C13 7.94772 12.5523 7.5 12 7.5ZM9 8.5C9 6.84315 10.3431 5.5 12 5.5C13.6569 5.5 15 6.84315 15 8.5C15 10.1569 13.6569 11.5 12 11.5C10.3431 11.5 9 10.1569 9 8.5ZM5.91716 15.9479C6.13726 16.4544 5.90505 17.0434 5.39852 17.2635C4.83677 17.5076 4.45524 17.7576 4.22915 17.9781C4.0058 18.1959 4 18.3152 4 18.3355C4 18.3574 4.01018 18.5187 4.34652 18.7983C4.67691 19.0729 5.21494 19.3651 5.96774 19.6298C7.46423 20.1559 9.5969 20.5 12 20.5C14.4031 20.5 16.5358 20.1559 18.0323 19.6298C18.7851 19.3651 19.3231 19.0729 19.6535 18.7983C19.9898 18.5187 20 18.3574 20 18.3355C20 18.3152 19.9942 18.1959 19.7708 17.9781C19.5448 17.7576 19.1632 17.5076 18.6015 17.2635C18.0949 17.0434 17.8627 16.4544 18.0828 15.9479C18.3029 15.4413 18.892 15.2091 19.3985 15.4292C20.0876 15.7286 20.706 16.0964 21.1673 16.5463C21.6312 16.9987 22 17.6022 22 18.3355C22 19.1875 21.5065 19.8587 20.932 20.3363C20.3515 20.8188 19.5715 21.2086 18.6957 21.5165C16.9348 22.1357 14.5675 22.5 12 22.5C9.43253 22.5 7.06521 22.1357 5.30434 21.5165C4.42846 21.2086 3.64847 20.8188 3.06801 20.3363C2.4935 19.8587 2 19.1875 2 18.3355C2 17.6022 2.3688 16.9987 2.83275 16.5463C3.29396 16.0964 3.91243 15.7286 4.60148 15.4292C5.10802 15.2091 5.69706 15.4413 5.91716 15.9479Z" fill="#636F7E"/>
</svg>
