<svg width="31" height="31" viewBox="0 0 31 31" fill="none" xmlns="http://www.w3.org/2000/svg">
<path d="M9.83464 3.88574H5.83464C5.12739 3.88574 4.44911 4.16669 3.94902 4.66679C3.44892 5.16689 3.16797 5.84516 3.16797 6.55241V10.5524M27.168 10.5524V6.55241C27.168 5.84516 26.887 5.16689 26.3869 4.66679C25.8868 4.16669 25.2085 3.88574 24.5013 3.88574H20.5013M20.5013 27.8857H24.5013C25.2085 27.8857 25.8868 27.6048 26.3869 27.1047C26.887 26.6046 27.168 25.9263 27.168 25.2191V21.2191M3.16797 21.2191V25.2191C3.16797 25.9263 3.44892 26.6046 3.94902 27.1047C4.44911 27.6048 5.12739 27.8857 5.83464 27.8857H9.83464" stroke="#091230" stroke-width="3" stroke-linecap="round" stroke-linejoin="round"/>
</svg>
