<svg width="24" height="25" viewBox="0 0 24 25" fill="none" xmlns="http://www.w3.org/2000/svg">
<path d="M19.5882 16.5469V14.8432C19.5882 14.3948 19.3646 13.9624 18.9749 13.657C18.9661 13.6501 18.9569 13.6436 18.948 13.6369C19.1718 13.36 19.3059 13.0105 19.3059 12.6307C19.3059 11.9161 18.8322 11.3081 18.1765 11.0912V4.7832C18.1765 3.92541 17.464 3.22754 16.5882 3.22754H7.41177C6.53601 3.22754 5.82353 3.92541 5.82353 4.7832V11.0912C5.16776 11.3081 4.69412 11.9161 4.69412 12.6307C4.69412 13.0109 4.82852 13.3607 5.05271 13.6378C4.65939 13.9354 4.41176 14.3655 4.41176 14.8432V16.5469C3.61878 16.6332 3 17.2934 3 18.0928V19.3719C3 20.2297 3.71248 20.9275 4.58824 20.9275H19.4118C20.2875 20.9275 21 20.2297 21 19.3719V18.0928C21 17.2934 20.3812 16.6332 19.5882 16.5469ZM13.9412 16.5371V14.8432C13.9412 14.3948 13.7176 13.9624 13.3278 13.657C13.319 13.6501 13.3099 13.6436 13.301 13.6369C13.4179 13.4922 13.5102 13.3276 13.5717 13.1492H16.0754C16.137 13.328 16.2295 13.4928 16.3468 13.6378C15.9535 13.9354 15.7059 14.3655 15.7059 14.8432V16.5371H13.9412ZM8.29412 16.5371V14.8432C8.29412 14.3948 8.07053 13.9624 7.68074 13.657C7.67195 13.6501 7.66281 13.6436 7.65392 13.6369C7.77085 13.4922 7.86311 13.3276 7.92462 13.1492H10.4283C10.49 13.328 10.5825 13.4928 10.6998 13.6378C10.3064 13.9354 10.0588 14.3655 10.0588 14.8432V16.5371H8.29412ZM5.47059 14.8432C5.47059 14.5301 5.88293 14.2555 6.35294 14.2555C6.60505 14.2555 6.84787 14.3325 7.01929 14.4668C7.09994 14.53 7.23529 14.663 7.23529 14.8432V16.5371H5.47059V14.8432ZM12 13.2184C11.6692 13.2184 11.4 12.9547 11.4 12.6307C11.4 12.3066 11.6692 12.043 12 12.043C12.3308 12.043 12.6 12.3066 12.6 12.6307C12.6 12.9547 12.3308 13.2184 12 13.2184ZM11.1176 14.8432C11.1176 14.5301 11.53 14.2555 12 14.2555C12.2521 14.2555 12.4949 14.3325 12.6664 14.4668C12.747 14.53 12.8824 14.663 12.8824 14.8432V16.5371H11.1176V14.8432ZM16.7647 14.8432C16.7647 14.5301 17.177 14.2555 17.6471 14.2555C17.8992 14.2555 18.142 14.3325 18.3134 14.4668C18.3941 14.53 18.5294 14.663 18.5294 14.8432V16.5371H16.7647V14.8432ZM17.6471 13.2184C17.3162 13.2184 17.0471 12.9547 17.0471 12.6307C17.0471 12.3066 17.3162 12.043 17.6471 12.043C17.9779 12.043 18.2471 12.3066 18.2471 12.6307C18.2471 12.9547 17.9779 13.2184 17.6471 13.2184ZM7.41177 4.26465H16.5882C16.8802 4.26465 17.1176 4.49727 17.1176 4.7832V11.0912C16.6283 11.2531 16.2407 11.6328 16.0754 12.1121H13.5717C13.3502 11.4698 12.7296 11.0059 12 11.0059C11.2704 11.0059 10.6498 11.4698 10.4283 12.1121H7.92462C7.75931 11.6328 7.37174 11.2531 6.88235 11.0912V4.7832C6.88235 4.49727 7.11985 4.26465 7.41177 4.26465ZM5.75294 12.6307C5.75294 12.3066 6.02209 12.043 6.35294 12.043C6.68379 12.043 6.95294 12.3066 6.95294 12.6307C6.95294 12.9547 6.68379 13.2184 6.35294 13.2184C6.02209 13.2184 5.75294 12.9547 5.75294 12.6307ZM19.9412 19.3719C19.9412 19.6578 19.7037 19.8904 19.4118 19.8904H4.58824C4.29632 19.8904 4.05882 19.6578 4.05882 19.3719V18.0928C4.05882 17.8068 4.29632 17.5742 4.58824 17.5742H19.4118C19.7037 17.5742 19.9412 17.8068 19.9412 18.0928V19.3719Z" fill="#676E86"/>
<path d="M10.9651 9.93079C11.0934 9.99713 11.2332 10.03 11.3725 10.0299C11.5448 10.0299 11.7164 9.97978 11.8645 9.88067L13.8426 8.55683C14.0798 8.39801 14.2219 8.13518 14.2227 7.8537C14.2235 7.57227 14.0829 7.30867 13.8466 7.14861L13.8467 7.14864L11.8686 5.80835C11.6009 5.62707 11.2556 5.60629 10.9673 5.75432C10.679 5.90235 10.5 6.19232 10.5 6.5111V9.17515C10.5 9.49292 10.6782 9.78245 10.9651 9.93079ZM11.5588 6.85957L13.0212 7.85042L11.5588 8.82917V6.85957Z" fill="#676E86"/>
</svg>
