<svg width="25" height="25" viewBox="0 0 25 25" fill="none" xmlns="http://www.w3.org/2000/svg">
<path d="M8.97656 3.75244V6.75244C8.97656 7.28287 8.76585 7.79158 8.39078 8.16666C8.0157 8.54173 7.507 8.75244 6.97656 8.75244H3.97656M21.9766 8.75244H18.9766C18.4461 8.75244 17.9374 8.54173 17.5623 8.16666C17.1873 7.79158 16.9766 7.28287 16.9766 6.75244V3.75244M16.9766 21.7524V18.7524C16.9766 18.222 17.1873 17.7133 17.5623 17.3382C17.9374 16.9632 18.4461 16.7524 18.9766 16.7524H21.9766M3.97656 16.7524H6.97656C7.507 16.7524 8.0157 16.9632 8.39078 17.3382C8.76585 17.7133 8.97656 18.222 8.97656 18.7524V21.7524" stroke="#25282B" stroke-width="2" stroke-linecap="round" stroke-linejoin="round"/>
</svg>
