<svg width="25" height="25" viewBox="0 0 25 25" fill="none" xmlns="http://www.w3.org/2000/svg">
<rect x="5.62109" y="9.91016" width="14.3125" height="10.8125" rx="3" stroke="#676E86" stroke-width="2"/>
<path d="M8.77734 9.37891L8.77734 7.59766C8.77734 7.59766 8.77734 7.59766 8.77734 7.59766C8.77734 5.38852 10.5682 3.59766 12.7773 3.59766C12.7773 3.59766 12.7773 3.59766 12.7773 3.59766V3.59766C12.7773 3.59766 12.7773 3.59766 12.7773 3.59766C14.9865 3.59766 16.7773 5.38852 16.7773 7.59766C16.7773 7.59766 16.7773 7.59766 16.7773 7.59766L16.7773 9.37891" stroke="#676E86" stroke-width="2" stroke-linecap="round" stroke-linejoin="round"/>
<path fill-rule="evenodd" clip-rule="evenodd" d="M13.5273 15.9214C14.1186 15.6406 14.5273 15.0379 14.5273 14.3398C14.5273 13.3733 13.7438 12.5898 12.7773 12.5898C11.8108 12.5898 11.0273 13.3733 11.0273 14.3398C11.0273 15.0379 11.4361 15.6406 12.0273 15.9214V17.293C12.0273 17.7072 12.3631 18.043 12.7773 18.043C13.1916 18.043 13.5273 17.7072 13.5273 17.293V15.9214Z" fill="#676E86"/>
</svg>
