<svg width="31" height="31" viewBox="0 0 31 31" fill="none" xmlns="http://www.w3.org/2000/svg">
<circle cx="15.875" cy="15.8438" r="15" fill="#E1E5F1"/>
<path fill-rule="evenodd" clip-rule="evenodd" d="M13.0725 11.513C13.0725 9.71091 14.5334 8.25 16.3355 8.25C18.1376 8.25 19.5985 9.71091 19.5985 11.513C19.5985 13.3152 18.1376 14.7761 16.3355 14.7761C14.5334 14.7761 13.0725 13.3152 13.0725 11.513ZM16.3355 7.25C13.9811 7.25 12.0725 9.15863 12.0725 11.513C12.0725 13.8675 13.9811 15.7761 16.3355 15.7761C18.6899 15.7761 20.5985 13.8675 20.5985 11.513C20.5985 9.15863 18.6899 7.25 16.3355 7.25ZM10.25 21.8608C10.25 20.0586 11.7109 18.5977 13.513 18.5977H19.1576C20.9597 18.5977 22.4206 20.0586 22.4206 21.8608C22.4206 22.6238 21.8021 23.2423 21.0391 23.2423H11.6315C10.8685 23.2423 10.25 22.6238 10.25 21.8608ZM13.513 17.5977C11.1586 17.5977 9.25 19.5063 9.25 21.8608C9.25 23.176 10.3162 24.2423 11.6315 24.2423H21.0391C22.3544 24.2423 23.4206 23.176 23.4206 21.8608C23.4206 19.5063 21.512 17.5977 19.1576 17.5977H13.513Z" fill="#091230"/>
</svg>
