<svg width="31" height="31" viewBox="0 0 31 31" fill="none" xmlns="http://www.w3.org/2000/svg">
<circle cx="15.8516" cy="15.0024" r="15" fill="#E1E5F1"/>
<g clip-path="url(#clip0)">
<path fill-rule="evenodd" clip-rule="evenodd" d="M18.4766 8.25244C19.0979 8.25244 19.6016 8.75612 19.6016 9.37744C19.6016 9.99876 19.0979 10.5024 18.4766 10.5024H16.8596L17.2812 9.09706C17.4316 8.59575 17.893 8.25244 18.4164 8.25244H18.4766ZM21.1016 9.37744C21.1016 9.78004 21.0109 10.1615 20.849 10.5024H21.6016C22.5681 10.5024 23.3516 11.2859 23.3516 12.2524V13.2524C23.3516 14.1341 22.6996 14.8634 21.8516 14.9847V19.7524C21.8516 21.2712 20.6203 22.5024 19.1016 22.5024H12.6016C11.0828 22.5024 9.85156 21.2712 9.85156 19.7524V14.9847C9.00349 14.8634 8.35156 14.1341 8.35156 13.2524V12.2524C8.35156 11.2859 9.13506 10.5024 10.1016 10.5024H10.8542C10.6922 10.1615 10.6016 9.78004 10.6016 9.37744C10.6016 7.92769 11.7768 6.75244 13.2266 6.75244H13.2867C14.4644 6.75244 15.5036 7.51963 15.8516 8.64275C16.1995 7.51963 17.2387 6.75244 18.4164 6.75244H18.4766C19.9263 6.75244 21.1016 7.92769 21.1016 9.37744ZM10.6016 13.5024H21.1016H21.6016C21.7396 13.5024 21.8516 13.3905 21.8516 13.2524V12.2524C21.8516 12.1144 21.7396 12.0024 21.6016 12.0024H18.4766H15.8516H13.2266H10.1016C9.96349 12.0024 9.85156 12.1144 9.85156 12.2524V13.2524C9.85156 13.3905 9.96349 13.5024 10.1016 13.5024H10.6016ZM11.3516 15.0024V19.7524C11.3516 20.4428 11.9112 21.0024 12.6016 21.0024H14.9608L14.9608 15.0024H11.3516ZM16.4608 15.0024V21.0024H19.1016C19.7919 21.0024 20.3516 20.4428 20.3516 19.7524V15.0024H16.4608ZM14.8435 10.5024L14.4219 9.09706C14.2715 8.59575 13.8101 8.25244 13.2867 8.25244H13.2266C12.6052 8.25244 12.1016 8.75612 12.1016 9.37744C12.1016 9.99876 12.6052 10.5024 13.2266 10.5024H14.8435Z" fill="#091230"/>
</g>
<defs>
<clipPath id="clip0">
<rect width="18" height="18" fill="white" transform="translate(6.85156 6.00244)"/>
</clipPath>
</defs>
</svg>
