<svg width="25" height="25" viewBox="0 0 25 25" fill="none" xmlns="http://www.w3.org/2000/svg">
<path fill-rule="evenodd" clip-rule="evenodd" d="M9.57712 4.71023L11.4429 6.49773L11.4568 6.51139C11.9668 7.0224 12.1763 7.73088 12.1763 8.36927C12.1762 9.00767 11.9667 9.71612 11.4569 10.2271L10.5491 11.1369C10.7628 11.8857 11.2721 12.7115 11.9813 13.4269C12.6923 14.1441 13.5179 14.6634 14.2799 14.8802L15.1872 13.9709C15.6973 13.4597 16.4052 13.2492 17.0437 13.2492C17.6821 13.2492 18.39 13.4597 18.9001 13.9709C18.9001 13.9709 18.9001 13.9709 18.9001 13.9709L20.761 15.8358C21.2709 16.3468 21.4804 17.0553 21.4804 17.6937C21.4804 18.3321 21.2709 19.0405 20.761 19.5515C19.3734 20.9421 17.5632 21.3612 16.7334 21.3612C15.449 21.3612 14.2889 21.2822 12.9534 20.6574C11.6513 20.0483 10.2472 18.9516 8.36442 17.0647C6.45608 15.1522 5.37134 13.5882 4.77127 12.214C4.16297 10.8209 4.07812 9.67913 4.07812 8.68015C4.07812 7.98131 4.16595 7.3124 4.45844 6.62851C4.748 5.95147 5.21319 5.31797 5.88315 4.64655C6.4077 4.12086 7.13084 3.93653 7.7676 3.96113C8.40195 3.98564 9.08397 4.22071 9.57712 4.71023ZM7.70042 5.70006C7.41244 5.68893 7.21082 5.77972 7.11501 5.87574C6.54443 6.44757 6.23419 6.90198 6.05847 7.31283C5.88568 7.71684 5.81835 8.1358 5.81835 8.68015C5.81835 9.54612 5.88874 10.4244 6.36609 11.5176C6.85167 12.6297 7.78299 14.0183 9.59629 15.8355C11.4351 17.6783 12.667 18.6022 13.6908 19.0811C14.681 19.5444 15.5367 19.621 16.7334 19.621C17.1745 19.621 18.5164 19.3372 19.5291 18.3223C19.6395 18.2117 19.7402 17.9876 19.7402 17.6936C19.7402 17.3996 19.6395 17.1756 19.5292 17.065L17.6683 15.2001C17.5582 15.0898 17.3356 14.9894 17.0437 14.9894C16.7517 14.9894 16.5292 15.0898 16.419 15.2001L15.1785 16.4434C14.9849 16.6373 14.7113 16.7288 14.44 16.6902C13.0806 16.4969 11.7535 15.669 10.7454 14.6521C9.73769 13.6355 8.9286 12.3089 8.73897 10.9786C8.70038 10.7079 8.79129 10.4348 8.98444 10.2412L10.225 8.99794C10.3354 8.88732 10.436 8.66331 10.436 8.36925C10.436 8.07963 10.3384 7.85801 10.23 7.74575L8.367 5.96087L8.35305 5.9472C8.22642 5.8203 7.98751 5.71115 7.70042 5.70006Z" fill="#676E86"/>
</svg>
