<svg width="24" height="25" viewBox="0 0 24 25" fill="none" xmlns="http://www.w3.org/2000/svg">
<g clip-path="url(#clip0)">
<path d="M20.3727 12.0874V20.9788H5.6527V12.0874H4.28125V21.6646C4.28125 22.0433 4.5882 22.3503 4.96695 22.3503H21.0584C21.4371 22.3503 21.7441 22.0433 21.7441 21.6646V12.0874H20.3727Z" fill="#676E86"/>
<path d="M22.3143 6.94434H3.6857C3.30695 6.94434 3 7.25129 3 7.63004V12.11C3 12.4888 3.30695 12.7957 3.6857 12.7957H22.3143C22.693 12.7957 23 12.489 23 12.11V7.63004C23 7.25129 22.693 6.94434 22.3143 6.94434ZM21.6286 11.4246H4.37145V8.31602H21.6286V11.4246H21.6286Z" fill="#676E86"/>
<path d="M13.6741 7.45697C13.6274 7.27916 12.4963 3.10498 9.19359 3.10498C7.7568 3.10498 6.58789 4.27389 6.58789 5.71068C6.58789 7.14748 7.74652 8.31639 9.17074 8.31639H13.0107C13.2231 8.31639 13.4238 8.21787 13.5536 8.04963C13.6834 7.88139 13.7278 7.66244 13.6741 7.45697ZM9.17078 6.94498C8.49148 6.94498 7.95934 6.40279 7.95934 5.71068C7.95934 5.04166 8.52461 4.47639 9.19363 4.47639C10.6983 4.47639 11.5993 5.95869 12.0325 6.94494H9.17078V6.94498Z" fill="#676E86"/>
<path d="M16.8291 3.10498C13.5265 3.10498 12.3952 7.27916 12.3486 7.45697C12.2947 7.66244 12.3392 7.88143 12.4691 8.04967C12.5989 8.21791 12.7993 8.31643 13.0119 8.31643H16.8519C18.2761 8.31643 19.4348 7.14752 19.4348 5.71072C19.4348 4.27389 18.2659 3.10498 16.8291 3.10498ZM16.852 6.94498H13.9875C14.4175 5.95869 15.3158 4.47643 16.8293 4.47643C17.4984 4.47643 18.0636 5.0417 18.0636 5.71072C18.0636 6.40279 17.5315 6.94498 16.852 6.94498Z" fill="#676E86"/>
<path d="M13.6976 7.63037H12.3262V21.6647H13.6976V7.63037Z" fill="#676E86"/>
</g>
<defs>
<clipPath id="clip0">
<rect width="20" height="20" fill="white" transform="translate(3 2.72754)"/>
</clipPath>
</defs>
</svg>
