<svg width="36" height="37" viewBox="0 0 36 37" fill="none" xmlns="http://www.w3.org/2000/svg">
<circle cx="18" cy="18.1592" r="18" fill="#F7F7F7"/>
<path fill-rule="evenodd" clip-rule="evenodd" d="M14.6919 14.1319C14.6946 14.132 14.6972 14.132 14.6998 14.132C14.7024 14.132 14.705 14.132 14.7076 14.1319H21.2926C21.2952 14.132 21.2978 14.132 21.3004 14.132C21.303 14.132 21.3056 14.132 21.3082 14.1319H23.647C24.2528 14.1319 24.4226 14.1372 24.5456 14.167C25.0009 14.2772 25.3564 14.6326 25.4665 15.0879C25.4963 15.2109 25.5016 15.3808 25.5016 15.9865C25.5016 16.5923 25.4963 16.7621 25.4665 16.8851C25.3564 17.3404 25.0009 17.6959 24.5456 17.8061C24.4226 17.8358 24.2528 17.8411 23.647 17.8411H22.0504V17.723C22.0504 17.3088 21.7146 16.973 21.3004 16.973C20.8861 16.973 20.5504 17.3088 20.5504 17.723V17.8411H15.4498V17.723C15.4498 17.3088 15.114 16.973 14.6998 16.973C14.2856 16.973 13.9498 17.3088 13.9498 17.723V17.8411H12.3547C11.7489 17.8411 11.5791 17.8358 11.4561 17.8061C11.0008 17.6959 10.6453 17.3404 10.5351 16.8851C10.5054 16.7621 10.5001 16.5923 10.5001 15.9865C10.5001 15.3808 10.5054 15.2109 10.5351 15.0879C10.6453 14.6326 11.0008 14.2772 11.4561 14.167C11.5791 14.1372 11.7489 14.1319 12.3547 14.1319H14.6919ZM13.9498 19.3411H12.3547L12.2661 19.3412H12.266C11.8964 19.3414 11.5923 19.3416 11.3243 19.305V20.0049C11.3243 21.1374 11.3249 21.9416 11.3763 22.571C11.427 23.1917 11.5234 23.5759 11.6785 23.8804C11.9901 24.4919 12.4873 24.9891 13.0988 25.3007C13.4033 25.4558 13.7875 25.5522 14.4082 25.6029C15.0376 25.6543 15.8418 25.6549 16.9743 25.6549H19.0257C20.1582 25.6549 20.9624 25.6543 21.5918 25.6029C22.2124 25.5522 22.5967 25.4558 22.9011 25.3007C23.5127 24.9891 24.0099 24.4919 24.3214 23.8804C24.4766 23.5759 24.573 23.1917 24.6237 22.571C24.6751 21.9416 24.6757 21.1374 24.6757 20.0049V19.3053C24.4081 19.3416 24.1045 19.3414 23.7356 19.3412H23.7356L23.647 19.3411H22.0504V19.4594C22.0504 19.8736 21.7146 20.2094 21.3004 20.2094C20.8861 20.2094 20.5504 19.8736 20.5504 19.4594V19.3411H15.4498V19.4594C15.4498 19.8736 15.114 20.2094 14.6998 20.2094C14.2856 20.2094 13.9498 19.8736 13.9498 19.4594V19.3411ZM26.1749 18.5567C26.1754 18.5681 26.1757 18.5796 26.1757 18.5911V20.0049V20.0379V20.038C26.1757 21.1301 26.1757 21.9956 26.1187 22.6932C26.0604 23.4066 25.9388 24.0102 25.658 24.5614C25.2026 25.4551 24.4759 26.1818 23.5821 26.6372C23.031 26.918 22.4273 27.0396 21.7139 27.0979C21.0163 27.1549 20.1508 27.1549 19.0586 27.1549H19.0257H16.9743H16.9413C15.8492 27.1549 14.9837 27.1549 14.286 27.0979C13.5726 27.0396 12.969 26.918 12.4178 26.6372C11.5241 26.1818 10.7974 25.4551 10.342 24.5614C10.0612 24.0102 9.93956 23.4066 9.88128 22.6932C9.82428 21.9956 9.82428 21.1301 9.82429 20.0379L9.82429 20.0049V18.5911C9.82429 18.579 9.82457 18.567 9.82514 18.5551C9.46405 18.2012 9.20065 17.748 9.07721 17.2379C8.99953 16.9169 8.99975 16.5501 9.00003 16.0751L9.00007 15.9865L9.00003 15.8979C8.99975 15.4229 8.99953 15.0562 9.07721 14.7351C9.3196 13.7335 10.1016 12.9515 11.1033 12.7091C11.4243 12.6314 11.7911 12.6316 12.266 12.6319L12.3547 12.6319H13.9906C14.2709 10.6686 15.9592 9.15918 18.0001 9.15918C20.0409 9.15918 21.7292 10.6686 22.0095 12.6319H23.647L23.7356 12.6319C24.2106 12.6316 24.5774 12.6314 24.8984 12.7091C25.9 12.9515 26.6821 13.7335 26.9245 14.7351C27.0021 15.0562 27.0019 15.4229 27.0016 15.8979L27.0016 15.9865L27.0016 16.0752C27.0019 16.5501 27.0021 16.9169 26.9245 17.2379C26.8008 17.7488 26.5368 18.2025 26.1749 18.5567ZM20.4847 12.6319C20.223 11.5016 19.2099 10.6592 18.0001 10.6592C16.7902 10.6592 15.7771 11.5016 15.5155 12.6319H20.4847Z" fill="#193769"/>
</svg>
