<svg width="25" height="25" viewBox="0 0 25 25" fill="none" xmlns="http://www.w3.org/2000/svg">
<rect x="3.5625" y="3.66016" width="18" height="18" rx="3" stroke="#363E57" stroke-width="1.5"/>
<path d="M6.5625 15.6602H18.5625" stroke="#363E57" stroke-width="1.58114" stroke-linecap="round" stroke-linejoin="round"/>
<path d="M6.5625 18.6602H16.5625" stroke="#363E57" stroke-width="1.58114" stroke-linecap="round" stroke-linejoin="round"/>
<path d="M9.5625 9.66016C8.4595 9.66016 7.5625 8.76316 7.5625 7.66016C7.5625 6.55716 8.4595 5.66016 9.5625 5.66016C10.6655 5.66016 11.5625 6.55716 11.5625 7.66016C11.5625 8.76316 10.6655 9.66016 9.5625 9.66016Z" fill="#363E57"/>
<path d="M12.1134 13.6602H7.01254C6.76412 13.6602 6.5625 13.4585 6.5625 13.2101V12.31C6.5625 11.4 7.30237 10.6602 8.21236 10.6602H10.9126C11.8226 10.6602 12.5625 11.4 12.5625 12.31V13.2101C12.5634 13.4585 12.3618 13.6602 12.1134 13.6602Z" fill="#363E57"/>
</svg>
