<svg width="24" height="25" viewBox="0 0 24 25" fill="none" xmlns="http://www.w3.org/2000/svg">
<path fill-rule="evenodd" clip-rule="evenodd" d="M9.80613 6.93894C7.68056 6.93894 5.95744 8.66205 5.95744 10.7876C5.95744 12.9132 7.68056 14.6363 9.80613 14.6363C11.9317 14.6363 13.6548 12.9132 13.6548 10.7876C13.6548 8.66205 11.9317 6.93894 9.80613 6.93894ZM4.41797 10.7876C4.41797 7.81183 6.83033 5.39947 9.80613 5.39947C12.7819 5.39947 15.1943 7.81183 15.1943 10.7876C15.1943 13.7634 12.7819 16.1758 9.80613 16.1758C6.83033 16.1758 4.41797 13.7634 4.41797 10.7876Z" fill="#676E86"/>
<path fill-rule="evenodd" clip-rule="evenodd" d="M18.8175 2.8648L13.4294 8.25296L12.3408 7.16439L17.7289 1.77623L18.8175 2.8648Z" fill="#676E86"/>
<path fill-rule="evenodd" clip-rule="evenodd" d="M14.4245 2.32052C14.4245 1.8954 14.7692 1.55078 15.1943 1.55078H18.2732C18.6983 1.55078 19.043 1.8954 19.043 2.32052V5.39947C19.043 5.82458 18.6983 6.1692 18.2732 6.1692C17.8481 6.1692 17.5035 5.82458 17.5035 5.39947V3.09025H15.1943C14.7692 3.09025 14.4245 2.74563 14.4245 2.32052Z" fill="#676E86"/>
<path fill-rule="evenodd" clip-rule="evenodd" d="M14.3595 10.9804C12.2992 10.9804 10.629 12.6506 10.629 14.7109C10.629 16.7711 12.2992 18.4413 14.3595 18.4413C16.4197 18.4413 18.0899 16.7711 18.0899 14.7109C18.0899 12.6506 16.4197 10.9804 14.3595 10.9804ZM9.13689 14.7109C9.13689 11.8265 11.4751 9.48828 14.3595 9.48828C17.2438 9.48828 19.582 11.8265 19.582 14.7109C19.582 17.5952 17.2438 19.9334 14.3595 19.9334C11.4751 19.9334 9.13689 17.5952 9.13689 14.7109Z" fill="#676E86"/>
<path fill-rule="evenodd" clip-rule="evenodd" d="M11.9027 18.2227L6.68012 23.4453L5.625 22.3902L10.8476 17.1676L11.9027 18.2227Z" fill="#676E86"/>
<path fill-rule="evenodd" clip-rule="evenodd" d="M9.35541 23.4453L5.625 19.7149L6.68012 18.6598L10.4105 22.3902L9.35541 23.4453Z" fill="#676E86"/>
</svg>
