<svg width="25" height="25" viewBox="0 0 25 25" fill="none" xmlns="http://www.w3.org/2000/svg">
<path d="M18.6602 8.7793C20.317 8.7793 21.6602 7.43615 21.6602 5.7793C21.6602 4.12244 20.317 2.7793 18.6602 2.7793C17.0033 2.7793 15.6602 4.12244 15.6602 5.7793C15.6602 7.43615 17.0033 8.7793 18.6602 8.7793Z" stroke="#193769" stroke-width="2" stroke-linecap="round" stroke-linejoin="round"/>
<path d="M6.66016 15.7793C8.31701 15.7793 9.66016 14.4362 9.66016 12.7793C9.66016 11.1224 8.31701 9.7793 6.66016 9.7793C5.0033 9.7793 3.66016 11.1224 3.66016 12.7793C3.66016 14.4362 5.0033 15.7793 6.66016 15.7793Z" stroke="#193769" stroke-width="2" stroke-linecap="round" stroke-linejoin="round"/>
<path d="M18.6602 22.7793C20.317 22.7793 21.6602 21.4362 21.6602 19.7793C21.6602 18.1224 20.317 16.7793 18.6602 16.7793C17.0033 16.7793 15.6602 18.1224 15.6602 19.7793C15.6602 21.4362 17.0033 22.7793 18.6602 22.7793Z" stroke="#193769" stroke-width="2" stroke-linecap="round" stroke-linejoin="round"/>
<path d="M9.25 14.2891L16.08 18.2691" stroke="#193769" stroke-width="2" stroke-linecap="round" stroke-linejoin="round"/>
<path d="M16.07 7.28906L9.25 11.2691" stroke="#193769" stroke-width="2" stroke-linecap="round" stroke-linejoin="round"/>
</svg>
