<svg width="147" height="143" viewBox="0 0 147 143" fill="none" xmlns="http://www.w3.org/2000/svg">
<path d="M139.933 110.093L138.127 120.725L146.06 128.416C146.914 129.244 146.452 130.648 145.278 130.793L134.38 132.137L129.557 141.705C129.037 142.739 127.51 142.713 126.973 141.664L121.983 131.906L110.94 130.142C109.743 129.95 109.251 128.516 110.106 127.714L118.026 120.296L116.033 109.523C115.818 108.356 117.059 107.5 118.133 108.074L128.043 113.373L137.83 108.549C138.886 108.032 140.128 108.943 139.933 110.093Z" fill="url(#paint0_linear)"/>
<path d="M117.866 46.1911L123.123 58.5307L136.596 61.2463C138.046 61.5384 138.506 63.3192 137.374 64.2589L126.874 72.991L128.261 86.2471C128.411 87.6773 126.796 88.6801 125.526 87.9412L113.745 81.0842L101.004 86.6619C99.6236 87.2666 98.1427 86.096 98.4987 84.6818L101.8 71.5958L92.4723 61.6622C91.4625 60.5858 92.1859 58.8556 93.6962 58.7348L107.629 57.617L114.629 45.9903C115.385 44.7367 117.297 44.856 117.866 46.1911Z" fill="url(#paint1_linear)"/>
<path d="M77.0343 11.6659L84.6895 18.0084L94.4855 15.2199C95.5405 14.9196 96.4478 15.9364 96.0226 16.9401L92.0726 26.2585L97.4891 34.5182C98.0742 35.4102 97.3503 36.618 96.2635 36.5631L86.1739 36.049L79.6762 44.0516C78.9722 44.9188 77.5997 44.651 77.3539 43.5977L75.0829 33.8565L65.5643 30.4817C64.5333 30.1161 64.4222 28.7303 65.376 28.138L74.1742 22.6689L74.8341 12.6337C74.9058 11.5505 76.2059 10.9794 77.0343 11.6659Z" fill="url(#paint2_linear)"/>
<path d="M53.4498 2.35486L53.9889 8.10399L59.1577 10.9821C59.7143 11.2921 59.6694 12.0824 59.0825 12.32L53.6329 14.5249L52.4651 20.142C52.339 20.7487 51.5456 20.9475 51.1218 20.4785L47.189 16.1234L41.2333 16.7414C40.588 16.8085 40.1343 16.1348 40.4659 15.6012L43.5341 10.6676L41.0107 5.37192C40.7374 4.79828 41.261 4.18349 41.896 4.33197L47.7559 5.6993L52.1486 1.84865C52.623 1.43322 53.3915 1.73266 53.4498 2.35486Z" fill="url(#paint3_linear)"/>
<path d="M16.144 52.3979L39.0309 60.1807L58.8763 45.3614C61.0128 43.766 63.9559 45.2901 63.8576 47.9396L62.9521 72.5367L82.4137 86.6158C84.5155 88.1363 83.9174 91.5077 81.3991 92.3237L58.027 99.8939L50.1937 123.702C49.344 126.283 45.9932 126.863 44.5231 124.684L30.927 104.513L6.37434 105.088C3.71531 105.15 2.26396 102.098 3.91694 99.9248L19.1736 79.8761L11.9847 56.5003C11.2086 53.9787 13.6677 51.5553 16.144 52.3979Z" fill="url(#paint4_linear)"/>
<path d="M91.8738 124.024L87.4029 128.165L88.3085 134.348C88.4052 135.013 87.7148 135.482 87.1395 135.142L81.7948 131.986L76.3401 134.61C75.7514 134.893 75.0744 134.354 75.1961 133.698L76.3201 127.606L71.981 123.006C71.5107 122.507 71.7842 121.694 72.4429 121.631L78.5447 121.04L81.3612 115.526C81.6664 114.928 82.5169 114.973 82.8004 115.601L85.4152 121.394L91.4602 122.609C92.1139 122.739 92.3574 123.575 91.8738 124.024Z" fill="url(#paint5_linear)"/>
<defs>
<linearGradient id="paint0_linear" x1="144.912" y1="107.504" x2="69.0837" y2="173.171" gradientUnits="userSpaceOnUse">
<stop stop-color="#FFC444"/>
<stop offset="0.9964" stop-color="#F36F56"/>
</linearGradient>
<linearGradient id="paint1_linear" x1="121.335" y1="40.134" x2="86.1311" y2="159.831" gradientUnits="userSpaceOnUse">
<stop stop-color="#FFC444"/>
<stop offset="0.9964" stop-color="#F36F56"/>
</linearGradient>
<linearGradient id="paint2_linear" x1="77.2616" y1="6.49748" x2="94.7351" y2="97.2968" gradientUnits="userSpaceOnUse">
<stop stop-color="#FFC444"/>
<stop offset="0.9964" stop-color="#F36F56"/>
</linearGradient>
<linearGradient id="paint3_linear" x1="55.666" y1="0.32542" x2="25.5494" y2="44.7955" gradientUnits="userSpaceOnUse">
<stop stop-color="#FFC444"/>
<stop offset="0.9964" stop-color="#F36F56"/>
</linearGradient>
<linearGradient id="paint4_linear" x1="12.1859" y1="40.4563" x2="130.523" y2="231.658" gradientUnits="userSpaceOnUse">
<stop stop-color="#FFC444"/>
<stop offset="0.9964" stop-color="#F36F56"/>
</linearGradient>
<linearGradient id="paint5_linear" x1="94.9955" y1="124.581" x2="38.4138" y2="127.889" gradientUnits="userSpaceOnUse">
<stop stop-color="#FFC444"/>
<stop offset="0.9964" stop-color="#F36F56"/>
</linearGradient>
</defs>
</svg>