<svg width="24" height="25" viewBox="0 0 24 25" fill="none" xmlns="http://www.w3.org/2000/svg">
<path d="M11.9291 6.09045C11.4865 6.13476 11.2187 6.79946 10.6831 8.12886C10.3706 8.90468 10.2143 9.2926 9.91724 9.54026C9.8829 9.5689 9.84736 9.59593 9.81073 9.62128C9.49396 9.84052 9.09328 9.87625 8.29193 9.94771C6.91879 10.0702 6.23221 10.1314 6.05518 10.5584C6.03632 10.6039 6.02165 10.6512 6.01136 10.6996C5.91482 11.1541 6.4359 11.6261 7.47805 12.5702C8.08623 13.1211 8.39033 13.3966 8.52352 13.7689C8.53892 13.8119 8.55249 13.8557 8.5642 13.9C8.66548 14.2831 8.57412 14.6931 8.3914 15.5131C8.07831 16.9182 7.92176 17.6207 8.25501 17.929C8.29051 17.9618 8.32891 17.991 8.36971 18.0162C8.7527 18.2528 9.34252 17.8798 10.5222 17.1339C11.2106 16.6986 11.5548 16.4809 11.9342 16.4633C11.978 16.4613 12.022 16.4613 12.0658 16.4633C12.4452 16.4809 12.7894 16.6986 13.4778 17.1339C14.6575 17.8798 15.2473 18.2528 15.6303 18.0162C15.6711 17.991 15.7095 17.9618 15.745 17.929C16.0782 17.6207 15.9217 16.9182 15.6086 15.5131C15.4259 14.6931 15.3345 14.2831 15.4358 13.9C15.4475 13.8557 15.4611 13.8119 15.4765 13.7689C15.6097 13.3966 15.9138 13.1211 16.522 12.5702C17.5641 11.6261 18.0852 11.1541 17.9886 10.6996C17.9784 10.6512 17.9637 10.6039 17.9448 10.5584C17.7678 10.1314 17.0812 10.0702 15.7081 9.94771C14.9067 9.87625 14.506 9.84052 14.1893 9.62128C14.1526 9.59593 14.1171 9.5689 14.0828 9.54026C13.7857 9.2926 13.6294 8.90468 13.3169 8.12886C12.7813 6.79946 12.5135 6.13476 12.0709 6.09045C12.0237 6.08573 11.9763 6.08573 11.9291 6.09045Z" fill="white"/>
</svg>
