<svg width="25" height="25" viewBox="0 0 25 25" fill="none" xmlns="http://www.w3.org/2000/svg">
<path fill-rule="evenodd" clip-rule="evenodd" d="M6.53149 1.58454C5.73303 1.57705 4.98313 2.18036 4.96871 3.06009C4.91588 6.28198 6.60367 8.96402 9.34312 10.68C9.82604 10.9825 10.0373 11.2406 10.1229 11.4211C10.1988 11.5811 10.1956 11.7187 10.1408 11.8651C10.0789 12.0307 9.94528 12.2151 9.74598 12.4029C9.55051 12.5871 9.31967 12.7485 9.10784 12.8728C9.09879 12.8781 9.08987 12.8837 9.08111 12.8894C5.67324 15.1382 4.92086 18.7582 4.96255 20.9014C4.97929 21.7624 5.70804 22.3349 6.47204 22.3438L18.1954 22.4791C19.0486 22.489 19.7837 21.8161 19.7929 20.934C19.8227 18.0734 19.2441 16.4123 18.324 15.2662C17.8723 14.7035 17.3595 14.2922 16.862 13.9358C16.6786 13.8043 16.5047 13.685 16.3364 13.5697C16.0277 13.3579 15.7381 13.1592 15.4437 12.9226C14.8585 12.4523 14.6113 11.9229 14.5821 11.5206C14.5541 11.1359 14.7135 10.857 15.0147 10.7125C18.7977 8.89884 19.8563 5.53914 19.8256 3.08055C19.8145 2.19483 19.0549 1.60645 18.2675 1.61483C14.6496 1.65333 8.76471 1.60549 6.53149 1.58454ZM6.16854 3.07976C6.17085 2.93927 6.29837 2.78241 6.52024 2.78449C8.75131 2.80541 14.6483 2.85341 18.2802 2.81477C18.5063 2.81236 18.6241 2.96778 18.6257 3.09556C18.6522 5.21566 17.7529 8.06897 14.4959 9.63046C13.6979 10.0131 13.3259 10.791 13.3852 11.6075C13.4433 12.4065 13.902 13.223 14.6919 13.8579C15.0194 14.1212 15.3767 14.3667 15.7094 14.5953C15.8682 14.7044 16.0214 14.8097 16.1631 14.9112C16.6242 15.2416 17.0361 15.5787 17.3882 16.0174C18.0758 16.8739 18.621 18.227 18.593 20.9215C18.591 21.1117 18.4282 21.2817 18.2093 21.2792L16.8339 21.2633C16.5862 20.4966 16.1875 19.7989 15.6622 19.2194C14.7739 18.2391 13.6131 17.6993 12.3935 17.6993C11.174 17.6993 10.0132 18.2391 9.12487 19.2194C8.62303 19.773 8.23667 20.4346 7.98726 21.1612L6.48589 21.1438C6.27089 21.1413 6.16461 20.9961 6.16232 20.8781C6.12536 18.9778 6.79772 15.8415 9.72952 13.8993C9.99354 13.7432 10.2965 13.533 10.569 13.2762C10.8426 13.0183 11.115 12.6859 11.2648 12.2855C11.4217 11.866 11.4357 11.3887 11.2071 10.9067C10.9881 10.4452 10.573 10.0344 9.98013 9.66301C7.54199 8.13579 6.12361 5.82042 6.16854 3.07976ZM12.3935 10.2793C12.7249 10.2793 12.9935 10.5479 12.9935 10.8793V12.348C12.9935 12.6794 12.7249 12.948 12.3935 12.948C12.0621 12.948 11.7935 12.6794 11.7935 12.348V10.8793C11.7935 10.5479 12.0621 10.2793 12.3935 10.2793ZM12.3935 13.5918C12.7249 13.5918 12.9935 13.8604 12.9935 14.1918V14.9415C12.9935 15.2729 12.7249 15.5415 12.3935 15.5415C12.0621 15.5415 11.7935 15.2729 11.7935 14.9415V14.1918C11.7935 13.8604 12.0621 13.5918 12.3935 13.5918ZM14.5974 7.08776L14.5975 7.0877C14.8668 6.77559 15.0952 6.41369 15.273 6.01387H9.51413C9.69196 6.41366 9.92034 6.77555 10.1897 7.08765L10.1898 7.08773C10.837 7.83785 11.6239 8.19175 12.3936 8.19175C13.1633 8.19175 13.9502 7.83785 14.5974 7.08776ZM16.7787 5.20222C16.5792 6.21493 16.1391 7.13806 15.5059 7.87172C14.6601 8.85193 13.5548 9.39175 12.3936 9.39175C11.2324 9.39175 10.1271 8.85193 9.28123 7.87168C8.64806 7.13802 8.20795 6.21493 8.00845 5.20222C7.96848 4.99949 8.13371 4.81387 8.34794 4.81387H16.4392C16.6532 4.81387 16.8187 4.99901 16.7787 5.20222ZM10.014 20.0252L10.0141 20.0252C10.6965 19.2721 11.5436 18.8993 12.3935 18.8993C13.2434 18.8993 14.0906 19.2721 14.773 20.0252L14.7731 20.0253C15.0521 20.3331 15.2881 20.6876 15.4724 21.0772H9.31468C9.49902 20.6876 9.73496 20.3331 10.014 20.0252Z" fill="#676E86"/>
</svg>
