<svg width="36" height="37" viewBox="0 0 36 37" fill="none" xmlns="http://www.w3.org/2000/svg">
<circle cx="18" cy="18.1592" r="18" fill="#F7F7F7"/>
<path d="M9 11.1587C9 10.6064 9.44772 10.1587 10 10.1587H14.4C15.3548 10.1587 16.2705 10.5333 16.9456 11.2001C17.6207 11.8669 18 12.7713 18 13.7142V26.1587C18 25.4514 17.7155 24.7732 17.2092 24.2731C16.7028 23.773 16.0161 23.492 15.3 23.492H10C9.44771 23.492 9 23.0443 9 22.492V11.1587Z" stroke="#193769" stroke-width="1.5" stroke-linecap="round" stroke-linejoin="round"/>
<path d="M27 11.1587C27 10.6064 26.5523 10.1587 26 10.1587H21.6C20.6452 10.1587 19.7295 10.5333 19.0544 11.2001C18.3793 11.8669 18 12.7713 18 13.7142V26.1587C18 25.4514 18.2845 24.7732 18.7908 24.2731C19.2972 23.773 19.9839 23.492 20.7 23.492H26C26.5523 23.492 27 23.0443 27 22.492V11.1587Z" stroke="#193769" stroke-width="1.5" stroke-linecap="round" stroke-linejoin="round"/>
</svg>
