<svg width="36" height="37" viewBox="0 0 36 37" fill="none" xmlns="http://www.w3.org/2000/svg">
<circle cx="18" cy="18.1592" r="18" fill="#F7F7F7"/>
<g clip-path="url(#clip0)">
<path d="M9.03349 17.7498L9.03345 17.7498C8.85552 17.9937 8.85552 18.3244 9.03345 18.5682L9.03346 18.5682C9.11623 18.6815 10.1199 20.0353 11.7184 21.3617C13.3152 22.6867 15.5189 23.9954 17.9999 23.9954C20.481 23.9954 22.6846 22.6867 24.2814 21.3618C25.8799 20.0353 26.8835 18.6816 26.9663 18.5684L26.9663 18.5684C27.1445 18.3246 27.1446 17.9936 26.9663 17.75C26.8834 17.6365 25.8798 16.2828 24.2814 14.9565C22.6846 13.6315 20.481 12.3229 17.9999 12.3229C15.5189 12.3229 13.3152 13.6315 11.7184 14.9565C10.1199 16.2829 9.11622 17.6366 9.03349 17.7498ZM17.9999 22.6086C16.2285 22.6086 14.5679 21.7653 13.229 20.7736C11.9405 19.8193 10.96 18.735 10.4792 18.1586C10.9593 17.5819 11.938 16.4978 13.2256 15.5438C14.5636 14.5525 16.2246 13.7097 17.9999 13.7097C19.7713 13.7097 21.4318 14.5528 22.7706 15.5444C24.0591 16.4986 25.0397 17.583 25.5207 18.1596C25.0405 18.7363 24.0618 19.8204 22.7742 20.7744C21.4362 21.7657 19.7752 22.6086 17.9999 22.6086Z" fill="#193769" stroke="#193769" stroke-width="0.2"/>
<path d="M17.9999 14.5986C16.0367 14.5986 14.4395 16.1959 14.4395 18.1591C14.4395 20.1223 16.0367 21.7195 17.9999 21.7195C19.9631 21.7195 21.5604 20.1223 21.5604 18.1591C21.5604 16.1959 19.9631 14.5986 17.9999 14.5986ZM17.9999 20.5327C16.691 20.5327 15.6263 19.4679 15.6263 18.1591C15.6263 16.8503 16.6911 15.7855 17.9999 15.7855C19.3087 15.7855 20.3735 16.8503 20.3735 18.1591C20.3735 19.4679 19.3088 20.5327 17.9999 20.5327Z" fill="#193769"/>
</g>
<defs>
<clipPath id="clip0">
<rect width="18" height="18" fill="white" transform="translate(9 9.15918)"/>
</clipPath>
</defs>
</svg>
