<svg width="24" height="25" viewBox="0 0 24 25" fill="none" xmlns="http://www.w3.org/2000/svg">
<path d="M20.3984 12.9872C21.2947 12.9098 22 12.1735 22 11.2791V5.94279C22 4.997 21.2114 4.22754 20.2422 4.22754H14.4219C13.4526 4.22754 12.6641 4.997 12.6641 5.94279V8.19166H5.35938C4.39012 8.19166 3.60156 8.96112 3.60156 9.90691V16.7679C3.60156 16.9683 3.6373 17.1607 3.70234 17.3396H3.05469C2.47313 17.3396 2 17.8013 2 18.3688C2 19.9451 3.31426 21.2275 4.92969 21.2275H19.0703C20.6857 21.2275 22 19.9451 22 18.3688C22 17.8013 21.5269 17.3396 20.9453 17.3396H20.2977C20.3627 17.1607 20.3984 16.9683 20.3984 16.7679V12.9872ZM13.8359 5.94279C13.8359 5.62752 14.0988 5.37104 14.4219 5.37104H20.2422C20.5653 5.37104 20.8281 5.62752 20.8281 5.94279V11.2791C20.8281 11.5944 20.5653 11.8509 20.2422 11.8509H14.8125C14.7027 11.8509 14.5951 11.881 14.502 11.9378L13.3205 12.6583L13.8113 11.0622C13.8276 11.0089 13.8359 10.9536 13.8359 10.8979V5.94279ZM19.0703 20.084H4.92969C3.9998 20.084 3.23629 19.3758 3.17574 18.4831H20.8243C20.7637 19.3758 20.0002 20.084 19.0703 20.084ZM7.58594 13.0325C7.58594 12.6752 7.88383 12.3845 8.25 12.3845C8.61617 12.3845 8.91406 12.6752 8.91406 13.0325C8.91406 13.3898 8.61617 13.6805 8.25 13.6805C7.88383 13.6805 7.58594 13.3898 7.58594 13.0325ZM7.27344 15.4719C7.27344 15.1267 7.72977 14.824 8.25 14.824C8.52898 14.824 8.79777 14.9089 8.98746 15.057C9.0768 15.1267 9.22656 15.2733 9.22656 15.4719V17.3396H7.27344V15.4719ZM10.3984 17.3396V15.4719C10.3984 14.9776 10.151 14.5008 9.71953 14.164C9.70984 14.1565 9.69973 14.1494 9.68988 14.142C9.93754 13.8366 10.0859 13.4512 10.0859 13.0325C10.0859 12.0446 9.26234 11.241 8.25 11.241C7.23766 11.241 6.41406 12.0446 6.41406 13.0325C6.41406 13.4517 6.56281 13.8374 6.81094 14.143C6.37563 14.471 6.10156 14.9453 6.10156 15.4719V17.3396H5.35938C5.03629 17.3396 4.77344 17.0832 4.77344 16.7679V9.90691C4.77344 9.59165 5.03629 9.33516 5.35938 9.33516H12.6641V10.814L12.1981 12.3297C12.0566 12.79 12.2181 13.2758 12.6096 13.5673C12.8205 13.7244 13.0695 13.8037 13.3196 13.8037C13.5338 13.8037 13.7489 13.7455 13.9416 13.628L14.9805 12.9944H19.2266V16.7679C19.2266 17.0832 18.9637 17.3396 18.6406 17.3396H10.3984Z" fill="#676E86"/>
<path d="M17.9375 9.41162H16.6875C16.3639 9.41162 16.1016 9.66761 16.1016 9.98337C16.1016 10.2991 16.3639 10.5551 16.6875 10.5551H17.9375C18.2611 10.5551 18.5234 10.2991 18.5234 9.98337C18.5234 9.66761 18.2611 9.41162 17.9375 9.41162Z" fill="#676E86"/>
<path d="M15.75 7.81049H18.875C19.1986 7.81049 19.4609 7.5545 19.4609 7.23874C19.4609 6.92298 19.1986 6.66699 18.875 6.66699H15.75C15.4264 6.66699 15.1641 6.92298 15.1641 7.23874C15.1641 7.5545 15.4264 7.81049 15.75 7.81049Z" fill="#676E86"/>
</svg>
