<svg width="25" height="25" viewBox="0 0 25 25" fill="none" xmlns="http://www.w3.org/2000/svg">
<path fill-rule="evenodd" clip-rule="evenodd" d="M10.0276 8.44214C10.0276 6.92349 11.2588 5.69238 12.7774 5.69238C14.2961 5.69238 15.5272 6.92349 15.5272 8.44214C15.5272 9.96079 14.2961 11.1919 12.7774 11.1919C11.2588 11.1919 10.0276 9.96079 10.0276 8.44214ZM12.7774 3.69238C10.1542 3.69238 8.02765 5.81892 8.02765 8.44214C8.02765 11.0654 10.1542 13.1919 12.7774 13.1919C15.4006 13.1919 17.5272 11.0654 17.5272 8.44214C17.5272 5.81892 15.4006 3.69238 12.7774 3.69238ZM7.21533 18.754C7.21533 17.2353 8.44644 16.0042 9.96509 16.0042H15.5897C17.1084 16.0042 18.3395 17.2353 18.3395 18.754C18.3395 19.2371 17.9478 19.6288 17.4646 19.6288H8.09021C7.60703 19.6288 7.21533 19.2371 7.21533 18.754ZM9.96509 14.0042C7.34187 14.0042 5.21533 16.1307 5.21533 18.754C5.21533 20.3417 6.50246 21.6288 8.09021 21.6288H17.4646C19.0524 21.6288 20.3395 20.3417 20.3395 18.754C20.3395 16.1307 18.2129 14.0042 15.5897 14.0042H9.96509Z" fill="#676E86"/>
</svg>
