<svg width="300" height="300" viewBox="0 0 300 300" fill="none" xmlns="http://www.w3.org/2000/svg">
<g clip-path="url(#clip0_832_12656)">
<rect width="300" height="300" fill="#049435"/>
<path d="M12 22C12 28.6274 6.62742 34 0 34C-6.62742 34 -12 28.6274 -12 22C-12 15.3726 -6.62742 10 0 10C6.62742 10 12 15.3726 12 22Z" fill="white"/>
<path d="M12 54C12 60.6274 6.62742 66 0 66C-6.62742 66 -12 60.6274 -12 54C-12 47.3726 -6.62742 42 0 42C6.62742 42 12 47.3726 12 54Z" fill="white"/>
<path d="M12 86C12 92.6274 6.62742 98 0 98C-6.62742 98 -12 92.6274 -12 86C-12 79.3726 -6.62742 74 0 74C6.62742 74 12 79.3726 12 86Z" fill="white"/>
<path d="M12 118C12 124.627 6.62742 130 0 130C-6.62742 130 -12 124.627 -12 118C-12 111.373 -6.62742 106 0 106C6.62742 106 12 111.373 12 118Z" fill="white"/>
<path d="M12 150C12 156.627 6.62742 162 0 162C-6.62742 162 -12 156.627 -12 150C-12 143.373 -6.62742 138 0 138C6.62742 138 12 143.373 12 150Z" fill="white"/>
<path d="M12 182C12 188.627 6.62742 194 0 194C-6.62742 194 -12 188.627 -12 182C-12 175.373 -6.62742 170 0 170C6.62742 170 12 175.373 12 182Z" fill="white"/>
<path d="M12 214C12 220.627 6.62742 226 0 226C-6.62742 226 -12 220.627 -12 214C-12 207.373 -6.62742 202 0 202C6.62742 202 12 207.373 12 214Z" fill="white"/>
<path d="M12 246C12 252.627 6.62742 258 0 258C-6.62742 258 -12 252.627 -12 246C-12 239.373 -6.62742 234 0 234C6.62742 234 12 239.373 12 246Z" fill="white"/>
<path d="M12 278C12 284.627 6.62742 290 0 290C-6.62742 290 -12 284.627 -12 278C-12 271.373 -6.62742 266 0 266C6.62742 266 12 271.373 12 278Z" fill="white"/>
</g>
<defs>
<clipPath id="clip0_832_12656">
<rect width="300" height="300" fill="white"/>
</clipPath>
</defs>
</svg>
