<svg width="41" height="41" viewBox="0 0 41 41" fill="none" xmlns="http://www.w3.org/2000/svg">
<path fill-rule="evenodd" clip-rule="evenodd" d="M30.7033 10.0808C30.0533 9.43083 29.0033 9.43083 28.3533 10.0808L20.2033 18.2142L12.0533 10.0642C11.4033 9.41416 10.3533 9.41416 9.70332 10.0642C9.05332 10.7142 9.05332 11.7642 9.70332 12.4142L17.8533 20.5642L9.70332 28.7142C9.05332 29.3642 9.05332 30.4142 9.70332 31.0642C10.3533 31.7142 11.4033 31.7142 12.0533 31.0642L20.2033 22.9142L28.3533 31.0642C29.0033 31.7142 30.0533 31.7142 30.7033 31.0642C31.3533 30.4142 31.3533 29.3642 30.7033 28.7142L22.5533 20.5642L30.7033 12.4142C31.3367 11.7808 31.3367 10.7142 30.7033 10.0808Z" fill="#676E86"/>
</svg>
