<svg width="25" height="28" viewBox="0 0 25 28" fill="none" xmlns="http://www.w3.org/2000/svg">
<path fill-rule="evenodd" clip-rule="evenodd" d="M18.6952 7.35567C18.3052 6.91978 17.6752 6.91978 17.2852 7.35567L12.3952 12.8098L7.50523 7.34449C7.11523 6.90861 6.48523 6.90861 6.09523 7.34449C5.70523 7.78037 5.70523 8.48449 6.09523 8.92037L10.9852 14.3857L6.09523 19.851C5.70523 20.2868 5.70523 20.991 6.09523 21.4268C6.48523 21.8627 7.11523 21.8627 7.50523 21.4268L12.3952 15.9615L17.2852 21.4268C17.6752 21.8627 18.3052 21.8627 18.6952 21.4268C19.0852 20.991 19.0852 20.2868 18.6952 19.851L13.8052 14.3857L18.6952 8.92037C19.0752 8.49567 19.0752 7.78037 18.6952 7.35567Z" fill="#091230"/>
</svg>
